<?xml version="1.0" standalone="no"?>
<!DOCTYPE svg PUBLIC "-//W3C//DTD SVG 20010904//EN"
 "http://www.w3.org/TR/2001/REC-SVG-20010904/DTD/svg10.dtd">
<svg version="1.0" xmlns="http://www.w3.org/2000/svg"
 width="1590" height="1590" viewBox="0 0 1590.000000 1590.000000"
 preserveAspectRatio="xMidYMid meet">

<g transform="translate(0.000000,1590.000000) scale(0.100000,-0.100000)"
fill="#000000" stroke="none">
<path d="M5673 9013 l2 -2518 722 -3 723 -2 2 845 3 846 220 -182 c121 -100
325 -268 454 -373 294 -240 662 -542 806 -661 61 -50 130 -107 155 -127 25
-20 130 -106 234 -192 l188 -156 1311 0 c769 0 1307 4 1302 9 -11 9 -50 36
-615 416 -536 361 -1415 954 -1983 1338 -160 109 -407 275 -547 369 -218 146
-497 335 -508 344 -2 1 52 40 120 85 67 45 184 126 258 179 117 84 1295 904
1543 1075 281 193 383 263 577 399 118 82 319 221 445 309 374 260 483 336
610 426 l120 86 -255 3 c-140 2 -711 0 -1267 -4 l-1013 -6 -547 -431 c-302
-237 -681 -535 -843 -662 -263 -207 -427 -337 -697 -550 -45 -36 -85 -65 -88
-65 -3 0 -5 387 -5 860 l0 860 -715 0 -715 0 3 -2517z"/>
<path d="M2559 11308 l-24 -153 -50 -11 c-27 -6 -86 -19 -130 -29 -44 -10
-130 -34 -192 -54 l-112 -37 -96 119 c-70 86 -101 117 -113 112 -8 -3 -63 -34
-121 -68 -58 -35 -157 -92 -218 -127 -62 -35 -113 -69 -113 -75 0 -6 22 -69
50 -140 27 -72 50 -134 50 -140 0 -5 -15 -20 -33 -33 -44 -31 -176 -159 -269
-261 l-76 -84 -135 53 c-75 29 -140 51 -146 49 -11 -4 -271 -444 -271 -459 0
-5 52 -52 115 -105 63 -53 115 -98 115 -101 0 -2 -18 -57 -39 -122 -22 -64
-49 -164 -60 -222 -12 -58 -23 -114 -26 -125 -4 -18 -22 -23 -160 -45 l-155
-24 0 -273 c0 -250 1 -272 18 -277 9 -3 53 -10 97 -16 164 -23 195 -31 200
-54 3 -11 12 -57 21 -101 21 -108 58 -237 93 -329 l29 -75 -97 -80 c-53 -44
-107 -88 -120 -98 l-23 -19 137 -234 c75 -129 138 -236 138 -236 1 -1 63 22
137 52 74 29 141 53 148 54 7 0 41 -30 75 -67 80 -88 107 -114 195 -195 l73
-66 -61 -152 c-34 -84 -60 -154 -58 -155 11 -9 457 -275 461 -275 4 0 177 201
214 249 2 3 51 -12 111 -31 104 -35 218 -65 333 -88 65 -13 56 6 85 -186 l18
-121 269 -8 c147 -4 271 -5 274 -2 3 3 16 72 29 153 14 82 26 148 27 149 1 1
55 11 120 23 65 13 178 42 252 66 l134 43 88 -114 c49 -63 93 -121 99 -129 9
-12 53 8 251 116 l240 131 -53 150 c-30 83 -54 155 -54 159 0 11 349 360 360
360 4 0 67 -22 140 -50 73 -27 136 -50 141 -50 4 0 19 19 32 43 44 76 209 361
228 393 l19 32 -120 96 c-66 53 -120 99 -120 102 0 3 18 58 39 122 22 64 52
171 66 237 15 66 28 122 30 126 3 3 67 14 145 24 77 10 144 21 150 25 5 3 12
120 16 275 l7 270 -139 24 c-188 32 -180 28 -188 99 -9 77 -57 266 -93 366
l-29 79 71 61 c38 34 89 76 113 95 23 18 42 37 42 42 0 11 -248 438 -264 456
-8 9 -44 -1 -146 -42 l-134 -53 -35 41 c-43 52 -254 264 -300 301 l-33 27 56
135 c31 74 54 139 51 144 -4 7 -217 139 -424 263 l-34 21 -21 -26 c-61 -74
-179 -208 -183 -208 -3 0 -67 20 -142 44 -75 24 -188 54 -251 66 -63 13 -116
24 -118 25 -3 2 -52 282 -52 298 0 4 -123 7 -273 7 l-273 0 -25 -152z m301 -8
c8 0 27 6 42 14 23 12 29 12 38 1 9 -11 7 -17 -8 -26 -20 -13 -20 -13 4 -42
16 -19 24 -41 24 -67 0 -33 -6 -44 -35 -67 -39 -31 -48 -65 -15 -56 16 4 20 0
20 -21 0 -19 -5 -26 -19 -26 -14 0 -21 -8 -23 -27 -5 -42 -36 -43 -40 -1 -2
25 -8 33 -23 33 -13 0 -20 7 -20 20 0 14 6 20 23 19 33 -1 27 24 -14 60 -43
37 -48 82 -16 126 l21 28 -22 15 c-19 12 -20 17 -8 30 12 15 15 15 34 2 12 -8
28 -15 37 -15z m1214 -234 c92 -39 103 -169 16 -208 -37 -16 -39 -28 -5 -28
18 0 25 -5 25 -20 0 -15 -7 -20 -25 -20 -21 0 -25 -5 -25 -30 0 -23 -4 -30
-20 -30 -16 0 -20 7 -20 30 0 25 -4 30 -25 30 -18 0 -25 5 -25 20 0 15 7 20
25 20 34 0 32 13 -5 27 -16 6 -38 26 -50 44 -45 72 3 160 98 178 1 1 17 -5 36
-13z m-2345 -42 c43 -31 66 -127 41 -175 -9 -16 -7 -19 15 -19 21 0 25 5 25
30 0 23 4 30 20 30 16 0 20 -7 20 -31 l0 -31 55 7 c54 6 55 6 55 -19 0 -25 -3
-26 -56 -26 l-56 0 7 -40 c7 -40 7 -40 -25 -40 -32 0 -32 0 -25 40 l7 40 -81
0 c-73 0 -81 2 -81 19 0 13 9 21 30 26 53 12 77 75 49 128 -16 29 -28 37 -61
37 -21 0 -28 5 -28 20 0 16 7 20 33 20 18 0 43 -7 56 -16z m1307 -175 c582
-56 1093 -361 1416 -844 377 -563 421 -1301 114 -1913 -185 -369 -518 -694
-890 -867 -291 -136 -641 -202 -944 -177 -872 72 -1559 674 -1738 1526 -35
166 -44 455 -20 631 96 694 558 1276 1214 1530 115 44 300 90 423 104 52 6
108 13 124 15 66 7 197 5 301 -5z m1794 -609 c0 -11 -4 -20 -10 -20 -5 0 -10
-25 -10 -55 0 -53 1 -55 20 -45 12 6 35 10 53 8 28 -3 35 -10 60 -61 28 -57
29 -59 62 -53 23 5 35 3 37 -6 11 -31 -62 -50 -95 -25 -9 6 -25 33 -36 60 -22
51 -41 59 -78 29 -16 -13 -23 -30 -25 -67 -2 -38 -7 -51 -20 -53 -16 -3 -18 8
-18 132 0 84 -4 136 -10 136 -5 0 -10 9 -10 20 0 17 7 20 40 20 33 0 40 -3 40
-20z m-3825 -62 c-7 -18 -15 -31 -18 -28 -2 3 -11 -1 -20 -8 -11 -10 -14 -23
-10 -43 11 -56 -38 -119 -92 -119 -29 0 -71 28 -83 55 -20 43 -14 74 19 107
28 29 33 30 85 24 50 -6 56 -4 61 13 5 19 20 27 55 30 15 1 16 -2 3 -31z
m-466 -1213 c67 -34 150 -12 192 51 l19 29 0 -45 c0 -54 -27 -102 -72 -130
-41 -25 -82 -25 -127 -2 -49 24 -71 59 -77 122 l-6 55 21 -32 c11 -18 34 -39
50 -48z m4473 63 c3 -7 -1 -28 -8 -48 -21 -62 9 -144 62 -168 45 -21 82 -14
121 21 31 29 37 41 41 89 3 35 0 58 -7 62 -6 4 -11 18 -11 32 0 21 4 25 22 22
25 -3 35 -32 37 -106 3 -106 -96 -192 -193 -168 -36 9 -87 55 -103 95 -14 34
-20 152 -8 171 9 14 43 12 47 -2z m-149 -1062 c43 -17 95 -78 102 -118 3 -18
5 -60 3 -93 -3 -52 -6 -60 -24 -63 -24 -3 -41 25 -24 42 5 5 10 33 10 62 0 63
-30 112 -81 132 -73 28 -149 -36 -149 -126 0 -23 5 -51 12 -61 14 -24 3 -53
-19 -49 -32 6 -44 122 -19 181 24 56 87 102 144 106 7 1 27 -5 45 -13z m-3913
-71 c0 -63 24 -75 67 -33 27 27 35 29 48 18 14 -12 12 -17 -20 -50 -19 -20
-32 -39 -29 -43 4 -4 32 -7 61 -7 46 0 54 -3 51 -17 -2 -14 -15 -19 -55 -21
-44 -3 -57 -8 -88 -39 -28 -28 -35 -43 -35 -74 0 -32 -3 -39 -20 -39 -17 0
-20 7 -20 45 0 32 -4 45 -14 45 -8 0 -25 13 -39 29 -18 22 -35 31 -63 33 -27
2 -40 8 -42 21 -3 14 4 17 41 17 57 0 65 18 26 56 -33 31 -36 42 -13 51 9 3
26 -5 43 -21 39 -37 61 -27 61 30 0 37 3 44 20 44 17 0 20 -7 20 -45z"/>
<path d="M3981 11004 c-27 -34 -26 -57 2 -90 64 -74 167 14 111 94 -23 33 -86
31 -113 -4z"/>
<path d="M2810 10545 l0 -75 53 2 c50 1 50 2 10 5 -40 4 -43 6 -43 34 0 27 3
29 35 29 19 0 35 5 35 10 0 6 -16 10 -35 10 -28 0 -35 4 -35 20 0 17 7 20 40
20 22 0 40 5 40 10 0 6 -22 10 -50 10 l-50 0 0 -75z"/>
<path d="M2936 10589 c-3 -17 -6 -51 -6 -74 0 -36 4 -44 23 -49 62 -15 115 33
102 94 -7 33 -23 44 -76 54 -35 6 -37 5 -43 -25z m86 -6 c38 -34 10 -103 -43
-103 -29 0 -29 0 -29 60 0 58 1 60 27 60 14 0 35 -7 45 -17z"/>
<path d="M2678 10575 c4 -35 4 -35 -37 -35 -39 0 -41 2 -41 30 0 17 -4 30 -10
30 -13 0 -13 -9 1 -87 6 -35 15 -63 19 -63 5 0 6 15 3 34 -4 29 -2 34 18 39
50 14 59 9 59 -28 0 -19 5 -35 11 -35 11 0 5 102 -8 136 -10 26 -19 14 -15
-21z"/>
<path d="M3085 10588 c-2 -7 -6 -33 -10 -58 -7 -57 9 -81 55 -83 27 -2 37 3
46 23 17 35 29 120 16 120 -5 0 -13 -24 -16 -52 -8 -58 -20 -78 -46 -78 -33 0
-43 25 -33 85 6 31 6 55 1 55 -5 0 -10 -6 -13 -12z"/>
<path d="M2471 10563 c-15 -29 -26 -157 -12 -149 6 4 11 16 11 26 0 26 55 37
79 16 35 -32 30 -15 -15 54 -26 39 -48 70 -50 70 -2 0 -7 -8 -13 -17z m49 -69
c0 -7 -12 -14 -26 -17 -22 -4 -25 -2 -20 17 3 11 6 30 6 41 0 18 2 18 20 -5
11 -14 20 -30 20 -36z"/>
<path d="M3265 10560 c-28 -10 -41 -29 -50 -67 -5 -27 -2 -37 19 -58 25 -25
86 -36 86 -15 0 6 -10 8 -24 4 -17 -4 -31 1 -45 15 -25 25 -26 42 -6 81 18 34
48 39 84 13 17 -12 22 -12 19 -2 -6 19 -60 38 -83 29z"/>
<path d="M2367 10543 c-7 -12 34 -143 45 -143 12 0 10 10 -15 85 -13 38 -26
64 -30 58z"/>
<path d="M3380 10465 c-49 -59 -65 -91 -32 -61 16 14 27 16 49 9 15 -5 30 -18
31 -29 2 -10 8 -23 13 -28 5 -6 9 25 9 77 0 63 -3 87 -12 87 -7 0 -33 -25 -58
-55z m50 -11 c0 -32 -2 -35 -22 -28 -13 3 -25 8 -27 10 -4 4 39 54 46 54 2 0
3 -16 3 -36z"/>
<path d="M2257 10503 c-4 -8 -3 -38 3 -123 2 -30 3 -32 9 -11 3 12 20 29 36
36 25 10 33 10 48 -3 38 -34 24 -2 -24 51 -50 56 -63 65 -72 50z m63 -75 c0
-5 -4 -8 -9 -8 -5 0 -16 -3 -25 -6 -13 -5 -16 2 -16 37 l1 44 24 -30 c14 -16
25 -33 25 -37z"/>
<path d="M3490 10491 c0 -4 11 -13 25 -19 20 -9 23 -15 16 -29 -33 -59 -50
-103 -42 -108 6 -3 22 22 37 55 15 33 28 60 30 60 1 0 14 -4 28 -10 53 -20 24
8 -34 33 -33 14 -60 22 -60 18z"/>
<path d="M2144 10398 l6 -62 -38 37 c-32 32 -72 49 -72 32 0 -10 48 -99 64
-120 24 -31 19 -2 -9 46 -35 62 -31 69 15 24 33 -33 40 -36 46 -21 4 9 4 38 1
64 l-5 47 29 -57 c16 -32 34 -58 39 -58 5 0 -5 29 -22 65 -43 86 -63 87 -54 3z"/>
<path d="M3606 10366 c-38 -67 -41 -76 -28 -76 11 0 77 128 70 135 -3 3 -22
-23 -42 -59z"/>
<path d="M2770 10394 c-214 -25 -331 -53 -469 -112 -205 -89 -396 -228 -527
-383 -170 -201 -257 -373 -322 -629 -24 -96 -26 -122 -27 -305 0 -220 11 -301
65 -465 118 -360 387 -673 729 -844 102 -52 287 -112 404 -132 125 -21 422
-15 537 11 501 112 915 479 1074 955 51 154 70 272 69 445 0 189 -18 314 -69
465 -50 150 -123 291 -214 411 -269 359 -660 565 -1110 583 -58 2 -121 2 -140
0z m400 -89 c329 -79 607 -261 806 -524 78 -104 185 -315 218 -431 65 -232 74
-480 25 -707 l-12 -51 -261 -4 -261 -4 -97 -53 -98 -53 0 361 0 361 -49 -20
-49 -19 -6 37 c-3 20 -17 163 -31 317 -14 154 -29 292 -34 308 -19 57 63 76
145 32 58 -31 115 -32 161 -4 54 34 80 99 46 118 -13 7 -25 2 -51 -20 -42 -37
-89 -39 -130 -4 -66 56 -143 69 -199 35 -45 -27 -57 -54 -49 -114 4 -39 -24
-633 -37 -755 -1 -18 -13 -27 -49 -41 l-48 -18 0 74 c0 41 -2 74 -4 74 -2 0
-94 -38 -205 -85 -112 -47 -204 -85 -206 -85 -2 0 -1 36 1 80 2 47 0 80 -6 80
-5 0 -103 -40 -217 -89 l-208 -89 -3 -276 c-1 -152 -4 -276 -6 -276 -12 0
-145 54 -182 74 -25 13 -54 22 -64 19 -11 -3 -20 -3 -20 1 0 5 -22 127 -146
795 -13 74 -23 136 -21 138 2 1 17 -3 33 -11 16 -7 46 -16 67 -19 51 -8 83 22
92 86 5 32 13 48 25 52 10 3 23 12 30 20 9 11 6 17 -18 29 -24 13 -30 23 -36
63 -7 55 -26 88 -55 96 -29 7 -136 -46 -157 -78 -17 -27 -18 -27 -26 -6 -5 14
-16 21 -33 21 -26 0 -26 0 18 58 204 262 509 452 832 516 117 23 144 24 315
20 123 -3 177 -9 260 -29z m-1190 -601 c5 -21 8 -40 6 -41 -1 -2 -16 -6 -33
-9 l-31 -6 9 47 c15 79 33 83 49 9z m-85 -61 c0 -60 4 -118 8 -131 l9 -23 -41
20 c-89 46 -94 145 -11 215 18 14 32 26 33 26 1 0 2 -48 2 -107z m-204 -55
c-11 -67 -50 -310 -86 -538 -36 -228 -68 -428 -72 -445 l-6 -30 -9 30 c-38
136 -51 404 -28 550 15 97 44 206 79 298 29 78 131 271 138 263 3 -2 -5 -60
-16 -128z m284 2 c10 0 11 -9 5 -34 -4 -18 -11 -39 -15 -46 -12 -20 -35 18
-35 58 0 27 3 33 16 28 9 -3 22 -6 29 -6z m1353 -456 c-3 -2 -18 -6 -34 -10
l-29 -6 7 124 c4 68 11 166 15 218 l7 95 19 -208 c10 -115 17 -210 15 -213z
m-1558 325 c0 -6 -4 -7 -10 -4 -5 3 -10 11 -10 16 0 6 5 7 10 4 6 -3 10 -11
10 -16z m-20 -81 c0 -6 -7 -5 -15 2 -8 7 -15 17 -15 22 0 6 7 5 15 -2 8 -7 15
-17 15 -22z m20 -103 c10 -12 9 -16 -4 -21 -18 -7 -49 13 -40 27 8 14 30 11
44 -6z m-60 -75 c0 -4 -6 -10 -14 -13 -10 -4 -12 0 -9 14 5 18 23 18 23 -1z
m60 -83 c-17 -10 -38 -16 -47 -13 -14 6 -12 11 12 36 27 28 30 29 47 13 18
-16 17 -17 -12 -36z m866 -744 c-3 -3 -14 -2 -25 2 -20 6 -21 14 -21 116 l0
109 -99 0 c-115 0 -111 4 -111 -105 l0 -73 -35 11 -35 10 0 263 0 262 139 61
c76 33 149 65 162 69 l24 9 3 -365 c1 -201 0 -367 -2 -369z m414 362 l0 -375
-25 0 -25 0 0 125 0 125 -99 0 -98 0 -7 -31 c-3 -17 -6 -74 -6 -126 l0 -94
-46 3 -46 3 0 298 c0 164 3 301 6 304 7 7 327 142 339 142 4 1 7 -168 7 -374z
m390 50 c0 -314 -1 -325 -20 -335 -19 -10 -20 -8 -20 59 0 38 -2 75 -5 83 -7
17 -186 12 -197 -5 -4 -7 -8 -56 -8 -109 0 -87 -2 -98 -17 -98 -10 0 -28 -3
-41 -6 l-22 -6 2 312 3 312 145 58 c80 32 153 58 163 59 16 1 17 -21 17 -324z
m-1595 227 c-1 -1 -14 8 -30 20 l-28 22 24 19 24 19 6 -38 c4 -22 6 -40 4 -42z
m-165 49 c0 -6 -4 -13 -10 -16 -5 -3 -10 1 -10 9 0 9 5 16 10 16 6 0 10 -4 10
-9z m105 -76 c39 -33 39 -35 20 -49 -23 -18 -29 -16 -86 20 l-42 26 24 19 c32
25 38 24 84 -16z m-98 -76 l35 -22 -44 -27 c-23 -15 -44 -26 -46 -25 -5 5 10
95 15 95 3 0 21 -10 40 -21z m183 -24 c0 -8 -4 -15 -9 -15 -13 0 -22 16 -14
24 11 11 23 6 23 -9z m-51 -56 c18 -11 30 -24 25 -28 -5 -4 -31 -24 -57 -45
-52 -41 -57 -41 -115 3 l-24 18 59 35 c32 20 63 37 68 37 6 1 25 -8 44 -20z
m90 -144 c8 -42 12 -77 10 -80 -4 -4 -129 72 -129 79 0 5 93 76 100 76 3 0 12
-34 19 -75z m-229 -7 c0 -7 -82 -69 -86 -65 -1 1 2 28 8 59 l10 57 34 -22 c18
-12 34 -25 34 -29z m131 -78 c32 -23 59 -43 59 -46 0 -5 -41 -5 -157 3 l-82 5
47 38 c26 22 53 39 60 39 7 1 40 -17 73 -39z m719 -131 c0 -79 -1 -81 -22 -75
-13 3 -33 6 -45 6 -22 0 -23 4 -23 75 l0 75 45 0 45 0 0 -81z m808 15 c3 -61
3 -62 -29 -73 -64 -22 -69 -18 -69 57 0 38 3 72 7 76 4 4 25 6 48 4 l40 -3 3
-61z m-390 -36 l-3 -93 -45 0 -45 0 -3 93 -3 92 51 0 51 0 -3 -92z m1217 17
c-29 -76 -100 -221 -113 -229 -12 -7 -145 75 -208 130 -44 37 -124 140 -124
158 0 3 106 6 235 6 l234 0 -24 -65z m-505 -115 l0 -160 -30 0 -30 0 0 145 0
144 28 15 c15 8 28 15 30 16 1 0 2 -72 2 -160z m-1700 110 c-49 -62 -133 -131
-203 -167 -74 -39 -92 -41 -112 -10 -14 22 -95 203 -95 213 0 2 99 4 221 4
l221 0 -32 -40z m158 -3 c8 -7 12 -47 12 -138 l0 -129 -30 0 -30 0 0 145 c0
133 1 144 18 138 9 -3 23 -10 30 -16z m1452 -132 l0 -135 -40 0 -40 0 0 118 0
118 33 17 c17 8 35 16 40 16 4 1 7 -60 7 -134z m-1550 -10 c0 -118 -1 -125
-20 -125 -19 0 -20 7 -20 100 0 76 4 107 16 125 9 14 18 25 20 25 2 0 4 -56 4
-125z m194 110 l36 -15 0 -110 0 -110 -45 0 -45 0 0 125 c0 69 4 125 9 125 5
0 25 -7 45 -15z m1556 -152 l0 -83 -30 0 -30 0 0 117 0 117 30 -34 c27 -33 29
-41 30 -117z m-320 27 l0 -110 -30 0 -30 0 0 98 c0 98 0 98 28 109 15 6 28 11
30 12 1 1 2 -48 2 -109z m-1132 94 c21 -6 22 -11 22 -105 l0 -99 -30 0 -30 0
0 105 c0 58 3 105 8 105 4 0 17 -3 30 -6z m100 -30 c21 -6 22 -12 22 -90 l0
-84 -30 0 -30 0 0 90 c0 50 3 90 8 90 4 0 17 -3 30 -6z m932 -84 c0 -89 0 -90
-25 -90 -25 0 -25 1 -25 84 0 84 4 93 38 95 9 1 12 -23 12 -89z m-1410 -10 l0
-80 -30 0 c-29 0 -30 1 -30 52 0 43 5 57 27 80 15 15 28 28 30 28 2 0 3 -36 3
-80z m578 -2 c3 -78 3 -78 -23 -78 -25 0 -25 1 -25 81 0 78 1 80 23 77 20 -3
22 -9 25 -80z m752 2 c0 -79 0 -80 -25 -80 -24 0 -25 2 -25 74 0 76 1 78 43
85 4 0 7 -35 7 -79z m-652 -12 l3 -68 -31 0 -30 0 0 71 0 70 28 -3 c26 -3 27
-5 30 -70z m562 2 l0 -70 -30 0 -30 0 0 64 c0 65 5 74 43 75 15 1 17 -9 17
-69z m-482 54 c20 -6 22 -13 22 -65 l0 -59 -35 0 -35 0 0 58 c0 73 3 78 48 66z
m382 -59 l0 -65 -30 0 c-30 0 -30 0 -30 59 0 63 -2 60 53 70 4 0 7 -28 7 -64z
m770 -16 c0 -46 -2 -49 -25 -49 -24 0 -25 2 -25 65 l0 65 25 -16 c21 -14 25
-24 25 -65z m-1040 11 c0 -57 -1 -60 -25 -60 -24 0 -25 3 -25 60 0 57 1 60 25
60 24 0 25 -3 25 -60z m88 -3 c3 -55 2 -57 -23 -57 -24 0 -25 3 -25 53 0 58 5
69 30 65 11 -2 16 -18 18 -61z m82 3 c0 -57 -1 -60 -25 -60 -24 0 -25 3 -25
53 0 58 4 67 32 67 15 0 18 -8 18 -60z m-1130 -20 c0 -38 -2 -40 -30 -40 -26
0 -30 4 -30 28 0 20 7 32 23 40 34 17 37 15 37 -28z m2071 10 c29 -16 25 -50
-6 -50 -21 0 -25 5 -25 30 0 33 3 35 31 20z m-2171 -35 c0 -9 -9 -15 -25 -15
-26 0 -34 15 -12 23 23 10 37 7 37 -8z m2220 -95 c0 -13 -216 -230 -257 -259
l-33 -22 0 30 c0 21 5 31 15 31 12 0 15 13 15 55 0 30 -4 55 -10 55 -5 0 -10
9 -10 20 0 74 -152 82 -167 8 -3 -15 -9 -28 -14 -28 -4 0 -9 -21 -11 -47 l-3
-48 -605 0 -605 0 -1 43 c0 24 -5 47 -11 50 -5 4 -13 19 -16 33 -7 29 -43 49
-88 49 -32 0 -79 -38 -79 -65 0 -8 -4 -15 -10 -15 -5 0 -10 -24 -10 -54 0 -45
3 -54 20 -59 16 -4 20 -14 20 -51 0 -25 -3 -46 -7 -46 -29 1 -252 201 -325
293 l-30 37 1111 0 c730 0 1111 -3 1111 -10z m-325 -91 c0 -10 -12 -14 -39
-14 -45 0 -60 21 -24 34 28 10 63 -1 63 -20z m-1430 1 c0 -18 -62 -27 -77 -12
-18 18 3 33 40 30 25 -2 37 -8 37 -18z m33 -77 c3 -10 -15 -13 -67 -13 -57 0
-71 3 -71 15 0 13 12 15 67 13 42 -2 68 -8 71 -15z m1432 2 c0 -12 -15 -15
-75 -15 -60 0 -75 3 -75 15 0 12 15 15 75 15 60 0 75 -3 75 -15z m-1470 -140
l0 -85 -35 17 c-35 17 -35 17 -35 85 l0 68 35 0 35 0 0 -85z m1430 41 c0 -38
-4 -48 -29 -65 -16 -12 -32 -21 -35 -21 -3 0 -6 29 -6 65 l0 65 35 0 c35 0 35
0 35 -44z m-102 -53 l-3 -58 -60 -32 c-33 -18 -100 -45 -150 -61 -140 -46
-135 -45 -135 -28 0 13 -12 16 -60 16 -53 0 -60 -2 -60 -20 0 -15 7 -20 28
-21 20 -1 16 -4 -18 -11 -56 -13 -370 -14 -430 -2 -36 8 -46 14 -48 32 -3 22
-7 23 -90 21 -72 -1 -97 3 -147 23 -124 52 -115 42 -115 125 l0 73 645 0 646
0 -3 -57z"/>
<path d="M2521 10074 c-20 -25 -51 -112 -51 -141 0 -17 1 -18 -72 17 -141 67
-188 17 -87 -94 36 -40 45 -56 37 -64 -7 -7 -17 -12 -24 -12 -19 0 -104 -81
-104 -100 0 -33 26 -43 98 -37 37 3 76 9 88 12 20 6 21 2 27 -64 7 -89 24
-126 57 -126 32 0 65 49 81 120 l12 54 51 -26 c96 -49 156 -49 156 1 0 24 -22
58 -72 112 l-29 31 43 26 c132 78 124 151 -15 133 -29 -4 -62 -10 -74 -12 -20
-5 -22 -1 -28 63 -14 128 -47 166 -94 107z m55 -106 c6 -70 5 -77 -14 -87 -26
-14 -62 4 -62 30 0 17 34 121 46 140 13 22 24 -8 30 -83z m-201 -50 c17 -7 50
-24 74 -37 l44 -23 -48 -21 -48 -21 -49 53 c-53 58 -63 86 -25 72 12 -5 36
-15 52 -23z m395 -63 c-53 -56 -325 -164 -452 -180 -86 -11 -75 14 32 73 120
67 313 130 399 131 l44 1 -23 -25z m-56 -184 c61 -73 46 -76 -76 -15 -38 19
-68 38 -68 43 0 5 17 16 37 24 44 17 53 13 107 -52z m-179 -5 c18 -13 18 -15
-6 -86 -27 -82 -43 -97 -53 -49 -8 42 -8 134 1 142 11 11 38 8 58 -7z"/>
<path d="M2502 9778 c4 -30 43 -33 43 -3 0 13 -8 21 -23 23 -20 3 -23 0 -20
-20z"/>
<path d="M2280 7780 c0 -18 7 -20 60 -20 53 0 60 2 60 20 0 18 -7 20 -60 20
-53 0 -60 -2 -60 -20z"/>
<path d="M2500 7780 c0 -18 7 -20 65 -20 58 0 65 2 65 20 0 18 -7 20 -65 20
-58 0 -65 -2 -65 -20z"/>
<path d="M2737 7780 c5 -17 14 -20 64 -20 52 0 59 2 59 20 0 18 -7 20 -64 20
-59 0 -64 -2 -59 -20z"/>
<path d="M2960 7780 c0 -18 7 -20 65 -20 58 0 65 2 65 20 0 18 -7 20 -65 20
-58 0 -65 -2 -65 -20z"/>
<path d="M3190 7780 c0 -18 7 -20 58 -20 63 0 74 4 65 26 -4 10 -23 14 -64 14
-52 0 -59 -2 -59 -20z"/>
<path d="M3420 7780 c0 -16 7 -20 30 -20 23 0 30 4 30 20 0 16 -7 20 -30 20
-23 0 -30 -4 -30 -20z"/>
<path d="M2390 7700 c0 -18 7 -20 65 -20 58 0 65 2 65 20 0 18 -7 20 -65 20
-58 0 -65 -2 -65 -20z"/>
<path d="M2600 7700 c0 -18 7 -20 65 -20 58 0 65 2 65 20 0 18 -7 20 -65 20
-58 0 -65 -2 -65 -20z"/>
<path d="M2810 7700 c0 -18 7 -20 65 -20 58 0 65 2 65 20 0 18 -7 20 -65 20
-58 0 -65 -2 -65 -20z"/>
<path d="M3020 7700 c0 -18 7 -20 60 -20 53 0 60 2 60 20 0 18 -7 20 -60 20
-53 0 -60 -2 -60 -20z"/>
<path d="M3227 7700 c-5 -18 0 -20 59 -20 57 0 64 2 64 20 0 18 -7 20 -59 20
-50 0 -59 -3 -64 -20z"/>
<path d="M2680 7610 c0 -18 7 -20 60 -20 53 0 60 2 60 20 0 18 -7 20 -60 20
-53 0 -60 -2 -60 -20z"/>
<path d="M2870 7610 c0 -18 7 -20 65 -20 58 0 65 2 65 20 0 18 -7 20 -65 20
-58 0 -65 -2 -65 -20z"/>
<path d="M1990 10373 c0 -4 7 -17 15 -27 8 -11 15 -22 15 -26 0 -7 -60 -43
-64 -38 -1 1 -10 13 -18 26 -9 13 -18 20 -21 15 -6 -11 64 -115 82 -121 9 -3
6 7 -9 28 l-23 33 24 18 c32 25 44 24 63 -6 9 -14 21 -25 26 -25 13 0 -64 123
-79 128 -6 2 -11 0 -11 -5z"/>
<path d="M3689 10365 c-14 -8 -32 -28 -39 -46 -12 -27 -11 -36 1 -58 21 -37
61 -49 94 -27 53 35 56 104 5 131 -34 18 -29 18 -61 0z m63 -22 c24 -21 23
-44 -3 -77 -34 -43 -89 -30 -89 21 0 25 40 73 61 73 7 0 21 -7 31 -17z"/>
<path d="M3787 10250 c-26 -33 -42 -62 -37 -65 5 -3 23 15 41 40 18 25 34 45
37 45 4 0 -5 -77 -15 -117 -4 -17 -1 -23 11 -23 17 0 102 107 93 117 -4 3 -15
-5 -26 -18 -10 -13 -28 -35 -40 -49 -19 -22 -21 -22 -17 -5 12 51 17 123 8
129 -5 3 -30 -21 -55 -54z"/>
<path d="M1826 10259 c-52 -41 -21 -100 39 -75 17 7 36 11 43 9 23 -8 12 -42
-19 -58 -34 -18 -33 -31 1 -20 28 9 53 49 45 74 -8 27 -31 33 -70 17 -59 -25
-69 21 -11 51 11 6 14 13 8 16 -5 4 -21 -3 -36 -14z"/>
<path d="M1737 10183 c-4 -3 -7 -29 -7 -56 l0 -50 -25 23 c-47 44 -34 15 17
-38 28 -29 53 -50 56 -47 3 3 -5 16 -18 30 l-23 25 49 0 c27 0 56 5 64 10 11
7 -4 10 -48 10 l-63 0 7 50 c6 49 5 57 -9 43z"/>
<path d="M3967 10102 c-50 -51 -66 -84 -19 -39 29 27 29 27 47 7 10 -11 23
-20 28 -20 6 0 0 11 -13 25 -22 24 -23 27 -7 42 15 16 18 15 40 -5 35 -33 45
-26 12 8 -16 17 -31 30 -35 30 -3 0 -27 -22 -53 -48z"/>
<path d="M1600 10035 c0 -10 14 -43 32 -75 31 -57 31 -57 12 -83 -10 -15 -23
-27 -28 -27 -4 0 -30 16 -56 35 -49 36 -60 41 -60 26 0 -4 27 -27 59 -50 l59
-41 33 41 c27 34 30 44 21 59 -17 27 22 74 54 66 12 -3 25 -2 28 2 3 5 -23 18
-57 29 -34 12 -70 24 -79 28 -13 5 -18 2 -18 -10z m85 -35 c2 -4 -4 -15 -15
-25 -18 -16 -19 -15 -34 14 -9 16 -16 32 -16 35 0 7 59 -14 65 -24z"/>
<path d="M4062 10034 c-50 -21 -67 -79 -32 -114 28 -28 75 -26 105 5 60 59 4
142 -73 109z m74 -25 c17 -19 17 -23 3 -47 -20 -37 -62 -56 -89 -42 -30 16
-26 63 6 89 34 26 56 27 80 0z"/>
<path d="M4148 9914 c-37 -28 -48 -42 -48 -63 0 -32 27 -61 57 -61 24 0 118
66 105 74 -5 3 -20 -3 -33 -13 -13 -10 -38 -25 -55 -34 -29 -15 -33 -15 -48 2
-25 27 -20 38 34 78 46 34 61 53 43 53 -5 0 -29 -17 -55 -36z"/>
<path d="M4230 9784 c-30 -18 -59 -35 -65 -37 -5 -2 -7 -7 -4 -11 4 -4 33 7
64 25 l58 32 -41 -64 c-23 -35 -37 -68 -33 -72 5 -5 35 6 67 24 71 39 69 38
61 45 -3 4 -27 -6 -52 -21 -26 -15 -48 -25 -50 -23 -2 2 13 29 32 61 22 34 33
61 27 66 -5 5 -33 -6 -64 -25z"/>
<path d="M1420 9792 c0 -5 18 -17 40 -27 48 -22 74 -49 66 -70 -10 -28 -37
-28 -92 -2 -30 15 -54 22 -54 17 0 -11 92 -60 113 -60 24 0 49 36 45 67 -2 22
-14 34 -53 55 -54 29 -65 33 -65 20z"/>
<path d="M4300 9648 c-35 -16 -66 -31 -68 -33 -6 -6 25 -59 46 -78 15 -14 29
-17 50 -12 59 12 81 70 50 128 l-13 24 -65 -29z m75 -32 c8 -25 6 -31 -18 -52
-16 -13 -37 -24 -47 -24 -20 0 -70 61 -54 67 5 2 27 12 49 22 49 24 57 22 70
-13z"/>
<path d="M1336 9618 c-28 -39 -20 -54 45 -82 64 -27 79 -31 79 -18 0 4 -14 13
-31 19 -27 10 -29 14 -19 32 7 14 21 21 40 21 16 0 32 5 36 11 5 8 -6 10 -34
7 -33 -3 -42 0 -45 14 -7 26 -52 23 -71 -4z m59 -8 c9 -14 -4 -50 -18 -50 -25
0 -39 18 -32 39 7 22 39 29 50 11z"/>
<path d="M1287 9497 c-12 -36 -13 -49 -4 -52 7 -2 37 -13 67 -25 30 -11 58
-20 61 -20 8 0 32 81 25 87 -5 6 -26 -40 -26 -58 0 -12 -4 -11 -35 3 -18 8
-24 16 -19 27 15 37 17 54 6 47 -7 -4 -12 -13 -12 -19 0 -25 -18 -39 -38 -33
-18 6 -19 11 -10 36 5 16 8 35 6 42 -3 7 -12 -9 -21 -35z"/>
<path d="M4280 9498 c0 -5 10 -8 23 -8 32 0 53 -60 29 -84 -9 -8 -13 -18 -10
-21 8 -8 118 85 118 100 0 10 -23 14 -80 17 -44 2 -80 0 -80 -4z m128 -18 c7
0 1 -11 -15 -24 -29 -25 -43 -20 -43 18 0 14 5 17 23 12 12 -3 28 -6 35 -6z"/>
<path d="M4454 9403 c7 -30 6 -30 -54 -43 -33 -7 -63 -17 -66 -21 -8 -13 27
-11 82 6 27 8 50 15 50 15 1 0 5 -12 8 -26 4 -15 10 -24 13 -21 8 8 -17 106
-29 113 -6 4 -8 -4 -4 -23z"/>
<path d="M1254 9391 c4 -6 15 -11 24 -12 9 0 35 -6 57 -13 l40 -12 -72 -18
c-43 -11 -73 -23 -73 -31 0 -7 28 -19 65 -29 75 -19 85 -19 85 -6 0 6 -8 10
-17 10 -10 0 -38 6 -62 13 l-44 14 71 18 c105 27 93 47 -42 71 -28 5 -37 4
-32 -5z"/>
<path d="M4475 9275 c-5 -2 -36 -9 -69 -15 -32 -7 -54 -16 -50 -20 8 -8 34 -5
122 15 12 3 22 10 22 15 0 10 -7 11 -25 5z"/>
<path d="M1232 9235 c-12 -15 -22 -36 -22 -45 0 -55 97 -92 134 -51 23 26 25
76 4 97 -8 9 -33 18 -55 21 -35 5 -43 2 -61 -22z m96 -11 c24 -17 29 -53 10
-72 -15 -15 -63 -16 -89 -2 -22 12 -26 59 -7 78 17 17 59 15 86 -4z"/>
<path d="M4410 9197 c-35 -18 -48 -61 -29 -95 11 -21 24 -28 53 -30 55 -5 86
19 86 66 0 31 -5 41 -29 55 -34 20 -48 21 -81 4z m82 -24 c38 -34 8 -83 -52
-83 -29 0 -39 5 -48 25 -15 32 -7 52 26 64 39 14 53 13 74 -6z"/>
<path d="M1200 9083 c0 -7 14 -28 31 -48 l31 -35 -31 0 c-17 0 -31 -4 -31 -10
0 -6 32 -10 78 -10 53 0 72 3 62 10 -8 5 -26 10 -40 10 -24 1 -24 1 13 35 20
20 37 41 37 47 0 7 -18 -5 -40 -27 l-40 -39 -34 40 c-20 21 -35 34 -36 27z"/>
<path d="M4380 9040 c0 -6 28 -10 63 -10 l62 0 -63 -36 c-35 -20 -62 -40 -60
-46 2 -5 7 -9 11 -9 4 1 36 1 72 1 40 0 65 4 65 11 0 7 -20 8 -60 4 -33 -4
-60 -4 -60 -1 0 2 27 19 60 38 82 45 79 58 -15 58 -43 0 -75 -4 -75 -10z"/>
<path d="M4450 8488 c0 -6 9 -22 21 -34 l20 -22 -35 -6 c-20 -4 -36 -11 -36
-16 0 -4 16 -4 37 2 20 5 49 7 65 4 18 -3 27 -2 23 4 -3 6 -12 10 -20 10 -7 0
-27 16 -44 35 -17 20 -31 30 -31 23z"/>
<path d="M1228 8471 c-56 -19 -76 -36 -30 -26 38 8 41 -4 11 -46 -11 -16 -16
-29 -10 -29 6 0 17 14 26 30 18 35 17 35 55 15 17 -9 30 -12 30 -7 0 5 -17 17
-37 27 l-38 18 29 12 c45 19 16 24 -36 6z"/>
<path d="M4392 8338 c-20 -46 -20 -63 1 -34 12 17 15 17 55 1 24 -10 45 -15
48 -12 3 3 -16 13 -41 23 -41 15 -46 20 -40 41 9 36 -2 27 -23 -19z"/>
<path d="M1255 8335 c-27 -14 -39 -22 -25 -19 14 4 37 13 53 21 35 18 34 10
-8 -47 -20 -27 -32 -51 -28 -53 11 -6 113 34 113 44 0 5 -17 2 -37 -7 -21 -9
-44 -18 -52 -21 -7 -3 3 17 23 44 20 28 36 53 36 57 0 12 -25 6 -75 -19z"/>
<path d="M4360 8252 c0 -12 98 -57 106 -49 4 4 -5 11 -20 16 -14 6 -40 18 -56
26 -17 9 -30 12 -30 7z"/>
<path d="M1340 8222 c-49 -15 -66 -74 -32 -105 23 -21 51 -22 80 -1 49 34 9
125 -48 106z m50 -26 c32 -39 -23 -100 -65 -72 -27 18 -30 43 -9 67 20 23 57
25 74 5z"/>
<path d="M4310 8153 c0 -5 22 -21 50 -36 l49 -28 16 32 c9 17 14 33 12 36 -3
3 -12 -7 -19 -21 l-13 -26 -48 25 c-26 14 -47 22 -47 18z"/>
<path d="M1396 8064 c-21 -25 -35 -48 -32 -51 5 -5 43 4 96 24 8 3 -2 -13 -24
-35 -51 -54 -41 -66 35 -40 33 11 58 22 55 25 -3 3 -26 -2 -52 -11 -26 -9 -50
-16 -52 -16 -2 0 13 19 34 42 43 48 35 57 -32 34 l-46 -15 37 44 c20 25 32 45
28 45 -5 0 -26 -21 -47 -46z"/>
<path d="M4260 8070 c0 -16 61 -100 73 -100 5 0 4 7 -3 15 -20 25 3 65 37 66
26 0 26 1 7 9 -41 16 -114 23 -114 10z m69 -16 c3 -2 -2 -11 -11 -20 -13 -14
-17 -12 -33 12 l-17 27 28 -7 c16 -4 31 -10 33 -12z"/>
<path d="M4186 7971 c-21 -23 -18 -54 6 -59 9 -2 31 7 48 19 20 16 33 20 40
13 15 -15 2 -42 -29 -59 -16 -9 -20 -14 -10 -15 22 0 61 45 57 66 -5 27 -36
29 -70 4 -19 -14 -34 -18 -39 -13 -14 14 0 43 25 53 15 6 16 9 5 9 -9 1 -24
-8 -33 -18z"/>
<path d="M1501 7921 l-44 -38 23 -31 c27 -36 41 -36 16 0 -22 31 -21 32 24 63
22 15 40 32 40 36 0 16 -15 9 -59 -30z"/>
<path d="M4095 7858 l-27 -32 43 -38 c49 -42 75 -51 40 -15 -19 21 -20 25 -6
37 8 7 29 10 45 8 17 -3 33 -1 36 4 3 4 -9 8 -25 8 -23 0 -31 5 -31 18 0 21
-18 42 -36 42 -7 0 -24 -14 -39 -32z m60 2 c3 -6 -2 -21 -13 -35 -19 -23 -20
-24 -36 -7 -14 17 -14 19 1 35 19 19 39 22 48 7z"/>
<path d="M1570 7830 l-45 -39 34 -35 c19 -20 37 -33 40 -31 2 3 -9 19 -25 36
-24 25 -26 31 -14 39 21 13 25 13 45 -10 10 -11 23 -20 28 -20 6 0 -2 13 -17
28 -24 26 -25 30 -11 42 13 11 20 9 47 -16 17 -16 27 -22 23 -14 -11 20 -47
60 -54 60 -3 0 -26 -18 -51 -40z"/>
<path d="M4006 7770 l-30 -30 40 -43 c21 -23 40 -44 42 -46 1 -3 18 11 37 29
19 18 32 36 30 39 -3 2 -18 -8 -34 -23 -25 -24 -29 -25 -41 -11 -11 13 -9 19
9 38 31 34 26 45 -7 13 -26 -24 -30 -25 -42 -11 -11 13 -9 20 15 45 16 17 25
30 19 30 -5 0 -22 -14 -38 -30z"/>
<path d="M1665 7733 l-39 -46 30 -23 c36 -29 44 -30 78 -3 34 26 33 58 -2 92
l-28 27 -39 -47z m69 -2 c13 -25 13 -31 0 -50 -17 -24 -56 -28 -74 -6 -10 12
-7 21 16 49 16 19 32 35 36 35 4 1 14 -12 22 -28z"/>
<path d="M3951 7709 c-1 -9 6 -36 14 -59 8 -23 15 -45 15 -47 0 -3 -21 7 -46
21 -66 37 -80 32 -17 -5 76 -44 85 -38 57 41 -12 36 -23 58 -23 49z"/>
<path d="M1782 7653 c-31 -28 -35 -56 -11 -86 22 -28 57 -35 77 -15 9 9 8 16
-5 30 -9 10 -21 18 -26 18 -6 0 -2 -9 8 -20 16 -17 16 -20 2 -26 -23 -8 -57
14 -57 37 0 68 68 90 92 30 7 -18 12 -22 16 -12 5 16 -41 61 -62 61 -8 0 -23
-8 -34 -17z"/>
<path d="M3840 7621 c0 -7 16 -33 35 -58 19 -25 35 -40 35 -34 0 7 -16 33 -35
58 -19 25 -35 40 -35 34z"/>
<path d="M1893 7541 l-32 -50 36 -21 c43 -25 56 -20 14 6 -26 17 -28 21 -16
38 13 17 15 17 37 2 12 -9 27 -16 33 -16 5 0 -4 10 -22 21 -28 18 -31 23 -21
39 12 19 13 18 45 -1 18 -11 33 -18 33 -15 0 6 -61 46 -70 46 -3 0 -19 -22
-37 -49z"/>
<path d="M3790 7587 c0 -5 8 -21 18 -35 36 -52 35 -54 -4 -34 -56 28 -84 35
-84 22 0 -16 61 -103 67 -96 3 3 -4 17 -14 33 -36 52 -36 54 -9 43 15 -5 40
-17 57 -26 37 -19 47 -12 30 19 -17 32 -60 84 -61 74z"/>
<path d="M3670 7515 c0 -3 9 -24 20 -46 17 -32 18 -43 9 -62 -11 -20 -11 -21
4 -8 23 18 21 47 -4 87 -19 32 -29 41 -29 29z"/>
<path d="M3606 7448 c22 -44 44 -68 62 -68 10 0 6 7 -10 20 -14 10 -31 33 -38
50 -7 16 -16 30 -21 30 -5 0 -2 -15 7 -32z"/>
<path d="M2071 7433 c-1 -7 -7 -10 -14 -7 -8 3 -13 -3 -13 -15 0 -11 3 -18 7
-15 4 2 10 -2 12 -8 4 -10 6 -10 6 0 1 6 9 12 19 12 10 0 13 3 6 8 -6 4 -14
14 -17 22 -3 9 -6 10 -6 3z"/>
<path d="M2192 7386 c-12 -32 -22 -59 -22 -61 0 -6 63 -25 68 -20 3 3 1 5 -4
5 -6 0 -18 6 -28 13 -17 12 -17 15 -1 55 9 23 15 47 13 53 -2 7 -14 -14 -26
-45z"/>
<path d="M2296 7346 c-9 -29 -16 -55 -16 -58 0 -4 20 -13 45 -21 25 -9 45 -12
45 -7 0 5 -14 11 -31 15 -32 7 -48 30 -32 46 5 5 21 5 41 0 18 -6 30 -6 27 -1
-3 5 -18 11 -34 15 -22 5 -28 10 -24 26 6 22 11 23 49 9 15 -6 29 -9 31 -6 2
2 -16 11 -40 19 l-44 15 -17 -52z"/>
<path d="M3317 7368 c-17 -6 -26 -15 -23 -23 2 -7 10 -31 17 -54 13 -44 29
-57 22 -17 -4 19 0 25 17 28 31 4 48 33 34 56 -14 21 -31 24 -67 10z m53 -42
c-23 -29 -60 -14 -60 24 0 14 44 17 59 4 12 -11 12 -16 1 -28z"/>
<path d="M3523 7363 c-7 -2 -13 -14 -12 -26 0 -12 3 -16 6 -9 2 6 8 10 12 8 4
-3 7 4 7 15 0 10 0 19 -1 18 0 0 -6 -3 -12 -6z"/>
<path d="M2436 7300 c-40 -56 -46 -72 -16 -45 25 23 70 13 70 -15 0 -11 5 -20
11 -20 6 0 8 11 5 28 -3 15 -8 44 -12 65 -3 20 -10 37 -14 37 -5 0 -24 -23
-44 -50z m48 8 c6 -25 4 -28 -19 -28 l-26 0 17 30 c10 16 19 28 20 27 0 -1 4
-14 8 -29z"/>
<path d="M3240 7341 c0 -27 25 -111 32 -111 5 0 7 8 4 18 -3 9 -10 36 -16 60
-10 39 -20 55 -20 33z"/>
<path d="M2555 7275 c-3 -31 -5 -58 -3 -60 2 -2 15 -6 30 -10 21 -5 33 -1 52
19 45 44 28 92 -35 102 l-36 6 -8 -57z m83 11 c2 -10 1 -28 -2 -42 -5 -19 -13
-24 -41 -24 -33 0 -34 0 -29 38 3 20 7 42 9 49 6 18 59 0 63 -21z"/>
<path d="M3186 7305 c5 -21 3 -25 -14 -25 -11 0 -27 -3 -36 -6 -11 -4 -16 0
-16 14 0 12 -5 24 -11 27 -7 5 -8 -8 -4 -41 9 -57 28 -99 22 -47 -3 29 0 33
26 39 30 6 47 -6 47 -35 0 -8 3 -12 6 -8 9 9 -7 107 -17 107 -5 0 -7 -11 -3
-25z"/>
<path d="M2697 7253 c-2 -32 -4 -59 -3 -59 7 -7 96 -9 96 -3 0 5 -18 9 -40 9
-36 0 -40 2 -40 25 0 24 2 25 36 19 27 -5 35 -4 30 5 -4 6 -20 11 -37 11 -23
0 -29 4 -29 21 0 19 5 21 40 17 22 -2 40 0 40 4 0 5 -20 8 -44 8 l-44 0 -5
-57z"/>
<path d="M2848 7303 c-15 -4 -18 -16 -18 -64 0 -38 4 -58 10 -54 6 3 10 14 10
25 0 32 28 31 55 -3 27 -35 34 -30 10 7 -14 21 -14 24 0 29 21 9 19 44 -4 57
-20 10 -33 11 -63 3z m62 -33 c0 -16 -7 -20 -30 -20 -16 0 -30 2 -30 4 0 2 -3
11 -6 20 -5 13 1 16 30 16 29 0 36 -4 36 -20z"/>
<path d="M2983 7303 c-25 -9 -14 -42 15 -48 64 -14 80 -48 25 -53 -19 -2 -33
1 -33 7 0 6 -5 11 -11 11 -8 0 -8 -5 1 -15 16 -20 64 -19 81 1 18 22 0 48 -37
54 -18 3 -30 12 -32 24 -4 17 0 18 32 13 22 -3 34 -2 31 4 -6 9 -51 11 -72 2z"/>
<path d="M11450 11153 c-195 -135 -501 -347 -680 -470 -179 -123 -344 -237
-367 -253 l-43 -30 0 -1407 c0 -775 4 -1413 8 -1419 7 -11 165 -118 1064 -721
l557 -373 1178 0 1178 1 121 162 c67 89 161 214 210 277 48 63 164 216 258
340 94 124 231 304 304 400 l134 175 -1775 3 -1774 2 -6 221 c-4 121 -4 922 0
1780 4 942 3 1559 -3 1558 -5 0 -169 -111 -364 -246z"/>
<path d="M887 6089 c-75 -56 -134 -128 -169 -204 -20 -43 -23 -66 -23 -166 0
-113 1 -116 37 -191 28 -55 55 -91 101 -134 83 -77 120 -99 136 -80 10 12 4
20 -31 44 -137 94 -204 227 -196 386 7 129 63 228 180 319 49 38 55 47 45 61
-11 14 -20 10 -80 -35z"/>
<path d="M11475 6121 c-96 -25 -147 -84 -153 -176 -8 -119 48 -173 220 -216
135 -34 177 -72 146 -135 -20 -43 -53 -55 -134 -52 -62 3 -79 8 -133 42 l-62
38 -34 -39 c-19 -21 -34 -40 -35 -43 0 -10 96 -67 145 -86 71 -27 204 -26 266
3 70 32 103 81 107 163 5 78 -10 116 -60 153 -30 23 -146 65 -225 82 -54 11
-83 41 -83 85 0 30 6 43 28 60 39 31 138 24 211 -15 28 -16 53 -26 54 -24 59
75 62 81 42 96 -11 9 -44 26 -73 40 -56 26 -172 39 -227 24z"/>
<path d="M14734 6118 c-5 -7 4 -20 22 -32 57 -40 140 -133 169 -192 28 -55 30
-66 30 -174 0 -107 -2 -119 -29 -174 -29 -59 -98 -137 -166 -189 -26 -20 -32
-29 -23 -38 22 -22 134 63 197 150 52 72 77 151 77 246 0 98 -5 123 -42 195
-34 70 -104 148 -167 189 -55 35 -58 36 -68 19z"/>
<path d="M5680 5937 c-1 -218 11 -312 47 -378 93 -172 404 -172 496 -1 39 73
47 136 47 357 l0 205 -59 0 -59 0 -4 -232 c-3 -226 -4 -234 -27 -272 -64 -103
-237 -99 -294 8 -20 38 -22 58 -25 269 l-4 227 -58 0 -58 0 -2 -183z"/>
<path d="M6720 5780 l0 -340 60 0 60 0 2 239 3 239 185 -239 185 -239 47 0 48
0 0 340 0 340 -55 0 -55 0 0 -230 c0 -126 -3 -230 -7 -230 -5 1 -26 25 -48 54
-22 30 -101 133 -175 230 l-135 176 -57 0 -58 0 0 -340z"/>
<path d="M7790 5780 l0 -340 60 0 60 0 0 340 0 340 -60 0 -60 0 0 -340z"/>
<path d="M8382 5973 c33 -82 97 -236 142 -343 l81 -195 52 -1 51 -1 137 331
c75 182 139 337 142 344 4 9 -12 12 -60 12 l-65 0 -52 -132 c-28 -73 -72 -187
-97 -253 -26 -66 -49 -123 -52 -127 -3 -3 -51 110 -106 253 l-100 259 -67 0
-67 0 61 -147z"/>
<path d="M9400 5780 l0 -340 255 0 255 0 0 55 0 55 -195 0 -195 0 0 90 0 90
170 0 170 0 0 55 0 55 -170 0 -170 0 0 85 0 85 190 0 190 0 0 55 0 55 -250 0
-250 0 0 -340z"/>
<path d="M10340 5781 l0 -341 60 0 60 0 0 120 0 120 74 0 74 0 84 -120 83
-119 68 -1 c37 0 67 3 67 6 0 3 -33 52 -74 108 -107 149 -104 139 -48 168 145
75 144 292 -3 367 -47 25 -58 26 -247 29 l-198 4 0 -341z m380 214 c37 -19 51
-45 52 -94 0 -45 -22 -83 -60 -101 -15 -8 -75 -15 -139 -18 l-113 -4 0 116 0
116 115 0 c84 0 124 -4 145 -15z"/>
<path d="M12250 5780 l0 -340 60 0 60 0 0 340 0 340 -60 0 -60 0 0 -340z"/>
<path d="M12800 6065 l0 -55 105 0 105 0 0 -285 0 -285 60 0 60 0 0 285 0 285
110 0 110 0 0 55 0 55 -275 0 -275 0 0 -55z"/>
<path d="M13712 6098 c8 -13 70 -107 136 -209 l122 -186 0 -131 0 -132 60 0
60 0 0 138 0 137 135 203 135 202 -70 0 -70 0 -48 -75 c-26 -41 -69 -109 -95
-150 l-48 -76 -96 150 -95 151 -70 0 -70 0 14 -22z"/>
<path d="M3950 5960 c-97 -12 -161 -85 -161 -184 0 -110 76 -186 186 -186 109
0 188 78 188 185 0 119 -93 200 -213 185z m84 -72 c33 -15 54 -47 62 -96 7
-43 -4 -71 -44 -114 -36 -39 -107 -40 -151 -2 -114 96 -3 274 133 212z"/>
<path d="M990 5775 l0 -185 65 0 c89 0 160 17 197 48 32 27 67 93 68 127 0 77
-63 164 -135 184 -22 6 -75 11 -117 11 l-78 0 0 -185z m223 87 c28 -29 32 -39
32 -87 0 -48 -4 -58 -31 -86 -27 -27 -41 -32 -98 -36 l-66 -6 0 128 0 127 65
-4 c58 -3 69 -8 98 -36z"/>
<path d="M1398 5848 c-2 -62 -3 -144 -3 -183 l0 -70 138 -3 137 -3 0 31 0 30
-105 0 -105 0 0 50 0 50 90 0 90 0 0 30 0 30 -90 0 -90 0 0 45 0 45 106 0 105
0 -3 28 -3 27 -132 3 -133 3 -2 -113z"/>
<path d="M1745 5947 c-3 -7 -4 -89 -3 -182 l3 -170 138 -3 137 -3 0 31 0 30
-105 0 -105 0 0 50 0 50 90 0 90 0 0 30 0 30 -90 0 -90 0 0 45 0 45 106 0 105
0 -3 28 -3 27 -133 3 c-102 2 -134 0 -137 -11z"/>
<path d="M2094 5947 c-2 -7 -3 -89 -2 -182 l3 -170 33 -3 32 -3 0 133 0 133
53 -83 c28 -45 55 -82 59 -82 4 0 32 37 63 82 l55 83 0 -133 0 -132 30 0 30 0
0 185 0 185 -32 0 c-30 0 -37 -7 -75 -68 -74 -119 -62 -117 -126 -18 -51 77
-60 86 -87 86 -17 0 -33 -6 -36 -13z"/>
<path d="M2550 5775 l0 -185 135 0 135 0 0 30 0 30 -105 0 -105 0 0 50 0 50
96 0 c84 0 95 2 90 16 -3 9 -6 22 -6 30 0 11 -19 14 -90 14 l-90 0 0 45 0 45
105 0 105 0 0 30 0 30 -135 0 -135 0 0 -185z"/>
<path d="M2900 5775 l0 -185 65 0 c142 0 217 38 251 125 33 88 -3 176 -90 220
-42 21 -64 25 -138 25 l-88 0 0 -185z m221 88 c36 -35 48 -102 27 -143 -23
-43 -75 -70 -134 -70 l-54 0 0 126 0 126 65 -4 c57 -3 70 -8 96 -35z"/>
<path d="M3440 5930 c0 -30 1 -30 55 -30 l55 0 0 -155 0 -155 35 0 35 0 0 155
0 155 55 0 c54 0 55 0 55 30 l0 30 -145 0 -145 0 0 -30z"/>
<path d="M4400 5775 l0 -185 93 0 c50 0 108 5 128 10 82 23 110 110 50 160
l-31 26 21 21 c26 26 28 86 4 114 -26 27 -78 39 -177 39 l-88 0 0 -185z m204
112 c25 -18 17 -58 -14 -74 -14 -7 -47 -12 -75 -11 l-50 3 -3 48 -3 47 64 0
c36 0 71 -6 81 -13z m17 -147 c23 -13 25 -53 3 -74 -11 -12 -36 -16 -90 -16
l-74 0 0 50 0 50 71 0 c39 0 79 -5 90 -10z"/>
<path d="M4780 5775 l0 -185 135 0 135 0 0 30 0 30 -105 0 -105 0 0 50 0 50
89 0 c86 0 89 1 93 25 3 13 3 27 0 30 -3 3 -45 5 -94 5 l-88 0 0 45 0 45 105
0 105 0 0 30 0 30 -135 0 -135 0 0 -185z"/>
</g>
</svg>
