<?xml version="1.0" standalone="no"?>
<!DOCTYPE svg PUBLIC "-//W3C//DTD SVG 20010904//EN"
 "http://www.w3.org/TR/2001/REC-SVG-20010904/DTD/svg10.dtd">
<svg version="1.0" xmlns="http://www.w3.org/2000/svg"
 width="1915.000000pt" height="570.000000pt" viewBox="0 0 1915.000000 570.000000"
 preserveAspectRatio="xMidYMid meet">

<g transform="translate(0.000000,570.000000) scale(0.100000,-0.100000)"
fill="#000000" stroke="none">
<path d="M1945 5649 c-504 -68 -908 -262 -1243 -597 -261 -259 -439 -558 -536
-902 -97 -338 -111 -639 -45 -980 125 -649 572 -1217 1179 -1497 71 -33 127
-94 188 -203 26 -47 62 -146 62 -172 0 -4 -105 -8 -233 -8 -265 0 -317 -9
-361 -61 -14 -17 -26 -37 -26 -44 0 -11 -21 -15 -87 -17 l-88 -3 -3 -452 -2
-453 90 0 c49 0 90 -4 90 -9 0 -21 56 -74 104 -99 l51 -27 1130 0 1130 0 55
31 c31 17 66 47 79 67 l24 37 104 0 103 0 -2 453 -3 452 -103 5 -102 5 -18 35
c-12 24 -33 43 -67 60 -48 24 -59 25 -273 28 l-223 4 7 36 c18 95 74 204 160
308 41 50 75 79 130 111 479 273 836 732 988 1273 47 169 61 288 61 535 0 281
-17 398 -93 650 -21 69 -96 246 -137 323 -371 697 -1084 1126 -1865 1121 -91
-1 -192 -5 -225 -10z m219 -181 c13 -49 -1 -67 -19 -25 -6 14 -21 23 -39 25
l-29 4 6 -113 c5 -88 9 -116 22 -125 13 -10 6 -13 -44 -16 -47 -2 -57 0 -49
10 10 11 4 229 -6 239 -9 10 -58 -20 -65 -39 -8 -20 -10 -21 -16 -6 -16 40 -3
53 65 59 146 13 167 11 174 -13z m135 15 c42 -5 50 -8 34 -14 -18 -6 -22 -19
-28 -82 -4 -41 -6 -96 -4 -121 l4 -46 -54 0 c-46 0 -52 2 -38 13 13 9 18 37
23 121 7 99 5 110 -11 122 -18 14 -18 14 1 14 10 0 43 -3 73 -7z m224 -29 c55
-10 101 -22 103 -28 2 -6 0 -24 -5 -41 -6 -19 -10 -23 -10 -11 -1 25 -29 56
-51 56 -15 0 -22 -21 -39 -112 -21 -108 -21 -113 -4 -126 17 -13 17 -14 -2 -9
-11 3 -41 9 -67 13 -45 6 -47 7 -28 23 13 11 24 47 38 118 10 57 16 105 14
108 -12 12 -48 3 -70 -17 l-24 -23 8 30 c9 40 12 45 27 40 7 -2 56 -11 110
-21z m-664 -51 c1 -20 -1 -20 -28 8 -34 34 -61 37 -86 9 -17 -19 -17 -21 -1
-39 10 -10 33 -22 53 -26 55 -10 81 -25 96 -57 32 -65 -4 -109 -96 -119 -34
-3 -63 -5 -64 -5 -1 1 -5 22 -9 46 l-7 45 26 -31 c45 -53 121 -51 115 3 -3 25
-11 31 -67 50 -79 27 -93 40 -93 89 0 52 28 74 93 74 32 0 49 4 50 13 1 17 17
-33 18 -60z m897 -8 c32 -13 50 -24 38 -25 -17 0 -26 -16 -52 -92 -18 -51 -32
-98 -32 -105 0 -21 31 -43 59 -43 38 0 56 23 88 114 22 64 25 80 15 97 -12 19
-12 19 25 4 45 -19 52 -25 29 -25 -17 0 -55 -72 -70 -133 -17 -71 -95 -99
-163 -57 -49 30 -52 60 -14 168 26 74 30 96 21 108 -16 19 -13 18 56 -11z
m-1147 -2 c-8 -14 -1 -42 31 -127 22 -60 39 -111 36 -113 -3 -3 -54 23 -113
57 -59 35 -112 65 -117 68 -11 6 -6 -10 26 -98 19 -50 29 -66 48 -70 24 -6 23
-7 -14 -23 -48 -21 -49 -21 -35 1 12 19 8 33 -53 195 -6 16 -18 27 -29 27 -33
0 -20 15 24 28 43 13 44 13 125 -37 45 -28 84 -51 86 -51 14 0 -44 125 -60
131 -20 7 -20 7 26 22 27 9 30 7 19 -10z m-291 -112 c-10 -17 -5 -34 40 -118
40 -76 56 -98 72 -97 11 0 20 -1 20 -3 0 -2 -92 -52 -115 -62 -5 -2 -4 3 3 12
12 14 7 30 -36 114 -36 71 -56 99 -73 103 -19 5 -14 10 37 37 32 18 60 33 62
33 1 0 -3 -9 -10 -19z m1765 -26 c124 -67 123 -66 104 -101 l-16 -29 -1 26 c0
14 -9 34 -20 44 -27 24 -34 17 -95 -98 -41 -76 -45 -90 -34 -104 8 -9 -12 -3
-46 16 -62 34 -83 49 -53 38 9 -3 22 2 30 11 16 18 108 178 108 186 0 3 -9 10
-21 16 -16 9 -26 8 -44 -4 -34 -23 -38 -20 -20 14 9 17 18 30 21 30 3 0 43
-20 87 -45z m-2003 -110 c-14 -17 -14 -15 63 -123 46 -64 64 -83 78 -79 28 8
24 2 -30 -37 -51 -37 -72 -46 -52 -22 10 12 2 29 -40 88 -73 102 -88 118 -108
111 -23 -9 -12 2 45 42 54 38 63 42 44 20z m2302 -90 c43 -34 45 -41 19 -72
-24 -29 -35 -30 -20 -2 13 26 -2 61 -37 84 -21 14 -24 13 -53 -24 -17 -21 -31
-41 -31 -44 0 -14 36 -15 56 -2 35 23 29 6 -16 -45 -35 -38 -40 -41 -35 -20 3
14 1 32 -5 40 -9 13 -15 9 -40 -20 -17 -19 -30 -42 -30 -52 0 -26 56 -51 98
-44 l35 5 -23 -24 c-13 -14 -27 -25 -30 -25 -7 0 -152 110 -175 133 -7 6 -3 7
11 3 17 -5 29 3 56 36 82 101 107 139 101 154 -6 15 26 -6 119 -81z m-2449
-24 c-6 -24 143 -185 164 -177 20 8 17 4 -31 -43 -38 -37 -43 -40 -39 -19 3
17 -5 32 -32 58 l-35 34 -32 -32 -32 -32 34 -35 c19 -19 43 -35 54 -35 17 0
14 -7 -22 -40 -46 -43 -54 -48 -46 -26 8 21 -145 179 -168 173 -10 -3 -18 -4
-18 -3 0 1 23 24 52 51 29 28 46 42 39 33 -15 -20 -6 -41 33 -77 l25 -24 34
30 35 30 -34 37 c-27 29 -39 36 -57 31 -15 -4 -7 7 28 39 28 25 51 45 52 46 0
0 -1 -9 -4 -19z m1492 -26 c399 -70 763 -311 979 -648 171 -268 255 -602 227
-904 -43 -453 -272 -836 -654 -1092 -378 -254 -879 -309 -1312 -146 -260 97
-497 276 -656 495 -159 217 -236 403 -275 660 -59 393 62 814 328 1135 325
394 855 588 1363 500z m1189 -184 c13 -6 37 -27 53 -47 74 -98 -2 -233 -125
-221 -52 6 -105 51 -123 105 -22 66 23 144 96 170 31 11 55 9 99 -7z m-2833
-94 c19 -12 42 -40 53 -61 16 -33 17 -43 6 -79 -10 -35 -84 -147 -97 -147 -2
0 -2 4 1 8 8 13 -6 26 -94 91 -51 37 -92 60 -102 58 -30 -8 67 120 107 142 34
18 90 13 126 -12z m3067 -228 l42 -77 -35 -21 c-19 -11 -35 -16 -35 -11 0 6 4
10 10 10 18 0 22 47 6 84 l-15 36 -46 -22 c-25 -12 -45 -27 -45 -34 0 -21 29
-36 55 -30 39 10 30 -1 -27 -31 -72 -38 -76 -39 -55 -16 18 21 23 58 8 67 -4
3 -29 -8 -54 -24 -36 -22 -45 -34 -40 -47 10 -28 -2 -13 -36 45 -36 62 -37 66
-12 50 16 -10 34 -3 115 42 73 40 96 58 96 74 0 20 0 20 13 1 8 -11 32 -54 55
-96z m-3220 -60 c50 -24 92 -47 92 -51 0 -4 -35 -14 -77 -23 -43 -9 -91 -21
-107 -26 -16 -5 -40 -9 -52 -9 -41 0 -26 -15 55 -55 67 -32 82 -36 95 -25 21
16 20 9 -4 -42 -11 -24 -27 -70 -37 -103 -12 -41 -18 -53 -21 -37 -4 23 -12
26 -48 16 -25 -7 -49 -81 -32 -101 13 -16 40 -17 55 -2 8 8 8 -1 0 -30 -11
-39 -27 -56 -27 -28 0 8 -45 53 -100 101 -55 47 -100 91 -100 96 0 6 17 10 38
10 79 2 234 27 243 41 21 34 9 49 -81 94 -89 45 -130 55 -130 33 0 -6 -2 -9
-5 -6 -3 3 1 24 10 46 16 38 20 42 73 53 32 6 77 17 102 23 l45 13 -58 29
c-49 24 -61 27 -77 16 -24 -15 -25 -10 -5 28 l15 29 23 -23 c13 -13 64 -43
115 -67z m3369 -282 c19 -60 33 -110 31 -112 -2 -2 -17 -7 -33 -11 -29 -7 -30
-7 -12 13 19 22 23 58 7 68 -6 3 -56 -9 -111 -27 -73 -24 -104 -39 -109 -53
-6 -16 -9 -17 -13 -5 -3 8 -8 24 -12 35 -23 65 -25 77 -9 64 13 -10 35 -6 122
21 59 19 108 35 110 36 1 1 -3 13 -9 27 -8 18 -21 27 -43 29 l-31 4 25 11 c14
7 31 11 39 10 8 -1 28 -47 48 -110z m69 -275 c9 -56 15 -104 13 -106 -2 -3
-22 -7 -44 -11 -34 -5 -37 -4 -20 6 29 18 35 29 35 76 l0 43 -47 -6 c-27 -4
-52 -10 -56 -14 -12 -11 21 -40 46 -40 39 -1 -3 -17 -63 -24 l-55 -7 30 25
c38 31 25 46 -35 37 -40 -5 -45 -9 -48 -34 -4 -35 20 -74 56 -90 l27 -11 -39
-4 c-21 -2 -40 -1 -42 1 -5 4 -34 172 -34 195 0 7 5 10 10 7 6 -4 61 1 122 11
91 15 112 21 116 36 2 11 6 17 8 16 1 -2 10 -49 20 -106z m-3613 3 c12 -2 31
-6 42 -7 17 -3 20 -12 23 -71 2 -55 -1 -75 -19 -107 -54 -96 -190 -90 -241 11
-22 42 -23 91 -2 130 8 16 12 39 9 50 -6 18 -3 19 37 13 24 -4 44 -8 46 -10 2
-1 -12 -10 -31 -19 -56 -26 -74 -92 -37 -133 40 -43 150 -56 193 -22 34 27 44
70 21 87 -23 17 -71 17 -77 1 -8 -20 -8 45 0 83 4 21 9 27 11 17 2 -10 13 -20
25 -23z m3563 -216 c31 -15 48 -32 63 -63 24 -48 26 -70 10 -115 -8 -24 -8
-35 1 -46 11 -13 6 -15 -34 -15 l-47 0 35 34 c45 42 47 76 7 117 -26 26 -36
29 -94 29 -83 0 -117 -23 -117 -79 0 -24 8 -49 21 -65 14 -18 16 -26 7 -26
-22 0 -48 54 -48 99 0 67 23 109 72 131 55 25 72 25 124 -1z m-3508 -264 c0
-16 -2 -22 -5 -12 -5 20 -21 21 -45 3 -12 -9 -18 -27 -18 -55 0 -35 4 -43 26
-53 22 -10 28 -10 39 5 12 16 13 16 19 -5 3 -13 6 -32 6 -42 0 -18 -1 -18 -17
-3 -10 8 -76 34 -146 57 l-129 42 119 70 c65 38 122 77 128 86 7 14 11 9 17
-23 4 -22 7 -53 6 -70z m3438 -52 c95 -19 111 -20 125 -7 14 13 15 8 6 -47 -6
-33 -13 -56 -16 -50 -9 13 -57 31 -86 31 -24 0 -29 -9 -37 -65 -3 -16 5 -21
46 -29 43 -8 51 -6 64 10 13 17 13 16 6 -16 -4 -19 -11 -53 -15 -75 -3 -22 -7
-32 -8 -22 -1 22 -26 31 -141 53 -90 16 -94 16 -108 -2 -14 -18 -14 -18 -9 6
3 14 9 45 13 69 5 32 9 39 16 28 8 -16 66 -37 99 -37 12 0 18 13 23 41 4 23 5
43 3 45 -2 2 -26 8 -53 13 -41 8 -51 7 -63 -7 -12 -16 -13 -15 -8 3 3 11 9 42
13 70 5 37 9 45 14 30 6 -16 27 -24 116 -42z m-3395 -198 c15 -50 15 -53 -1
-43 -12 8 -39 3 -109 -19 -58 -19 -87 -32 -77 -36 9 -4 63 -9 121 -13 58 -4
105 -10 104 -13 0 -3 -41 -41 -90 -83 -50 -43 -84 -78 -76 -78 21 0 158 48
173 61 8 6 11 16 8 23 -3 6 2 2 10 -8 20 -25 22 -64 3 -47 -11 8 -31 5 -83
-13 -38 -12 -86 -26 -106 -30 -28 -5 -38 -12 -40 -29 -3 -16 -8 -10 -21 28
l-17 49 47 41 c26 22 59 50 72 61 l25 22 -92 7 -93 7 -14 35 c-18 42 -19 57
-5 48 6 -4 58 8 117 26 77 24 107 39 111 52 6 25 13 15 33 -48z m3329 -121
c74 -28 98 -34 112 -25 26 16 27 15 10 -33 -15 -42 -19 -45 -77 -62 -33 -10
-76 -24 -95 -32 l-35 -14 63 -20 c50 -15 67 -17 78 -7 17 14 17 11 3 -28 l-10
-31 -22 22 c-12 11 -49 29 -82 40 -109 34 -146 49 -138 56 4 4 61 24 126 45
65 21 119 41 122 44 2 4 -34 20 -80 36 -70 24 -86 27 -99 16 -19 -16 -19 -14
-5 28 9 27 13 29 23 17 6 -9 54 -32 106 -52z m-3164 -277 c21 -41 22 -46 6
-36 -15 10 -33 4 -108 -36 -49 -26 -93 -52 -99 -57 -17 -15 10 -43 46 -48 l34
-6 -32 -17 -32 -17 -19 33 c-41 70 -92 166 -92 175 0 8 42 32 56 32 2 0 -3
-11 -12 -25 -14 -21 -15 -31 -5 -51 l11 -25 88 47 c105 57 122 71 115 92 -8
26 13 -4 43 -61z m3069 23 c109 -67 69 -243 -58 -257 -147 -17 -213 153 -97
251 40 33 107 36 155 6z m-2955 -202 c8 -14 7 -16 -4 -12 -9 4 -20 -5 -30 -23
-14 -28 -13 -30 17 -65 28 -32 35 -35 56 -27 17 7 22 15 18 29 -3 11 -1 20 4
20 5 0 9 -5 9 -10 0 -6 32 -42 71 -80 40 -38 62 -66 52 -64 -15 4 -29 -6 -53
-36 l-33 -42 31 -31 32 -31 35 34 c26 25 35 42 32 57 -5 28 15 19 62 -31 27
-28 30 -34 13 -30 -19 5 -41 -14 -117 -101 -5 -6 -21 -23 -34 -38 -21 -23 -22
-29 -10 -43 26 -31 -22 1 -60 40 -26 27 -29 34 -14 30 15 -4 29 5 51 32 l32
38 -27 28 c-15 15 -32 28 -39 28 -20 0 -67 -68 -60 -86 8 -22 -5 -15 -53 28
-37 35 -60 66 -27 39 11 -9 24 -1 64 41 103 108 116 130 90 156 -17 17 -34 15
-170 -18 -67 -17 -123 -29 -125 -27 -1 2 26 57 62 123 36 65 65 126 65 134 0
15 38 -25 60 -62z m2683 -6 c-4 -18 12 -36 115 -121 32 -27 58 -41 68 -37 20
8 -13 -39 -53 -74 -15 -14 -22 -18 -15 -10 6 8 12 17 12 21 0 9 -169 149 -181
149 -4 0 -17 -12 -28 -26 -23 -29 -27 -74 -10 -107 8 -16 2 -13 -24 12 l-36
34 75 88 c42 49 77 89 79 89 2 0 1 -8 -2 -18z m-95 -275 c30 -30 36 -44 40
-89 4 -48 1 -58 -24 -87 -16 -19 -47 -42 -70 -52 -85 -38 -184 29 -184 124 0
55 15 83 62 118 38 27 49 30 91 26 39 -3 56 -11 85 -40z m-2178 -110 c25 -16
35 -26 23 -23 -18 6 -22 2 -28 -24 -4 -17 -5 -33 -3 -34 45 -33 79 -46 98 -36
23 12 26 30 8 49 -7 7 26 -8 75 -33 48 -25 94 -46 102 -46 7 0 16 -4 19 -9 4
-5 -2 -7 -13 -4 -16 4 -25 -10 -55 -89 -20 -51 -36 -97 -36 -101 0 -4 40 34
90 85 l89 93 1 -127 c0 -71 3 -128 8 -128 4 0 22 43 40 96 27 76 31 98 22 110
-15 17 -12 17 28 3 31 -11 31 -11 13 -27 -24 -22 -92 -198 -84 -219 5 -13 2
-15 -13 -9 -10 5 -31 13 -46 18 -28 10 -28 11 -28 99 0 49 -3 89 -6 89 -4 0
-33 -29 -66 -65 l-59 -64 -42 16 c-23 9 -46 20 -52 25 -6 6 -4 7 6 3 21 -8 26
0 66 105 36 94 39 110 21 128 -22 22 -43 13 -157 -64 -62 -41 -114 -74 -116
-72 -3 3 6 75 24 195 6 40 8 80 4 89 -7 19 -8 20 67 -29z m1886 -56 c17 -10
38 -34 47 -54 43 -90 -3 -180 -107 -208 -22 -6 -44 -16 -48 -22 -3 -6 -15 4
-27 23 -21 35 -20 53 1 32 18 -18 98 -15 120 5 23 21 24 99 1 133 -53 80 -98
99 -143 62 -22 -17 -22 -19 -6 -49 8 -17 24 -33 33 -35 13 -2 3 -12 -31 -31
-58 -32 -55 -32 -49 -8 3 10 -3 31 -13 45 -17 26 -16 27 12 57 63 67 149 87
210 50z m-361 -121 c-3 -5 -2 -26 4 -46 11 -38 100 -129 150 -151 28 -12 30
-11 -48 -38 -53 -18 -56 -19 -42 -1 9 10 1 22 -35 56 -25 23 -50 38 -54 34 -5
-5 -11 -35 -15 -66 -7 -52 -5 -58 11 -58 12 -1 6 -6 -15 -16 -37 -15 -50 -12
-34 8 6 7 16 46 23 85 16 87 3 152 -32 161 -17 4 -13 8 23 23 51 20 73 23 64
9z m-487 -146 c31 -21 53 -75 46 -113 -7 -36 -47 -79 -81 -87 -69 -18 -132 26
-140 98 -11 94 93 155 175 102z m-198 -479 c0 -51 -3 -65 -15 -65 -11 0 -15
12 -15 50 0 38 -4 50 -15 50 -18 0 -20 16 -2 23 40 17 47 9 47 -58z m130 46
c5 -11 10 -28 10 -39 0 -30 -38 -72 -66 -72 -32 0 -31 18 1 26 29 7 34 24 7
24 -22 0 -42 19 -42 40 0 40 70 57 90 21z m118 -13 c21 -44 -14 -98 -64 -98
-23 0 -16 16 14 30 l27 13 -30 6 c-21 4 -31 13 -33 29 -8 55 62 71 86 20z
m121 25 c-2 -26 -57 -118 -72 -121 -16 -3 -15 2 7 47 14 28 26 53 26 56 0 3
-13 5 -30 5 -16 0 -30 5 -30 10 0 6 23 10 50 10 28 0 50 -3 49 -7z m-979 -423
l5 -34 28 37 c15 20 34 37 42 37 27 0 26 -21 -1 -57 l-28 -37 27 -48 c15 -26
27 -50 27 -53 0 -3 -11 -5 -24 -5 -17 0 -31 11 -47 38 l-24 37 -3 -37 c-3 -30
-7 -38 -23 -38 -17 0 -19 8 -19 93 0 52 3 97 7 101 14 13 28 -1 33 -34z m165
34 c9 -4 28 -30 43 -58 l27 -51 5 55 c4 40 9 55 20 55 12 0 16 -19 18 -97 l3
-98 -25 0 c-25 0 -47 25 -76 85 l-15 30 -3 -57 c-3 -50 -6 -58 -22 -58 -18 0
-20 7 -20 93 0 108 4 116 45 101z m279 -5 c33 -15 50 -60 43 -111 -8 -57 -35
-81 -91 -81 -54 0 -72 13 -87 63 -28 92 50 167 135 129z m97 -10 c4 -8 13 -36
21 -64 l14 -50 13 63 c19 98 60 96 81 -4 6 -30 13 -54 15 -54 2 0 9 24 15 54
12 58 33 87 51 69 7 -7 3 -38 -13 -99 -23 -85 -25 -89 -54 -92 -28 -3 -31 0
-43 45 l-14 48 -9 -35 c-6 -19 -12 -41 -14 -47 -2 -7 -17 -13 -33 -13 -28 0
-30 3 -50 78 -12 43 -21 85 -21 94 0 30 27 36 41 7z m273 15 c13 -5 16 -22 16
-79 0 -73 0 -74 27 -77 17 -2 29 -10 31 -20 3 -15 -5 -18 -52 -18 l-56 0 0 93
c0 105 3 113 34 101z m203 -9 c7 -20 4 -23 -32 -28 -43 -5 -47 -37 -6 -37 24
0 31 -4 31 -20 0 -16 -7 -20 -30 -20 -23 0 -30 -4 -30 -20 0 -16 7 -20 35 -20
28 0 35 -4 35 -20 0 -18 -7 -20 -60 -20 l-60 0 0 94 c0 104 0 104 68 105 30 1
44 -4 49 -14z m125 5 c47 -14 68 -43 68 -98 0 -64 -32 -92 -105 -92 l-55 0 0
93 c0 52 3 97 7 100 9 10 42 8 85 -3z m229 0 c10 -6 19 -20 19 -30 0 -23 0
-23 -36 -9 -54 20 -96 -28 -75 -84 11 -27 44 -40 60 -24 17 17 13 25 -11 29
-13 2 -24 11 -26 21 -3 14 4 17 42 17 l46 0 0 -54 c0 -53 0 -53 -35 -59 -47
-8 -99 9 -114 36 -7 13 -11 45 -9 72 3 43 7 52 37 72 37 25 71 29 102 13z
m167 -12 c2 -12 -5 -17 -30 -20 -45 -4 -53 -38 -9 -38 24 0 31 -4 31 -20 0
-16 -7 -20 -30 -20 -23 0 -30 -4 -30 -20 0 -16 7 -20 35 -20 29 0 35 -4 35
-20 0 -19 -5 -21 -57 -18 l-58 3 -3 83 c-2 55 1 89 9 98 18 22 103 15 107 -8z
m-840 -335 c-3 -90 -5 -98 -23 -98 -18 0 -20 8 -23 98 l-3 97 26 0 26 0 -3
-97z m140 70 c3 -20 0 -21 -34 -16 -45 7 -43 -6 6 -39 43 -29 51 -67 21 -97
-38 -38 -111 -23 -111 21 0 21 4 22 29 6 20 -12 51 -5 51 11 0 6 -14 18 -30
26 -44 23 -58 57 -36 90 15 22 23 26 59 23 34 -2 43 -7 45 -25z m-430 -239
c46 -32 21 -108 -38 -116 -20 -2 -26 -9 -28 -36 -3 -27 -7 -33 -23 -30 -19 3
-21 11 -21 88 0 47 1 91 1 98 1 18 82 15 109 -4z m196 -10 c40 -41 34 -125
-13 -161 -20 -15 -85 -17 -111 -3 -28 15 -44 83 -30 126 23 67 104 87 154 38z
m85 -11 c5 -21 12 -51 16 -68 7 -28 8 -25 24 35 13 52 21 66 38 68 18 3 23 -6
39 -65 l18 -67 16 64 c13 53 20 66 38 68 27 4 27 -1 -2 -108 -22 -82 -24 -85
-53 -88 -29 -3 -32 0 -38 35 -11 66 -21 70 -35 14 -11 -46 -15 -51 -40 -51
-26 0 -28 4 -52 93 -14 50 -23 95 -21 100 2 4 13 7 23 7 14 0 22 -11 29 -37z
m349 15 c2 -13 -5 -17 -35 -20 -49 -4 -53 -32 -5 -36 45 -5 41 -36 -6 -40 -24
-2 -32 -8 -32 -22 0 -14 9 -20 38 -22 25 -2 37 -8 37 -18 0 -11 -14 -16 -57
-18 l-58 -3 0 101 0 101 57 -3 c45 -2 59 -7 61 -20z m142 2 c23 -23 25 -39 9
-73 -8 -18 -7 -32 5 -62 20 -47 20 -45 -8 -45 -17 0 -27 9 -37 33 -20 49 -33
52 -39 9 -4 -29 -10 -38 -27 -40 -22 -3 -23 -1 -23 91 0 51 3 97 7 100 15 16
93 7 113 -13z"/>
<path d="M2001 4861 c-11 -7 -11 -18 -2 -61 6 -29 10 -55 8 -57 -2 -2 -24 22
-47 52 -40 52 -45 55 -74 49 -17 -3 -32 -7 -33 -8 -2 -1 2 -29 8 -62 6 -32 13
-81 17 -109 7 -50 22 -64 50 -46 11 6 11 20 3 66 -6 32 -9 60 -8 62 2 2 25
-24 51 -57 42 -53 50 -59 74 -54 15 4 28 8 30 9 1 1 -6 51 -16 111 -19 110
-28 126 -61 105z"/>
<path d="M2137 4854 c-3 -11 -7 -62 -9 -114 l-3 -95 62 -3 c77 -4 114 14 138
64 22 47 14 99 -20 133 -21 21 -36 26 -94 29 -61 4 -70 2 -74 -14z m98 -34
c36 -14 49 -52 31 -94 -14 -33 -60 -57 -76 -39 -10 11 0 143 11 143 4 0 19 -4
34 -10z"/>
<path d="M2406 4833 c-8 -27 -46 -207 -43 -209 1 -1 14 -5 28 -9 25 -6 26 -4
47 89 24 103 27 136 13 136 -5 0 -16 3 -24 6 -9 3 -17 -2 -21 -13z"/>
<path d="M2529 4792 c-17 -47 -50 -136 -60 -161 -5 -13 -8 -25 -7 -26 2 -1 13
-8 26 -14 21 -11 24 -9 36 21 14 31 17 33 66 33 40 0 55 4 66 20 43 58 19 108
-64 136 l-53 18 -10 -27z m89 -69 c-4 -23 -35 -40 -48 -27 -7 7 -8 19 0 38 8
23 13 25 31 16 11 -6 19 -18 17 -27z"/>
<path d="M1667 4777 c-27 -11 -28 -14 -23 -57 3 -25 8 -78 12 -117 5 -62 9
-73 24 -73 23 0 35 18 31 47 -2 16 5 26 23 35 23 10 29 8 50 -11 22 -21 27
-21 50 -9 l26 14 -75 92 c-42 51 -79 92 -83 91 -4 -1 -20 -6 -35 -12z m60
-119 c-21 -14 -27 -8 -27 25 l0 32 20 -25 c13 -18 15 -27 7 -32z"/>
<path d="M2706 4634 c-31 -53 -56 -99 -56 -103 0 -3 28 -22 63 -43 62 -36 62
-36 74 -15 11 20 8 24 -28 45 -33 20 -37 27 -29 43 13 23 12 23 52 0 29 -19
32 -19 44 -3 19 24 18 25 -21 46 -19 11 -35 23 -35 28 0 18 30 19 60 1 31 -18
32 -18 46 1 16 23 16 23 -57 65 l-57 31 -56 -96z"/>
<path d="M1474 4680 c-11 -4 -34 -24 -52 -44 -46 -53 -45 -111 2 -160 27 -29
41 -36 73 -36 45 0 133 50 133 75 0 18 -57 105 -68 105 -4 0 -20 -11 -36 -23
-33 -27 -31 -63 3 -52 10 3 24 -1 31 -10 11 -13 10 -18 -6 -30 -10 -8 -26 -15
-35 -15 -22 0 -66 36 -74 61 -8 26 17 64 54 84 22 11 28 20 24 35 -6 21 -16
24 -49 10z"/>
<path d="M2923 4601 c-9 -15 -8 -22 9 -39 l21 -21 -58 -66 -58 -66 21 -22 22
-21 37 44 c89 104 77 95 103 77 24 -17 50 -8 50 17 0 9 -121 116 -132 116 -2
0 -8 -8 -15 -19z"/>
<path d="M2025 4531 c-307 -50 -579 -251 -718 -532 -68 -137 -89 -225 -94
-399 -6 -163 10 -254 68 -398 106 -265 338 -469 634 -558 82 -24 106 -27 255
-27 171 -1 219 7 350 54 125 46 302 166 390 266 282 320 314 805 78 1164 -140
212 -337 351 -588 415 -65 17 -304 26 -375 15z m350 -116 c148 -31 259 -90
369 -195 88 -84 162 -187 212 -296 19 -40 34 -75 34 -79 0 -18 -241 -102 -374
-129 l-69 -15 -81 65 c-195 156 -437 228 -808 241 -98 3 -178 8 -178 10 0 19
165 202 230 255 85 69 235 132 360 151 64 10 241 5 305 -8z m50 -866 c38 -38
43 -40 93 -37 l52 3 0 -37 c0 -25 -4 -37 -12 -35 -20 3 -15 -11 47 -138 58
-116 60 -123 63 -212 3 -63 0 -93 -7 -93 -6 0 -11 -18 -11 -40 0 -29 -4 -40
-15 -40 -11 0 -15 11 -15 40 l0 40 -128 0 c-127 0 -129 0 -142 -25 -12 -23
-11 -28 13 -53 15 -16 27 -31 27 -35 0 -11 -37 -8 -66 5 -22 10 -28 10 -32 0
-2 -7 -15 -25 -28 -40 l-23 -27 -1 47 0 47 -42 8 c-51 10 -55 24 -10 39 17 5
37 15 44 22 9 9 -33 12 -190 12 l-202 0 0 -55 c0 -30 -4 -55 -10 -55 -5 0 -10
23 -10 51 0 32 -5 56 -14 63 -7 6 -33 47 -56 91 -24 44 -69 129 -101 188 -59
107 -59 108 -59 191 l0 83 68 6 c37 4 135 7 217 8 83 1 211 5 285 8 245 13
221 16 265 -30z"/>
<path d="M1823 3547 l-203 -10 0 -58 c0 -33 3 -59 8 -59 4 0 23 11 42 24 38
25 17 23 460 47 107 5 219 12 248 15 l54 6 -23 24 c-22 24 -24 24 -203 22
-100 -1 -272 -6 -383 -11z"/>
<path d="M2375 3483 c-53 -8 -48 -20 7 -18 29 1 79 3 111 4 31 0 57 6 57 11 0
10 -113 12 -175 3z"/>
<path d="M1735 3440 c-2 -4 26 -84 66 -187 11 -28 3 -28 322 -3 341 28 448 38
454 43 2 3 -12 37 -31 76 l-36 71 -73 1 c-456 3 -699 3 -702 -1z"/>
<path d="M1663 3410 c-18 -11 -33 -26 -33 -34 0 -8 16 -42 35 -76 19 -34 35
-63 35 -64 0 -13 109 -194 114 -189 3 3 6 26 6 50 0 32 -4 43 -15 43 -11 0
-15 11 -15 39 0 39 -71 243 -86 248 -5 2 -24 -6 -41 -17z"/>
<path d="M2485 3259 c-140 -12 -328 -28 -470 -39 -178 -15 -205 -19 -205 -36
0 -12 64 -14 415 -14 l415 0 -25 50 c-14 28 -29 49 -33 49 -4 -1 -47 -5 -97
-10z"/>
<path d="M1840 3120 c0 -20 7 -20 405 -20 398 0 405 0 405 20 0 20 -7 20 -405
20 -398 0 -405 0 -405 -20z"/>
<path d="M1845 3072 c-3 -3 -5 -16 -5 -29 l0 -23 196 0 195 0 -3 28 -3 27
-188 1 c-103 0 -189 -2 -192 -4z"/>
<path d="M2250 3071 c0 -4 7 -16 14 -27 14 -20 25 -21 200 -23 l186 -2 0 26
c0 14 -3 25 -7 26 -41 5 -393 5 -393 0z"/>
<path d="M914 3941 c-55 -33 -68 -121 -26 -169 62 -71 172 -48 202 42 9 27 8
42 -5 73 -27 69 -106 93 -171 54z"/>
<path d="M3344 3950 c-57 -23 -84 -117 -48 -168 50 -72 161 -66 198 12 20 42
20 69 1 106 -26 50 -95 73 -151 50z"/>
<path d="M1070 3325 c-25 -7 -71 -20 -102 -29 -57 -16 -67 -27 -49 -55 7 -11
17 -12 50 -3 36 9 43 8 51 -8 20 -38 12 -56 -30 -69 -29 -9 -40 -17 -40 -32 0
-31 23 -32 114 -6 48 13 86 21 86 17 0 -21 -73 -98 -109 -115 -45 -20 -47 -23
-28 -50 13 -17 15 -17 48 -1 23 12 54 18 99 17 35 -1 66 -3 68 -5 2 -2 -33
-30 -77 -62 l-81 -58 16 -25 c63 -99 142 -118 213 -52 38 36 41 79 8 132 -12
21 -33 55 -47 78 -24 39 -27 41 -74 41 l-50 0 33 34 33 34 -18 51 c-13 36 -23
50 -34 46 -60 -17 -67 -17 -74 7 -12 46 -7 56 30 62 31 6 35 10 32 33 -4 33
-12 35 -68 18z m198 -417 c21 -21 13 -55 -19 -82 -37 -31 -58 -33 -87 -6 -23
22 -29 40 -12 40 6 0 29 14 52 30 46 34 49 35 66 18z"/>
<path d="M3193 3175 l-21 -56 51 -29 52 -30 10 24 c18 43 35 57 56 45 23 -12
24 -25 4 -63 -13 -24 -13 -31 -3 -38 20 -12 31 -5 50 33 54 106 -72 186 -130
82 -5 -9 -14 -13 -20 -9 -7 4 -6 18 4 43 13 29 13 37 2 44 -25 16 -33 9 -55
-46z"/>
<path d="M3125 3029 c-40 -69 -41 -74 -17 -84 11 -4 21 0 27 11 38 64 38 64
94 -20 49 -71 54 -76 67 -59 7 10 14 21 14 25 0 9 -86 135 -113 166 -11 12
-24 22 -28 22 -5 0 -24 -27 -44 -61z"/>
<path d="M3070 2923 c-56 -20 -67 -82 -23 -134 28 -33 78 -59 113 -59 29 0 70
44 70 74 0 56 -109 137 -160 119z m37 -55 c60 -26 100 -88 56 -88 -37 0 -111
69 -98 90 8 12 8 12 42 -2z"/>
<path d="M1295 2760 l-80 -80 52 -52 c45 -45 54 -50 68 -38 14 12 13 16 -15
45 -34 35 -36 41 -16 60 11 12 18 9 41 -16 27 -27 30 -28 47 -12 18 16 17 18
-13 49 -29 30 -30 33 -12 42 14 9 24 5 49 -19 28 -27 32 -28 44 -14 12 14 7
23 -36 66 l-49 49 -80 -80z"/>
<path d="M2887 2749 c-51 -30 -40 -106 24 -163 50 -46 87 -48 123 -5 30 35 31
39 12 82 -29 71 -110 115 -159 86z m97 -87 c22 -30 27 -45 19 -53 -17 -17 -51
-1 -78 39 -33 48 -32 64 2 60 19 -2 37 -16 57 -46z"/>
<path d="M1419 2653 c-76 -107 -73 -102 -52 -119 16 -12 21 -10 49 21 26 29
33 33 43 22 8 -11 8 -24 -3 -55 -15 -41 -13 -46 21 -66 8 -4 18 12 29 47 13
42 23 56 45 64 33 13 47 54 30 86 -12 22 -82 77 -98 77 -5 0 -34 -35 -64 -77z
m111 -37 c-16 -20 -34 -20 -50 -1 -10 13 -9 19 5 36 19 20 19 20 39 0 16 -17
17 -23 6 -35z"/>
<path d="M2741 2639 c-20 -19 -23 -29 -19 -71 4 -39 12 -57 39 -84 42 -43 68
-50 107 -30 60 31 49 123 -20 181 -36 31 -77 32 -107 4z m94 -74 c30 -51 32
-75 5 -75 -23 0 -70 64 -70 96 0 48 31 38 65 -21z"/>
<path d="M1576 2524 l-78 -83 26 -13 c23 -10 30 -9 48 9 17 18 25 19 44 11 18
-9 24 -19 24 -44 0 -24 6 -37 21 -44 11 -7 23 -10 25 -7 5 5 34 190 34 217 0
15 -39 42 -58 39 -4 0 -42 -39 -86 -85z m86 -14 c-4 -28 -20 -39 -35 -24 -7 7
21 54 32 54 4 0 6 -13 3 -30z"/>
<path d="M2613 2574 l-52 -25 16 -52 c8 -29 16 -53 17 -54 1 -1 19 3 39 9 32
10 40 9 53 -4 15 -14 14 -18 -5 -37 -12 -12 -30 -21 -41 -21 -13 0 -20 -7 -20
-20 0 -43 97 -12 119 37 16 34 14 47 -11 78 -19 24 -26 27 -65 22 -54 -6 -59
16 -8 34 37 14 39 17 29 43 -8 20 -8 20 -71 -10z"/>
<path d="M1776 2533 c-3 -10 -17 -58 -31 -106 -15 -49 -25 -90 -23 -91 1 -2
18 -8 37 -15 45 -15 102 -14 124 3 18 14 24 71 8 81 -5 3 1 16 15 30 13 13 24
28 24 33 0 22 -42 59 -78 70 -54 16 -70 15 -76 -5z m79 -46 c23 -18 12 -37
-22 -37 -19 0 -24 4 -19 16 3 9 6 20 6 25 0 13 13 11 35 -4z m-16 -91 c17 -20
3 -46 -25 -46 -18 0 -24 5 -24 23 0 38 26 50 49 23z"/>
<path d="M1979 2454 c-12 -27 -34 -77 -50 -111 -20 -46 -24 -63 -14 -63 7 0
20 -2 28 -6 9 -3 19 6 27 25 7 17 19 31 27 31 28 0 53 -21 53 -44 0 -19 6 -25
31 -28 l30 -5 -6 41 c-9 57 -36 190 -39 193 -1 2 -17 6 -34 9 -31 6 -33 4 -53
-42z m53 -86 c-4 -4 -13 -4 -20 1 -10 6 -10 14 0 42 l12 34 7 -35 c4 -19 5
-38 1 -42z"/>
<path d="M2146 2483 c-16 -4 -18 -11 -12 -50 3 -25 6 -75 6 -110 0 -76 8 -82
89 -65 75 15 111 54 111 117 0 35 -6 52 -29 77 -25 28 -35 32 -87 34 -32 2
-67 0 -78 -3z m121 -61 c21 -29 16 -89 -9 -106 -29 -20 -54 -20 -62 0 -8 22
-8 119 1 128 11 11 55 -3 70 -22z"/>
<path d="M2453 2403 c-25 -3 -33 -9 -33 -24 0 -20 23 -25 68 -13 23 7 32 45
10 42 -7 0 -28 -3 -45 -5z"/>
<path d="M3533 4761 c-83 -60 -107 -125 -58 -157 33 -22 81 -5 141 49 36 34
46 49 46 76 2 65 -62 81 -129 32z"/>
<path d="M619 4681 c-13 -11 -22 -21 -19 -24 44 -39 177 -127 189 -125 10 2
17 16 19 39 2 29 -3 42 -30 69 -35 34 -85 60 -117 60 -10 0 -29 -9 -42 -19z"/>
<path d="M416 4071 c-17 -6 -15 -10 14 -34 18 -16 34 -26 37 -24 2 2 8 18 13
36 8 29 7 31 -18 30 -15 0 -35 -4 -46 -8z"/>
<path d="M378 3352 c-32 -20 -35 -29 -10 -36 9 -2 27 -7 40 -11 17 -5 22 -2
22 14 0 24 -10 51 -19 50 -3 0 -18 -8 -33 -17z"/>
<path d="M3605 2720 c-19 -36 -12 -53 39 -98 45 -39 107 -59 144 -46 22 7 28
17 30 45 3 31 -2 41 -34 69 -44 39 -92 60 -133 60 -24 0 -34 -7 -46 -30z"/>
<path d="M751 2462 c-20 -39 -20 -42 -4 -42 10 1 30 6 46 13 l27 12 -24 30
-23 29 -22 -42z"/>
<path d="M3242 2294 c-31 -22 -28 -66 8 -119 54 -79 118 -106 153 -67 26 28
20 66 -16 114 -33 43 -90 88 -111 88 -6 0 -22 -7 -34 -16z"/>
<path d="M1224 2053 c-3 -16 -7 -34 -10 -40 -5 -18 3 -16 44 9 l35 21 -23 19
c-30 24 -39 23 -46 -9z"/>
<path d="M2157 1424 c-14 -14 -7 -35 11 -32 9 2 17 10 17 17 0 16 -18 25 -28
15z"/>
<path d="M2265 1420 c-8 -14 3 -30 21 -30 8 0 14 9 14 20 0 21 -24 28 -35 10z"/>
<path d="M1840 1000 c-25 -25 -26 -64 0 -90 20 -20 47 -18 62 4 13 19 8 74 -8
90 -20 21 -30 20 -54 -4z"/>
<path d="M2566 1013 c-3 -4 -6 -30 -6 -60 0 -49 2 -53 23 -53 13 0 28 5 35 12
16 16 15 73 0 85 -19 15 -45 22 -52 16z"/>
<path d="M1810 486 c0 -20 5 -26 21 -26 15 0 20 5 17 22 -5 34 -38 37 -38 4z"/>
<path d="M1976 488 c-29 -41 -13 -98 27 -98 33 0 47 19 47 60 0 59 -44 82 -74
38z"/>
<path d="M2580 485 c0 -27 6 -30 29 -16 17 11 7 41 -14 41 -9 0 -15 -9 -15
-25z"/>
<path d="M4805 4448 c-3 -13 -37 -229 -75 -482 -38 -252 -75 -466 -82 -475
-20 -25 -31 -31 -60 -31 -16 0 -28 -4 -28 -10 0 -6 60 -10 160 -10 153 0 212
12 114 23 -25 2 -51 10 -57 16 -15 15 -11 76 23 341 40 308 37 296 63 240 70
-151 287 -588 300 -605 14 -18 17 -18 31 -5 8 8 83 159 167 335 168 351 157
330 164 324 2 -3 23 -142 46 -309 33 -242 39 -308 29 -323 -6 -10 -8 -22 -5
-25 11 -12 575 -14 575 -3 0 5 -17 11 -37 13 -37 3 -38 4 -37 43 1 22 18 79
39 128 l37 87 147 0 147 0 49 -127 c34 -87 45 -128 37 -131 -7 -2 -12 -8 -12
-13 0 -5 66 -9 150 -9 93 0 150 4 150 10 0 6 -16 10 -35 10 -69 0 -76 12 -275
480 -78 184 -148 345 -156 357 -8 13 -20 20 -28 17 -8 -3 -78 -155 -156 -337
-201 -469 -207 -481 -240 -500 -54 -33 -140 -15 -166 35 -14 28 -42 195 -115
701 -18 126 -38 236 -45 245 -12 16 -14 16 -26 -1 -7 -10 -94 -188 -193 -397
-99 -209 -182 -376 -186 -372 -3 4 -85 174 -184 377 -200 416 -216 442 -230
383z m1573 -506 c28 -76 52 -143 52 -150 0 -9 -32 -12 -115 -12 -63 0 -115 3
-115 7 0 14 114 293 119 293 3 0 30 -62 59 -138z"/>
<path d="M12534 4451 c-275 -44 -448 -244 -448 -516 1 -246 134 -417 377 -486
69 -20 105 -24 232 -24 148 0 213 9 297 42 l36 15 4 195 c3 191 3 195 27 214
13 10 34 19 47 19 12 0 26 5 29 10 4 7 -63 10 -194 10 -127 0 -201 -4 -201
-10 0 -5 18 -10 39 -10 23 0 48 -8 62 -19 23 -18 24 -26 27 -166 5 -172 -1
-210 -31 -227 -31 -17 -182 -14 -249 6 -170 49 -296 213 -317 411 -18 164 23
311 106 385 83 73 121 85 268 85 112 0 138 -3 186 -23 85 -34 136 -83 155
-149 9 -30 19 -51 24 -46 9 10 21 253 12 253 -4 0 -47 7 -97 15 -110 18 -322
27 -391 16z"/>
<path d="M8342 4311 c-7 -4 -78 -160 -158 -347 -198 -461 -201 -468 -234 -487
-41 -25 -150 -23 -181 2 l-24 19 -3 340 c-3 228 0 352 8 380 10 38 14 42 50
48 89 14 30 24 -145 24 -173 0 -238 -10 -144 -23 71 -9 74 -17 74 -190 l0
-152 -227 -3 -228 -2 0 150 c0 85 5 160 10 171 7 11 26 21 50 25 89 14 30 24
-145 24 -174 0 -238 -10 -143 -23 23 -3 48 -14 55 -23 10 -14 13 -101 13 -379
0 -399 -1 -405 -61 -405 -16 0 -29 -4 -29 -10 0 -6 70 -10 191 -10 124 0 188
3 184 10 -3 6 -23 10 -44 10 -26 0 -44 7 -57 21 -17 19 -19 38 -19 198 l0 176
225 0 225 0 3 -100 c5 -138 -6 -262 -25 -280 -8 -8 -28 -15 -44 -15 -16 0 -29
-4 -29 -10 0 -6 120 -10 340 -10 205 0 340 4 340 9 0 6 -17 11 -37 13 -37 3
-38 4 -37 43 1 22 18 79 39 128 l37 87 147 0 147 0 49 -127 c34 -87 45 -128
37 -131 -7 -2 -12 -8 -12 -13 0 -5 66 -9 150 -9 93 0 150 4 150 10 0 6 -16 10
-35 10 -42 0 -72 26 -106 91 -12 24 -89 202 -171 394 -82 193 -154 355 -161
362 -7 7 -18 9 -25 4z m36 -369 c28 -76 52 -143 52 -150 0 -9 -32 -12 -115
-12 -63 0 -115 3 -115 7 0 14 114 293 119 293 3 0 30 -62 59 -138z"/>
<path d="M11162 4307 c-6 -7 -80 -175 -166 -375 -179 -417 -188 -435 -218
-456 -47 -33 -132 -13 -155 35 -7 14 -38 190 -68 390 -65 432 -61 409 -83 409
-13 0 -60 -84 -182 -330 l-165 -331 -165 331 c-122 243 -169 330 -182 330 -22
0 -16 29 -88 -429 -64 -410 -67 -421 -122 -421 -15 0 -28 -4 -28 -10 0 -6 53
-10 140 -10 87 0 140 4 140 10 0 6 -12 10 -26 10 -43 0 -64 17 -64 52 0 33 47
414 56 458 4 19 31 -27 130 -225 134 -270 163 -317 185 -298 8 6 75 133 149
282 74 149 137 271 140 271 3 0 21 -117 39 -259 27 -203 32 -263 22 -274 -9
-12 -7 -16 11 -21 40 -10 528 -7 528 4 0 6 -13 10 -30 10 -58 0 -54 49 15 205
l24 56 147 -3 146 -3 48 -120 c41 -101 46 -122 34 -131 -8 -6 -14 -14 -14 -18
0 -3 70 -6 156 -6 101 0 153 3 149 10 -3 6 -18 10 -33 10 -37 0 -67 23 -96 73
-13 23 -95 207 -181 409 -86 201 -162 369 -170 372 -7 2 -18 -1 -23 -7z m42
-367 c31 -80 56 -148 56 -152 0 -5 -52 -8 -115 -8 -85 0 -115 3 -115 12 0 14
112 299 116 295 2 -1 28 -67 58 -147z"/>
<path d="M13586 4298 c-9 -13 -90 -197 -181 -409 -91 -211 -174 -392 -184
-402 -10 -10 -37 -21 -60 -24 -87 -12 -35 -23 109 -23 93 0 150 4 150 10 0 6
-13 10 -28 10 -30 0 -52 16 -52 38 0 7 19 60 42 118 l41 104 148 0 147 0 46
-115 c47 -117 54 -145 36 -145 -5 0 -10 -4 -10 -10 0 -6 112 -10 316 -10 207
0 313 3 309 10 -3 6 -19 10 -34 10 -16 0 -39 8 -52 19 -21 17 -24 29 -30 142
-4 68 -8 194 -8 279 l0 155 81 -89 c92 -100 518 -509 555 -533 15 -10 27 -13
34 -6 5 5 13 178 17 407 l8 398 23 19 c13 11 34 19 47 19 13 0 24 5 24 10 0 6
-58 10 -155 10 -97 0 -155 -4 -155 -10 0 -5 16 -10 35 -10 49 0 72 -27 79 -92
7 -69 15 -518 9 -518 -2 0 -151 146 -330 325 -179 179 -329 325 -334 325 -6 0
-12 -6 -14 -12 -3 -7 -8 -192 -13 -411 -9 -460 0 -427 -110 -427 -103 0 -108
7 -296 451 -87 206 -167 382 -176 393 -18 18 -18 18 -34 -6z m42 -350 c28 -73
54 -141 58 -150 6 -17 -4 -18 -116 -18 -67 0 -120 4 -118 9 82 212 114 291
119 291 3 0 29 -60 57 -132z"/>
<path d="M8736 4280 c-15 -53 -26 -132 -20 -141 4 -8 14 1 26 24 23 46 60 57
196 57 l102 0 0 -352 c0 -387 -2 -400 -55 -406 -17 -2 -34 -8 -39 -13 -6 -5
67 -9 188 -9 129 0 195 3 191 10 -3 6 -23 10 -43 10 -81 0 -82 7 -82 417 l0
345 113 -3 c128 -4 163 -19 174 -69 11 -58 23 -29 23 58 l0 87 -385 0 c-334 0
-386 -2 -389 -15z"/>
<path d="M15230 4281 c0 -6 16 -11 35 -11 25 0 44 -8 60 -25 l25 -24 0 -338
c0 -191 -4 -353 -10 -372 -11 -40 -24 -51 -62 -51 -16 0 -28 -4 -28 -9 0 -4
114 -11 253 -15 206 -6 265 -5 324 8 157 32 265 113 323 238 92 199 30 437
-138 535 -99 58 -150 66 -479 70 -216 4 -303 2 -303 -6z m515 -65 c200 -53
298 -201 282 -426 -12 -179 -108 -280 -285 -300 -99 -11 -178 2 -211 34 l-24
24 -5 314 c-3 211 -1 322 7 341 10 27 12 27 98 27 49 0 111 -6 138 -14z"/>
<path d="M16330 4281 c0 -4 19 -11 42 -14 23 -3 48 -14 55 -23 10 -14 13 -99
13 -373 0 -391 -2 -403 -55 -409 -17 -2 -34 -8 -39 -13 -6 -5 67 -9 188 -9
129 0 195 3 191 10 -3 6 -23 10 -44 10 -74 0 -76 5 -79 214 l-4 186 229 -2
228 -3 -2 -180 c-2 -170 -4 -181 -24 -197 -12 -10 -32 -18 -45 -18 -13 0 -24
-4 -24 -10 0 -6 70 -10 190 -10 120 0 190 4 190 10 0 6 -18 10 -39 10 -23 0
-48 8 -62 19 l-24 19 0 372 c0 356 1 372 19 386 11 8 32 14 48 14 15 0 28 5
28 10 0 6 -68 10 -185 10 -173 0 -238 -10 -144 -23 67 -9 69 -14 72 -188 l2
-154 -227 -3 -228 -2 0 155 c0 142 2 157 20 175 11 11 33 20 50 20 17 0 30 5
30 10 0 6 -68 10 -185 10 -102 0 -185 -4 -185 -9z"/>
<path d="M17500 4280 c0 -5 13 -10 28 -10 16 0 37 -6 48 -14 18 -14 19 -30 19
-391 0 -361 -1 -377 -19 -391 -11 -8 -32 -14 -48 -14 -15 0 -28 -4 -28 -10 0
-6 70 -10 190 -10 120 0 190 4 190 10 0 6 -18 10 -39 10 -23 0 -48 8 -62 19
l-24 19 0 367 0 367 24 19 c13 10 34 19 47 19 13 0 24 5 24 10 0 6 -65 10
-175 10 -110 0 -175 -4 -175 -10z"/>
<path d="M11310 2995 c-15 -41 -22 -105 -11 -105 6 0 11 6 11 14 0 8 12 24 26
35 23 18 41 21 120 21 l94 0 0 -284 c0 -161 -4 -296 -10 -310 -7 -18 -17 -26
-34 -26 -14 0 -28 -4 -31 -10 -4 -6 45 -10 139 -10 91 0 146 4 146 10 0 6 -15
10 -34 10 -60 0 -61 3 -65 327 l-3 293 80 0 c103 0 141 -13 149 -51 10 -52 23
-31 23 39 l0 67 -296 0 c-287 0 -297 -1 -304 -20z"/>
<path d="M4545 3000 c3 -5 17 -10 30 -10 14 0 29 -8 35 -19 6 -12 10 -128 10
-306 0 -178 -4 -294 -10 -306 -6 -11 -21 -19 -35 -19 -14 0 -25 -4 -25 -10 0
-6 53 -10 140 -10 87 0 140 4 140 10 0 6 -15 10 -34 10 -60 0 -61 5 -64 299
-2 146 1 284 5 306 8 36 12 40 41 43 18 2 32 7 32 13 0 5 -58 9 -136 9 -87 0
-133 -4 -129 -10z"/>
<path d="M4997 2913 c-3 -5 -8 -127 -12 -273 -3 -146 -9 -273 -11 -282 -4 -12
-15 -18 -35 -18 -16 0 -29 -4 -29 -10 0 -6 43 -10 110 -10 67 0 110 4 110 10
0 6 -14 10 -30 10 -22 0 -33 6 -39 23 -7 19 -25 377 -19 377 2 0 95 -91 208
-201 215 -211 242 -235 260 -224 6 4 10 88 10 239 0 298 3 324 44 342 28 12
22 13 -79 13 -96 0 -106 -2 -78 -12 17 -7 35 -16 40 -20 7 -8 22 -386 15 -396
-1 -3 -103 95 -225 217 -123 122 -226 222 -229 222 -4 0 -9 -3 -11 -7z"/>
<path d="M5858 2911 c-81 -27 -128 -83 -128 -156 0 -68 45 -122 153 -184 70
-40 97 -73 97 -118 0 -71 -49 -108 -132 -101 -60 6 -104 44 -114 97 -6 30 -8
33 -15 16 -4 -11 -8 -43 -8 -72 -1 -61 7 -68 87 -79 115 -15 202 15 250 86 20
30 23 45 20 96 -5 82 -32 116 -145 186 -93 57 -118 88 -107 133 13 54 106 82
170 53 15 -7 34 -29 44 -51 l17 -38 6 58 c2 32 1 62 -3 66 -11 12 -160 18
-192 8z"/>
<path d="M6164 2905 c-13 -38 -21 -96 -13 -101 5 -3 9 -1 9 3 0 5 6 18 14 29
12 16 30 20 105 24 l91 5 0 -247 c0 -135 -3 -253 -6 -262 -3 -9 -17 -16 -30
-16 -13 0 -24 -4 -24 -10 0 -6 50 -10 131 -10 84 0 128 4 124 10 -3 6 -19 10
-35 10 -19 0 -33 7 -40 19 -6 12 -10 114 -10 263 l0 243 78 -3 c79 -4 122 -20
122 -47 0 -8 5 -15 10 -15 6 0 10 26 10 58 l0 57 -266 0 c-169 0 -268 -4 -270
-10z"/>
<path d="M7115 2909 c-2 -3 -7 -30 -10 -60 -6 -52 -5 -53 9 -28 20 35 29 37
128 40 l83 2 3 -205 c1 -112 -1 -229 -5 -259 -7 -49 -11 -54 -36 -57 -15 -2
-27 -8 -27 -13 0 -5 57 -9 132 -9 81 0 128 4 123 9 -6 5 -23 11 -39 13 -43 4
-47 32 -44 294 l3 227 74 -2 c89 -3 121 -14 121 -41 0 -11 5 -20 10 -20 6 0
10 26 10 58 l0 57 -266 0 c-146 0 -267 -3 -269 -6z"/>
<path d="M8395 2909 c-2 -3 -7 -30 -10 -60 -6 -52 -5 -53 9 -28 20 35 29 37
128 40 l83 2 3 -205 c1 -112 -1 -229 -5 -259 -7 -49 -11 -54 -36 -57 -15 -2
-27 -8 -27 -13 0 -5 57 -9 132 -9 81 0 128 4 123 9 -6 5 -23 11 -39 13 -43 4
-47 32 -44 294 l3 227 74 -2 c89 -3 121 -14 121 -41 0 -11 5 -20 10 -20 6 0
10 26 10 58 l0 57 -266 0 c-146 0 -267 -3 -269 -6z"/>
<path d="M9190 2910 c-129 -3 -185 -8 -165 -13 56 -16 55 -11 55 -268 0 -131
-4 -249 -10 -263 -6 -16 -17 -26 -29 -26 -11 0 -23 -4 -26 -10 -4 -7 61 -10
189 -10 116 0 197 4 201 10 3 5 8 33 11 62 l5 53 -18 -33 c-21 -40 -73 -57
-144 -47 -70 10 -79 27 -79 147 l0 98 73 0 c74 0 96 -8 114 -44 8 -14 11 -6
16 40 3 32 4 60 2 62 -2 2 -13 -1 -24 -8 -12 -6 -55 -10 -99 -8 l-77 3 0 105
0 105 35 3 c19 2 59 1 88 -3 47 -6 55 -10 66 -37 l13 -30 7 47 c8 62 8 75 -1
73 -5 -1 -96 -5 -203 -8z"/>
<path d="M10029 2907 c-142 -40 -228 -149 -229 -288 0 -93 24 -154 84 -215
163 -163 478 -104 557 105 27 73 23 195 -9 257 -27 54 -92 108 -151 129 -62
22 -194 28 -252 12z m178 -52 c92 -46 135 -128 136 -261 1 -69 -3 -89 -26
-137 -44 -89 -116 -121 -215 -97 -59 14 -124 65 -152 119 -60 119 -39 305 42
362 63 46 141 50 215 14z"/>
<path d="M10730 2912 c-180 -4 -200 -6 -165 -17 l40 -12 3 -249 c1 -137 0
-259 -3 -271 -4 -16 -13 -23 -30 -23 -14 0 -25 -4 -25 -10 0 -6 50 -10 131
-10 84 0 128 4 124 10 -3 6 -19 10 -35 10 -42 0 -50 23 -50 154 l0 116 74 0
c76 0 106 -13 106 -46 0 -8 5 -14 10 -14 6 0 10 27 10 60 0 57 -1 60 -19 50
-11 -5 -56 -10 -100 -10 l-81 0 0 110 0 110 73 0 c82 0 118 -14 128 -50 4 -18
8 -21 12 -10 8 23 15 110 8 108 -3 -2 -98 -4 -211 -6z"/>
<path d="M12175 2910 c-132 -3 -190 -8 -170 -13 56 -16 55 -10 55 -277 0 -137
-3 -255 -6 -264 -3 -9 -17 -16 -30 -16 -13 0 -24 -4 -24 -10 0 -6 70 -10 190
-10 214 0 210 -2 210 82 l0 43 -18 -35 c-15 -31 -23 -36 -69 -44 -37 -6 -63
-5 -95 5 l-43 14 -3 113 -3 112 68 0 c76 0 109 -15 115 -53 2 -12 7 7 11 42 5
35 6 65 3 68 -2 2 -13 0 -24 -6 -12 -6 -55 -11 -96 -11 l-76 0 0 110 0 110 54
0 c89 0 117 -9 131 -44 l13 -31 7 26 c3 14 5 41 3 60 l-3 34 -200 -5z"/>
<path d="M12732 2904 c-70 -19 -105 -37 -148 -81 -56 -56 -79 -114 -79 -204 0
-64 4 -84 30 -134 66 -129 221 -192 418 -171 87 10 96 18 102 96 5 62 4 64 -9
35 -29 -60 -60 -79 -140 -83 -59 -3 -83 0 -125 18 -107 47 -170 159 -158 287
14 149 104 223 254 210 91 -9 146 -43 158 -98 11 -50 25 -21 25 50 l0 68 -82
11 c-107 15 -180 14 -246 -4z"/>
<path d="M14027 2913 c-3 -5 -8 -127 -12 -273 -3 -146 -9 -273 -11 -282 -4
-12 -15 -18 -35 -18 -16 0 -29 -4 -29 -10 0 -6 43 -10 110 -10 67 0 110 4 110
10 0 6 -14 10 -30 10 -22 0 -33 6 -39 23 -7 19 -25 377 -19 377 2 0 95 -91
208 -201 215 -211 242 -235 260 -224 6 4 10 88 10 239 0 298 3 324 44 342 28
12 22 13 -79 13 -96 0 -106 -2 -78 -12 17 -7 35 -16 40 -20 7 -8 22 -386 15
-396 -1 -3 -103 95 -225 217 -123 122 -226 222 -229 222 -4 0 -9 -3 -11 -7z"/>
<path d="M14931 2905 c-141 -40 -224 -147 -224 -290 0 -124 66 -226 181 -278
62 -28 203 -30 279 -4 111 39 192 146 201 268 13 186 -99 303 -300 314 -57 4
-100 0 -137 -10z m152 -36 c48 -13 112 -70 140 -123 29 -57 36 -195 13 -264
-61 -182 -305 -169 -386 21 -44 101 -34 241 22 312 43 55 129 77 211 54z"/>
<path d="M16154 2907 c-142 -37 -229 -150 -228 -297 1 -125 59 -215 173 -269
48 -22 70 -26 151 -26 81 0 103 4 150 26 112 52 174 137 186 255 19 182 -99
309 -296 319 -52 3 -105 0 -136 -8z m159 -43 c62 -21 122 -89 143 -162 22 -74
15 -192 -14 -249 -76 -147 -284 -131 -366 29 -52 102 -46 261 12 330 53 63
137 82 225 52z"/>
<path d="M16915 2906 c-67 -17 -109 -40 -154 -85 -98 -98 -108 -282 -21 -390
67 -86 239 -136 391 -114 41 6 86 16 102 22 l27 11 0 115 0 115 33 14 c30 13
23 14 -98 14 -86 0 -121 -3 -102 -8 53 -16 57 -25 57 -131 0 -91 -2 -99 -22
-110 -32 -17 -122 -4 -184 26 -98 48 -144 131 -144 260 0 96 35 169 98 203 94
52 241 35 301 -33 17 -20 31 -45 31 -56 0 -11 5 -17 10 -14 6 3 10 39 10 79
l0 73 -88 12 c-110 14 -182 13 -247 -3z"/>
<path d="M6804 2895 c17 -7 33 -21 37 -31 10 -24 10 -426 1 -479 -6 -34 -11
-40 -35 -43 -15 -2 -27 -8 -27 -13 0 -5 56 -9 131 -9 84 0 128 4 124 10 -3 6
-20 10 -36 10 -22 0 -32 6 -39 26 -12 32 -13 484 -1 503 5 8 22 20 38 27 24
11 12 12 -97 12 -111 0 -122 -1 -96 -13z"/>
<path d="M7718 2897 c18 -7 37 -19 42 -27 5 -8 10 -96 10 -195 0 -99 5 -198
11 -220 17 -62 84 -120 156 -135 143 -30 270 22 316 129 6 14 13 116 16 226
l6 200 35 17 35 18 -115 -1 c-104 0 -112 -2 -80 -13 47 -17 53 -46 48 -251 -4
-193 -16 -234 -78 -269 -47 -28 -130 -27 -167 0 -66 50 -68 55 -71 289 l-3
214 33 15 c31 13 25 14 -97 14 -113 0 -126 -1 -97 -11z"/>
<path d="M13189 2896 c19 -7 38 -21 42 -32 9 -24 10 -412 1 -474 -6 -40 -10
-45 -34 -48 -16 -2 -28 -8 -28 -13 0 -5 57 -9 132 -9 81 0 128 4 123 9 -6 5
-23 11 -40 13 -38 4 -43 22 -44 161 l-1 107 160 0 160 0 0 -116 c0 -121 -8
-154 -40 -154 -10 0 -22 -4 -25 -10 -4 -6 40 -10 124 -10 81 0 131 4 131 10 0
6 -13 10 -28 10 -51 0 -52 5 -52 282 l0 258 33 14 c30 13 23 14 -98 14 -103 0
-124 -2 -100 -10 53 -19 55 -23 55 -134 l0 -104 -160 0 -160 0 0 98 c0 53 4
103 9 111 5 8 22 20 38 27 24 11 11 12 -102 12 -115 0 -126 -1 -96 -12z"/>
<path d="M15480 2892 l35 -17 3 -245 c1 -135 0 -255 -3 -267 -4 -16 -13 -23
-30 -23 -13 0 -27 -4 -30 -10 -4 -7 65 -10 200 -10 l205 0 10 26 c6 14 10 44
9 67 0 38 -1 40 -10 17 -21 -53 -36 -60 -125 -60 -62 0 -87 4 -98 16 -14 14
-16 48 -14 257 l3 240 35 13 c31 11 22 13 -95 13 -130 0 -130 0 -95 -17z"/>
<path d="M17331 2897 c42 -19 58 -37 119 -127 115 -171 120 -184 120 -297 0
-118 -4 -133 -36 -133 -13 0 -24 -4 -24 -10 0 -6 50 -10 131 -10 84 0 128 4
124 10 -3 6 -19 10 -34 10 -45 0 -51 15 -51 135 l0 110 44 75 c92 156 129 204
176 227 l45 22 -100 0 c-85 0 -97 -2 -82 -13 9 -7 17 -19 17 -26 0 -12 -97
-188 -123 -224 -13 -17 -20 -7 -87 108 -68 121 -71 128 -54 141 17 13 5 14
-96 14 -96 -1 -111 -3 -89 -12z"/>
<path d="M10080 1330 l0 -440 45 0 45 0 0 440 0 440 -45 0 -45 0 0 -440z"/>
<path d="M6217 1536 c-97 -27 -150 -109 -150 -236 0 -91 23 -150 76 -197 59
-52 183 -65 258 -27 48 24 96 88 108 143 14 65 14 97 0 162 -12 55 -60 119
-108 144 -41 21 -130 26 -184 11z m144 -93 c39 -23 62 -77 62 -143 0 -103 -48
-160 -136 -160 -79 0 -127 60 -127 160 0 100 48 160 127 160 25 0 58 -8 74
-17z"/>
<path d="M7217 1536 c-97 -27 -150 -109 -150 -236 0 -91 23 -150 76 -197 59
-52 183 -65 258 -27 48 24 96 88 108 143 14 65 14 97 0 162 -12 55 -60 119
-108 144 -41 21 -130 26 -184 11z m144 -93 c39 -23 62 -77 62 -143 0 -103 -48
-160 -136 -160 -79 0 -127 60 -127 160 0 100 48 160 127 160 25 0 58 -8 74
-17z"/>
<path d="M8309 1541 c-55 -11 -107 -48 -137 -99 -24 -42 -27 -56 -27 -142 0
-86 3 -100 28 -142 70 -119 254 -142 351 -44 48 48 66 98 66 186 0 88 -18 138
-66 186 -54 55 -124 72 -215 55z m147 -116 c60 -63 59 -192 -1 -252 -28 -28
-40 -33 -79 -33 -94 0 -140 50 -140 155 -1 112 43 165 138 165 43 0 53 -4 82
-35z"/>
<path d="M9263 1541 c-95 -24 -144 -111 -110 -193 19 -45 47 -60 161 -87 100
-24 116 -33 116 -67 0 -34 -36 -54 -96 -54 -67 0 -81 6 -100 41 -13 26 -20 29
-60 29 -41 0 -45 -2 -40 -20 3 -11 8 -29 11 -39 10 -35 71 -78 126 -90 136
-29 249 34 249 138 0 83 -26 103 -180 141 -96 24 -110 33 -110 66 0 32 36 54
88 54 53 0 80 -13 92 -46 8 -21 16 -24 56 -24 38 0 45 3 40 16 -3 9 -6 22 -6
29 0 19 -48 73 -80 90 -35 18 -116 26 -157 16z"/>
<path d="M4839 1513 c-24 -64 -159 -444 -159 -448 0 -3 22 -5 49 -5 l48 0 13
45 13 45 97 0 97 0 13 -45 13 -45 48 0 c27 0 49 3 49 8 0 4 -37 112 -82 240
l-83 232 -53 0 c-48 0 -53 -2 -63 -27z m121 -265 c0 -5 -27 -8 -60 -8 -33 0
-60 4 -60 8 0 8 43 138 56 172 5 12 63 -145 64 -172z"/>
<path d="M5190 1391 c0 -188 10 -245 52 -288 65 -67 219 -67 286 0 41 42 52
101 52 295 l0 142 -49 0 -50 0 -3 -181 c-3 -176 -4 -181 -27 -200 -31 -25
-101 -25 -132 0 -23 19 -24 24 -27 200 l-3 181 -50 0 -49 0 0 -149z"/>
<path d="M5640 1495 l0 -45 70 0 70 0 0 -195 0 -195 50 0 50 0 0 195 0 195 70
0 70 0 0 45 0 45 -190 0 -190 0 0 -45z"/>
<path d="M6600 1301 l0 -241 45 0 45 0 2 170 3 171 98 -171 99 -170 44 0 44 0
0 240 0 240 -40 0 -40 0 0 -167 c0 -120 -3 -164 -11 -156 -6 6 -50 80 -98 164
l-88 154 -52 3 -51 3 0 -240z"/>
<path d="M7600 1300 l0 -240 45 0 45 0 1 203 1 202 46 -202 47 -203 46 0 46 0
43 193 c24 105 46 195 50 200 3 4 4 -83 2 -193 l-5 -200 47 0 46 0 0 240 0
240 -68 0 -68 0 -16 -67 c-9 -38 -28 -121 -43 -186 -16 -65 -31 -114 -35 -110
-4 4 -22 71 -39 148 -18 77 -36 157 -42 178 l-10 37 -69 0 -70 0 0 -240z"/>
<path d="M8670 1391 c0 -188 10 -245 52 -288 65 -67 219 -67 286 0 41 42 52
101 52 295 l0 142 -49 0 -50 0 -3 -181 c-3 -176 -4 -181 -27 -200 -31 -25
-101 -25 -132 0 -23 19 -24 24 -27 200 l-3 181 -50 0 -49 0 0 -149z"/>
<path d="M10725 1523 c-3 -10 -40 -110 -80 -223 -41 -113 -77 -213 -80 -222
-6 -16 -1 -18 43 -18 50 0 50 0 64 43 l15 42 95 3 95 3 13 -46 13 -45 53 0 53
0 -13 38 c-44 119 -156 436 -156 439 0 2 -24 3 -54 3 -42 0 -55 -4 -61 -17z
m62 -281 c-33 -2 -61 -1 -63 1 -4 3 44 165 54 181 3 6 20 -33 37 -85 l32 -94
-60 -3z"/>
<path d="M11150 1533 c-37 -7 -60 -32 -66 -75 -6 -32 -11 -38 -30 -38 -21 0
-24 -5 -24 -35 0 -31 3 -35 25 -35 l25 0 0 -145 0 -145 45 0 45 0 0 145 0 145
30 0 c28 0 30 3 30 35 0 32 -2 35 -30 35 -23 0 -30 4 -30 20 0 16 7 20 30 20
28 0 30 2 30 40 0 37 -2 40 -27 39 -16 -1 -39 -4 -53 -6z"/>
<path d="M11370 1533 c-34 -7 -60 -32 -60 -59 0 -38 -11 -54 -36 -54 -21 0
-24 -5 -24 -35 0 -32 2 -35 30 -35 l30 0 0 -145 0 -145 40 0 40 0 0 145 0 145
30 0 c28 0 30 3 30 35 0 32 -2 35 -31 35 -24 0 -30 4 -27 18 2 10 14 18 31 20
24 3 27 7 27 43 0 36 -2 39 -27 38 -16 -1 -39 -4 -53 -6z"/>
<path d="M11510 1495 l0 -45 45 0 45 0 0 45 0 45 -45 0 -45 0 0 -45z"/>
<path d="M11700 1300 l0 -240 40 0 40 0 0 240 0 240 -40 0 -40 0 0 -240z"/>
<path d="M11880 1495 l0 -45 45 0 45 0 0 45 0 45 -45 0 -45 0 0 -45z"/>
<path d="M13280 1460 c0 -44 -3 -80 -7 -80 -4 0 -17 10 -30 22 -17 16 -36 22
-71 22 -94 0 -146 -67 -147 -189 0 -115 52 -179 145 -179 41 0 55 5 80 29 l30
29 0 -27 c0 -25 3 -27 40 -27 l40 0 0 240 0 240 -40 0 -40 0 0 -80z m-32 -133
c26 -28 37 -74 28 -122 -9 -49 -38 -75 -81 -75 -43 0 -72 26 -81 74 -9 48 3
103 27 127 27 27 80 25 107 -4z"/>
<path d="M14628 1350 c-3 -209 -3 -210 -65 -210 -37 0 -53 21 -53 69 0 30 -1
31 -45 31 -45 0 -45 0 -45 -35 0 -55 28 -114 64 -132 42 -23 131 -22 174 1 55
29 62 60 62 276 l0 190 -44 0 -45 0 -3 -190z"/>
<path d="M14820 1300 l0 -240 45 0 45 0 0 172 0 173 98 -170 98 -170 47 -3 47
-3 0 240 0 241 -40 0 -40 0 0 -165 c0 -91 -3 -165 -7 -165 -5 0 -50 74 -102
165 l-93 165 -49 0 -49 0 0 -240z"/>
<path d="M15260 1495 l0 -45 75 0 75 0 0 -195 0 -195 45 0 45 0 0 195 0 195
75 0 75 0 0 45 0 45 -195 0 -195 0 0 -45z"/>
<path d="M15712 1346 c3 -178 5 -197 24 -223 32 -44 89 -67 164 -67 88 0 138
25 168 84 20 41 22 58 22 222 l0 178 -44 0 -44 0 -4 -174 c-3 -168 -4 -176
-27 -200 -35 -37 -107 -37 -142 0 -23 25 -24 32 -27 200 l-4 174 -45 0 -45 0
4 -194z"/>
<path d="M16190 1300 l0 -240 45 0 45 0 0 105 0 105 100 0 100 0 0 -105 0
-105 45 0 45 0 0 240 0 240 -45 0 -45 0 0 -90 0 -90 -100 0 -100 0 0 90 0 90
-45 0 -45 0 0 -240z"/>
<path d="M12450 1470 c0 -47 -2 -50 -25 -50 -22 0 -25 -4 -25 -35 0 -31 3 -35
25 -35 l25 0 0 -119 c0 -146 7 -159 93 -168 l57 -6 0 42 c0 39 -1 41 -30 41
l-30 0 0 105 0 105 30 0 c28 0 30 3 30 35 0 32 -2 35 -30 35 -29 0 -30 1 -30
50 l0 50 -45 0 -45 0 0 -50z"/>
<path d="M13650 1470 c0 -47 -2 -50 -25 -50 -22 0 -25 -4 -25 -35 0 -31 3 -35
25 -35 l25 0 0 -123 c0 -147 6 -158 95 -165 l55 -4 0 41 c0 39 -2 41 -30 41
l-30 0 0 105 0 105 30 0 c28 0 30 3 30 35 0 32 -2 35 -30 35 -29 0 -30 1 -30
50 l0 50 -45 0 -45 0 0 -50z"/>
<path d="M12149 1421 c-48 -15 -71 -33 -85 -66 -21 -50 -18 -55 29 -55 34 0
44 4 52 23 7 16 20 23 48 25 42 4 67 -11 67 -38 0 -20 -35 -34 -113 -45 -65
-9 -98 -39 -104 -96 -4 -38 -1 -50 21 -76 43 -51 132 -51 175 0 16 20 31 13
31 -14 0 -16 7 -19 51 -19 40 0 49 3 41 13 -6 6 -12 74 -14 149 -3 127 -5 138
-26 161 -35 37 -116 55 -173 38z m111 -216 c0 -57 -56 -91 -114 -69 -19 7 -22
59 -4 70 7 4 35 13 63 20 27 7 51 13 53 13 1 1 2 -15 2 -34z"/>
<path d="M12750 1421 c-82 -26 -114 -77 -115 -181 0 -52 6 -85 17 -107 33 -59
123 -93 196 -74 37 11 93 60 105 94 10 26 -73 24 -98 -3 -28 -31 -88 -27 -114
6 -12 15 -21 35 -21 45 0 18 10 19 121 19 l121 0 -4 55 c-7 86 -57 140 -138
149 -25 3 -56 1 -70 -3z m100 -91 c39 -39 27 -50 -55 -50 -41 0 -75 3 -75 6 0
11 23 49 34 56 22 15 76 8 96 -12z"/>
<path d="M13963 1421 c-82 -21 -123 -82 -123 -183 0 -119 61 -182 175 -182 78
0 125 27 154 88 43 87 17 213 -52 255 -38 23 -109 33 -154 22z m92 -77 c58
-23 58 -185 0 -208 -35 -13 -76 -6 -100 19 -21 20 -25 34 -25 85 0 51 4 65 25
85 24 25 65 32 100 19z"/>
<path d="M11510 1240 l0 -180 45 0 45 0 0 180 0 180 -45 0 -45 0 0 -180z"/>
<path d="M11880 1240 l0 -180 45 0 45 0 0 180 0 180 -45 0 -45 0 0 -180z"/>
</g>
</svg>
