<?xml version="1.0" standalone="no"?>
<!DOCTYPE svg PUBLIC "-//W3C//DTD SVG 20010904//EN"
 "http://www.w3.org/TR/2001/REC-SVG-20010904/DTD/svg10.dtd">
<svg version="1.0" xmlns="http://www.w3.org/2000/svg"
 width="343" height="343" viewBox="0 0 343.000000 343.000000"
 preserveAspectRatio="xMidYMid meet">

<g transform="translate(0.000000,343.000000) scale(0.100000,-0.100000)"
fill="#000000" stroke="none">
<path d="M1421 2964 c0 -11 3 -14 6 -6 3 7 2 16 -1 19 -3 4 -6 -2 -5 -13z"/>
<path d="M1440 2955 c0 -14 2 -25 4 -25 2 0 6 11 8 25 3 14 1 25 -3 25 -5 0
-9 -11 -9 -25z"/>
<path d="M1471 2953 c0 -25 1 -26 9 -8 12 27 12 35 0 35 -5 0 -10 -12 -9 -27z"/>
<path d="M1503 2960 c-1 -11 2 -20 8 -20 5 0 9 9 9 20 0 11 -4 20 -8 20 -4 0
-8 -9 -9 -20z"/>
<path d="M1532 2955 c0 -16 2 -22 5 -12 2 9 2 23 0 30 -3 6 -5 -1 -5 -18z"/>
<path d="M1634 2967 c-8 -9 -7 -16 2 -25 19 -18 24 -15 24 13 0 27 -9 31 -26
12z"/>
<path d="M1694 2958 c1 -13 7 -21 11 -20 4 2 12 -2 16 -10 6 -9 9 -2 9 20 0
25 -4 32 -20 32 -15 0 -19 -6 -16 -22z"/>
<path d="M1756 2964 c-8 -21 -8 -24 3 -24 5 0 12 8 14 18 3 9 5 2 6 -15 0 -18
6 -33 12 -33 6 0 8 7 5 16 -3 9 -6 24 -6 35 0 23 -25 25 -34 3z"/>
<path d="M1908 2950 c2 -16 6 -30 8 -30 2 0 4 14 4 30 0 17 -4 30 -8 30 -5 0
-7 -13 -4 -30z"/>
<path d="M1940 2960 c5 -10 6 -20 3 -24 -3 -3 -1 -6 6 -6 7 0 11 7 8 15 -4 8
-2 17 3 20 5 3 10 -5 12 -17 3 -22 4 -21 9 4 5 24 3 26 -22 26 -23 -1 -27 -4
-19 -18z"/>
<path d="M2037 2962 c5 -11 1 -13 -15 -7 -17 5 -22 2 -21 -12 0 -10 3 -13 6
-6 3 9 10 10 23 3 14 -8 19 -5 22 14 3 14 0 23 -8 23 -7 0 -10 -7 -7 -15z"/>
<path d="M2073 2955 c0 -14 4 -22 9 -19 6 4 14 0 19 -7 6 -10 9 -3 8 21 0 29
-2 31 -9 15 -7 -17 -9 -17 -9 -2 -1 27 -18 20 -18 -8z"/>
<path d="M1857 2950 c-3 -11 -1 -23 4 -26 5 -3 9 0 9 6 0 6 5 8 11 4 8 -4 8 0
0 15 -14 26 -17 26 -24 1z"/>
<path d="M1671 2934 c0 -11 3 -14 6 -6 3 7 2 16 -1 19 -3 4 -6 -2 -5 -13z"/>
<path d="M1034 2871 c4 -6 16 -11 26 -11 25 0 36 -18 16 -26 -9 -3 -16 -10
-16 -15 0 -4 13 -1 29 9 27 15 28 17 12 29 -26 18 -76 29 -67 14z"/>
<path d="M2442 2863 c-30 -15 -32 -17 -15 -26 10 -6 21 -15 25 -21 4 -6 10 -7
14 -3 4 4 -1 14 -12 21 -18 14 -18 15 6 24 14 5 34 12 45 15 17 4 16 5 -5 6
-14 0 -40 -7 -58 -16z"/>
<path d="M968 2863 c7 -3 16 -2 19 1 4 3 -2 6 -13 5 -11 0 -14 -3 -6 -6z"/>
<path d="M1341 2858 c1 -7 1 -29 0 -48 -1 -35 -2 -35 -48 -37 -51 -3 -74 -21
-66 -52 3 -11 -3 -31 -13 -46 l-18 -27 -23 26 c-15 18 -23 22 -23 12 0 -8 6
-19 13 -23 16 -11 38 -73 26 -73 -6 0 -7 -5 -4 -10 4 -6 -4 -19 -17 -30 -15
-13 -17 -18 -6 -14 12 4 21 -3 32 -25 9 -16 16 -36 16 -44 0 -25 74 -150 93
-155 12 -3 17 -15 17 -44 l0 -39 -42 3 c-37 3 -44 7 -48 28 -6 31 -60 100 -77
100 -29 0 -103 -128 -103 -179 -1 -34 -30 -98 -63 -137 -33 -39 -33 -47 -5
-74 17 -16 19 -23 10 -32 -7 -7 -12 -21 -12 -31 0 -17 -5 -18 -37 -12 -49 9
-59 19 -46 47 7 17 6 32 -3 53 -19 43 -18 48 19 86 l32 34 -27 3 c-34 4 -78
45 -79 74 -2 29 -2 25 6 78 6 41 4 46 -17 55 -19 8 -23 19 -25 55 -1 25 -5 69
-9 98 -6 47 -4 56 16 77 42 45 132 29 109 -19 -10 -20 -10 -20 5 -2 18 22 21
62 6 71 -5 3 -10 2 -10 -4 0 -5 -17 -10 -38 -9 -79 1 -122 -52 -103 -128 6
-23 11 -63 11 -89 0 -38 4 -47 23 -56 22 -10 23 -14 14 -64 -11 -66 9 -117 54
-135 35 -15 36 -20 4 -50 -23 -22 -23 -24 -10 -57 9 -22 13 -49 9 -73 -6 -35
-4 -38 27 -50 31 -11 32 -13 14 -20 -32 -14 -144 -11 -220 5 -38 8 -74 15 -78
15 -14 0 27 -48 56 -65 43 -26 41 -28 -58 -66 l-30 -12 50 -14 c130 -36 330
-25 445 25 l45 19 -65 32 c-36 18 -73 38 -84 46 -17 13 -17 16 -3 29 25 25 32
77 13 91 -22 17 -20 48 5 71 12 10 30 36 40 56 31 60 68 27 54 -48 -5 -30 -3
-35 20 -44 47 -18 81 -21 38 -3 -42 17 -43 18 -43 64 0 39 -5 51 -25 67 -27
22 -32 55 -13 97 14 30 24 32 33 5 3 -11 18 -25 33 -32 33 -16 52 -52 52 -99
0 -46 19 -63 60 -54 26 6 30 4 30 -14 0 -12 5 -21 10 -21 21 0 9 -36 -17 -47
-22 -11 -29 -10 -45 4 -10 9 -20 14 -23 11 -3 -3 4 -13 15 -23 18 -16 22 -16
57 -2 46 18 50 31 23 75 -17 28 -25 33 -45 28 -40 -10 -55 2 -55 46 0 41 -24
98 -41 98 -14 0 -59 50 -59 66 0 7 12 27 27 44 l26 32 33 -37 c18 -21 34 -49
36 -64 2 -21 9 -27 41 -32 47 -7 64 5 72 53 6 33 4 38 -22 51 -16 9 -40 38
-56 70 -26 51 -27 57 -14 84 8 15 24 58 37 96 20 62 41 97 58 97 4 0 6 -74 4
-165 -4 -187 5 -246 50 -336 55 -109 198 -240 329 -298 40 -18 45 -18 83 -4
110 43 240 153 302 254 66 109 74 150 74 361 0 103 3 188 8 188 19 -1 31 -20
56 -88 14 -40 33 -86 41 -103 15 -29 15 -32 -16 -89 -18 -32 -44 -63 -57 -69
-21 -10 -23 -15 -17 -54 4 -23 8 -43 9 -44 1 -1 21 -3 44 -4 46 -3 62 9 62 47
0 11 15 35 34 53 l34 33 26 -35 c25 -33 25 -35 10 -65 -8 -18 -20 -32 -25 -32
-6 0 -21 -11 -34 -25 -19 -18 -25 -35 -25 -69 0 -51 -17 -68 -61 -59 -22 4
-29 -1 -43 -28 -23 -45 -20 -55 16 -73 39 -20 47 -20 68 -1 9 8 41 23 71 34
l54 18 -3 50 c-3 35 1 53 12 62 17 14 36 7 36 -14 0 -7 16 -34 35 -59 37 -48
44 -76 21 -76 -19 0 -28 -28 -16 -50 27 -51 7 -51 -91 -1 l-75 38 -57 -28
c-147 -75 -321 -111 -537 -111 -213 0 -384 34 -531 106 l-66 33 -29 -24 c-16
-12 -50 -30 -76 -40 -27 -9 -48 -20 -48 -24 0 -11 131 -76 218 -108 45 -17 82
-28 82 -25 0 4 6 2 13 -4 16 -14 211 -50 314 -58 l82 -7 -3 57 c-3 61 10 73
37 34 l16 -23 0 23 c2 46 21 20 21 -28 0 -54 -9 -62 -32 -28 l-15 22 -5 -28
-6 -29 122 6 c113 6 223 21 234 32 3 3 -3 14 -13 25 -19 21 -40 17 -31 -6 3
-7 1 -16 -4 -19 -10 -6 -19 22 -23 70 -2 28 0 30 33 30 31 0 35 -3 35 -27 1
-14 6 -33 13 -40 6 -8 9 -18 5 -21 -22 -23 118 12 222 54 28 12 65 25 83 30
17 6 32 13 32 17 0 5 15 13 33 20 17 7 43 22 56 33 21 17 23 23 13 40 -16 25
-15 49 2 49 20 0 26 47 8 62 -34 28 -72 102 -72 140 0 58 -73 188 -106 188
-14 0 -78 -74 -80 -93 0 -7 -2 -17 -2 -23 -1 -7 -20 -12 -42 -12 -32 -1 -40 3
-40 18 0 10 -3 26 -6 35 -5 11 0 18 14 22 22 5 93 124 105 173 3 14 12 33 20
44 13 18 15 18 40 1 14 -9 30 -14 36 -11 5 3 12 0 14 -6 3 -7 6 -1 6 15 1 24
-1 26 -18 15 -16 -10 -26 -8 -55 7 -33 18 -34 20 -19 38 16 17 16 17 0 11 -18
-7 -24 11 -6 21 6 4 8 13 5 21 -3 7 3 19 13 26 17 13 36 38 28 38 -2 0 -17
-11 -33 -25 -26 -22 -29 -23 -38 -7 -6 9 -13 35 -16 57 -5 37 -7 40 -48 48
-30 6 -48 5 -58 -4 -12 -10 -14 -3 -14 45 0 31 -2 56 -4 56 -2 0 -26 -11 -53
-25 -100 -52 -198 -52 -307 0 l-53 25 -59 -27 c-51 -24 -71 -28 -154 -28 -85
0 -100 3 -144 28 -54 30 -68 33 -65 15z m471 -23 c113 -53 211 -54 310 -4 21
11 40 19 43 19 3 0 5 -123 5 -272 0 -292 -3 -316 -54 -416 -40 -80 -118 -165
-201 -221 -96 -64 -142 -79 -187 -60 -98 40 -222 139 -285 226 -79 111 -83
132 -83 458 0 157 2 285 5 285 3 0 25 -10 48 -22 35 -19 58 -23 137 -23 91 0
124 9 207 54 0 1 25 -10 55 -24z m-479 -105 c7 -29 5 -36 -16 -56 -14 -13 -31
-40 -37 -61 -7 -21 -21 -62 -32 -91 l-20 -53 -19 38 c-13 26 -16 39 -7 44 7 4
9 21 5 44 -5 30 -1 45 16 69 11 16 21 44 22 61 0 24 4 30 23 31 12 1 26 4 29
8 13 13 27 -1 36 -34z m901 33 c4 -4 17 -8 29 -8 18 0 22 -6 22 -30 1 -17 10
-46 21 -65 16 -27 19 -43 14 -68 -6 -24 -4 -35 5 -39 11 -4 10 -11 -3 -39 -9
-18 -20 -34 -23 -34 -3 0 -20 43 -39 95 -23 64 -40 97 -52 101 -14 4 -18 13
-15 38 5 48 22 68 41 49z m221 -533 c22 -42 19 -67 -10 -86 -21 -14 -25 -24
-25 -69 l0 -52 -47 -13 c-27 -7 -57 -21 -69 -32 -19 -17 -23 -17 -52 -2 -18 8
-32 17 -32 18 0 2 7 17 16 35 14 27 20 32 41 26 48 -12 63 1 63 57 0 43 4 54
31 79 17 16 35 29 39 29 4 0 10 9 13 20 7 27 14 25 32 -10z m-1240 -322 c20
-9 25 -18 23 -37 -2 -21 -8 -26 -32 -26 -16 0 -31 -6 -33 -12 -8 -24 -25 -13
-19 12 9 36 25 75 30 75 3 0 17 -5 31 -12z m1147 -35 c3 -27 3 -50 2 -52 -2
-2 -17 10 -33 28 -16 17 -33 31 -39 31 -18 0 -30 -25 -21 -45 11 -28 11 -55 0
-55 -5 0 -12 14 -16 31 -4 19 -15 33 -26 36 -31 8 -22 20 27 37 33 11 52 13
65 5 16 -8 19 -6 19 11 0 41 18 19 22 -27z m-1062 -50 l0 -57 -21 23 c-13 14
-27 20 -40 16 -25 -8 -24 0 7 41 39 51 54 45 54 -23z m108 -1 c2 -12 -2 -22
-9 -22 -7 0 -9 -10 -5 -30 7 -36 -11 -40 -24 -6 -13 34 -27 39 -35 13 -12 -42
-18 3 -5 48 l12 44 32 -13 c19 -7 32 -21 34 -34z m808 -7 c8 -24 10 -43 4 -49
-9 -9 -23 17 -36 71 -11 42 16 23 32 -22z m-48 16 c3 -9 -2 -12 -19 -7 -19 4
-19 3 3 -6 37 -16 44 -39 18 -60 -23 -19 -50 -14 -50 9 0 10 6 12 20 8 11 -4
20 -2 20 4 0 6 -8 11 -19 11 -29 0 -47 26 -31 45 15 19 51 16 58 -4z m-725
-42 c-8 -55 15 -50 32 7 9 29 14 35 19 23 4 -9 3 -32 -1 -50 -7 -26 -15 -35
-35 -37 -36 -4 -50 23 -37 72 13 48 29 37 22 -15z m90 -15 c-5 -30 -3 -36 16
-41 26 -7 28 -23 2 -23 -48 0 -57 27 -35 98 8 28 22 0 17 -34z m467 28 c0 -5
-12 -13 -27 -19 l-28 -11 28 -1 c31 -1 38 -21 7 -21 -11 0 -20 -4 -20 -10 0
-5 11 -10 25 -10 28 0 34 -15 9 -24 -40 -15 -53 -7 -60 40 -5 34 -3 48 7 55
18 11 59 12 59 1z m-353 -39 c-3 -48 26 -55 31 -8 5 46 22 55 22 11 0 -65 -35
-97 -68 -64 -20 20 -13 98 9 98 5 0 7 -17 6 -37z m263 -29 c-7 -24 -18 -44
-24 -44 -12 0 -46 66 -46 88 0 24 20 11 34 -20 8 -18 15 -28 15 -21 1 6 6 24
12 40 17 42 23 9 9 -43z m-80 6 c0 -27 -4 -50 -10 -50 -5 0 -10 23 -10 50 0
28 5 50 10 50 6 0 10 -22 10 -50z"/>
<path d="M1700 2793 c-75 -36 -175 -42 -252 -16 l-58 20 0 -248 c0 -282 3
-301 75 -409 48 -73 106 -126 198 -183 80 -49 99 -53 152 -33 103 40 218 153
277 274 l40 83 2 245 c0 135 -2 250 -5 255 -3 5 -26 2 -53 -7 -69 -24 -183
-15 -260 20 -32 14 -59 26 -60 25 0 0 -26 -12 -56 -26z m61 -154 c-1 -84 3
-160 8 -168 8 -12 14 -13 35 -3 22 10 26 18 26 57 0 31 -5 47 -15 51 -12 5
-10 10 9 25 29 23 36 24 36 4 0 -35 18 -10 35 48 9 34 19 68 21 75 5 17 24 15
24 -3 0 -8 11 -28 24 -43 13 -15 35 -40 50 -57 24 -29 25 -29 26 -7 0 15 6 22
19 22 19 0 31 -34 31 -87 0 -13 7 -35 16 -48 13 -19 15 -46 12 -128 -3 -95 -6
-109 -40 -178 -43 -87 -91 -146 -162 -198 -54 -40 -128 -81 -146 -81 -7 0 -10
85 -10 255 l0 255 -174 0 -174 0 -5 38 c-3 20 -6 97 -6 171 l0 133 37 -8 c20
-5 78 -9 127 -9 71 1 100 5 135 22 25 12 49 20 54 19 5 -1 8 -70 7 -157z
m-126 -267 c5 -12 16 -21 24 -19 10 1 18 -11 24 -34 7 -30 12 -36 28 -32 16 5
19 0 19 -32 0 -46 -26 -91 -59 -104 -14 -5 -52 -8 -83 -7 -74 2 -105 29 -114
100 -7 47 -6 49 14 44 18 -5 23 -1 28 20 11 51 13 53 39 46 18 -4 25 -2 25 8
0 18 21 39 35 35 5 -2 14 -13 20 -25z m-28 -264 c-3 -7 -5 -2 -5 12 0 14 2 19
5 13 2 -7 2 -19 0 -25z"/>
<path d="M1960 2613 c0 -7 5 -34 11 -62 10 -48 24 -60 65 -61 15 0 26 43 19
73 -7 26 -61 61 -71 45 -4 -6 -9 -5 -15 3 -6 10 -9 10 -9 2z"/>
<path d="M1890 2597 c0 -10 -7 -20 -15 -23 -19 -8 -19 -16 0 -61 12 -29 17
-33 30 -23 11 9 13 24 8 58 -6 47 -23 83 -23 49z"/>
<path d="M1945 2510 c3 -5 8 -10 11 -10 2 0 4 5 4 10 0 6 -5 10 -11 10 -5 0
-7 -4 -4 -10z"/>
<path d="M2070 2505 c0 -8 4 -15 10 -15 5 0 7 7 4 15 -4 8 -8 15 -10 15 -2 0
-4 -7 -4 -15z"/>
<path d="M1845 2490 c-3 -5 -1 -10 4 -10 6 0 11 5 11 10 0 6 -2 10 -4 10 -3 0
-8 -4 -11 -10z"/>
<path d="M1190 1880 c0 -5 7 -10 16 -10 8 0 12 5 9 10 -3 6 -10 10 -16 10 -5
0 -9 -4 -9 -10z"/>
<path d="M1358 1823 c6 -2 18 -2 25 0 6 3 1 5 -13 5 -14 0 -19 -2 -12 -5z"/>
<path d="M911 2826 c-30 -32 -39 -71 -29 -130 7 -44 38 -100 38 -68 0 7 -5 12
-11 12 -7 0 -9 10 -5 26 4 16 3 23 -3 19 -7 -3 -9 16 -8 54 2 47 8 65 27 86
13 14 21 25 18 25 -2 0 -15 -11 -27 -24z"/>
<path d="M972 2830 c0 -14 2 -19 5 -12 2 6 2 18 0 25 -3 6 -5 1 -5 -13z"/>
<path d="M2546 2835 c4 -8 8 -15 10 -15 2 0 4 7 4 15 0 8 -4 15 -10 15 -5 0
-7 -7 -4 -15z"/>
<path d="M2605 2832 c23 -28 28 -45 28 -99 0 -26 3 -40 10 -36 5 3 7 27 3 56
-4 38 -13 58 -33 77 -23 21 -24 21 -8 2z"/>
<path d="M1146 2824 c16 -13 16 -15 2 -10 -10 3 -20 0 -24 -6 -4 -6 -3 -8 4
-4 6 3 13 2 16 -3 4 -5 -2 -12 -11 -14 -14 -4 -14 -5 3 -6 21 -1 34 16 34 45
0 8 -10 14 -22 14 -21 0 -21 0 -2 -16z"/>
<path d="M2362 2813 c2 -22 9 -29 28 -30 23 -2 23 -2 5 6 -11 5 -14 10 -7 10
6 1 12 5 12 11 0 5 -7 7 -15 4 -8 -4 -15 -1 -15 4 0 6 8 13 18 15 12 3 11 5
-6 6 -20 1 -23 -3 -20 -26z"/>
<path d="M1002 2795 c0 -11 3 -29 8 -40 11 -25 11 1 0 35 -6 20 -8 21 -8 5z"/>
<path d="M2510 2801 c0 -6 5 -13 10 -16 6 -3 10 1 10 9 0 9 -4 16 -10 16 -5 0
-10 -4 -10 -9z"/>
<path d="M1070 2775 c0 -8 2 -15 4 -15 2 0 6 7 10 15 3 8 1 15 -4 15 -6 0 -10
-7 -10 -15z"/>
<path d="M2444 2770 c0 -13 4 -16 10 -10 7 7 7 13 0 20 -6 6 -10 3 -10 -10z"/>
<path d="M970 2759 c-13 -23 -6 -54 10 -44 5 3 10 11 10 16 0 6 -4 7 -10 4
-13 -8 -13 1 0 26 6 10 8 19 6 19 -3 0 -10 -9 -16 -21z"/>
<path d="M1130 2745 c0 -18 -41 -20 -58 -3 -9 9 -12 9 -12 -1 0 -8 -6 -11 -15
-7 -8 3 -15 2 -15 -3 0 -5 13 -11 29 -14 16 -3 42 -9 57 -12 19 -4 24 -3 16 3
-10 7 -10 11 3 22 17 14 20 30 5 30 -5 0 -10 -7 -10 -15z"/>
<path d="M2380 2745 c0 -8 7 -18 15 -21 8 -4 12 -10 9 -15 -3 -5 -4 -9 -2 -9
37 6 103 30 106 39 3 10 0 10 -17 2 -16 -9 -21 -9 -21 1 0 9 -3 9 -12 0 -14
-14 -72 -16 -63 -3 3 5 1 12 -5 16 -5 3 -10 -1 -10 -10z"/>
<path d="M2553 2733 c-7 -2 -13 -14 -13 -26 0 -18 -2 -19 -10 -7 -7 12 -10 8
-11 -15 0 -26 -2 -27 -9 -10 -8 19 -9 19 -9 -2 -1 -27 9 -29 29 -5 13 15 43
73 37 71 -1 0 -8 -3 -14 -6z"/>
<path d="M990 2675 c26 -27 40 -25 39 8 -1 20 -2 20 -9 -3 -5 -15 -8 -18 -9
-9 -1 9 -8 20 -17 23 -27 10 -28 7 -4 -19z"/>
<path d="M2625 2670 c3 -5 3 -15 -1 -21 -4 -8 -9 -7 -15 2 -7 11 -9 9 -9 -6 0
-11 -3 -38 -7 -60 -6 -39 -6 -40 14 -22 27 23 75 22 108 -5 25 -20 27 -25 20
-72 -3 -28 -6 -64 -6 -81 0 -50 -8 -73 -29 -80 -19 -6 -20 -12 -14 -78 5 -65
4 -74 -16 -95 -12 -12 -35 -25 -51 -29 -16 -3 -29 -8 -29 -11 0 -3 14 -20 31
-38 l30 -31 -17 -42 c-12 -31 -13 -45 -5 -55 16 -19 3 -46 -23 -47 -17 -1 -18
-2 -3 -6 29 -8 50 17 43 50 -3 16 -1 47 6 68 10 36 9 41 -13 66 -18 19 -21 27
-10 31 7 2 26 16 42 31 31 28 38 62 26 124 -7 34 -5 41 18 59 21 16 25 28 25
61 -1 23 2 66 6 94 5 41 3 58 -10 77 -17 27 -83 50 -110 40 -21 -8 -22 22 -1
42 17 18 20 44 4 44 -5 0 -7 -4 -4 -10z"/>
<path d="M1084 2547 c3 -10 6 -23 6 -27 0 -5 10 -7 21 -5 30 6 37 15 11 15
-11 0 -26 8 -32 18 -11 16 -11 16 -6 -1z"/>
<path d="M943 2525 c-6 -14 -7 -23 -2 -19 16 10 9 -59 -16 -156 -31 -119 -32
-156 -5 -165 30 -10 39 1 86 101 l44 94 -26 40 c-15 22 -29 57 -31 77 -4 39
-13 59 -13 30 0 -9 -6 -17 -14 -17 -9 0 -12 7 -9 20 7 28 0 25 -14 -5z m43
-57 c3 -13 15 -35 25 -50 11 -14 19 -34 19 -45 -1 -30 -84 -178 -100 -178 -24
0 -23 27 4 138 14 58 26 116 26 131 0 32 16 34 26 4z"/>
<path d="M2472 2530 c0 -14 2 -19 5 -12 2 6 2 18 0 25 -3 6 -5 1 -5 -13z"/>
<path d="M1012 2515 c0 -16 2 -22 5 -12 2 9 2 23 0 30 -3 6 -5 -1 -5 -18z"/>
<path d="M2570 2519 c-1 -23 -1 -23 -15 -5 -15 19 -18 15 -14 -19 0 -3 -14
-31 -31 -63 l-31 -57 40 -86 c44 -92 62 -115 86 -105 28 10 29 38 1 150 -14
61 -26 130 -25 154 1 23 -1 45 -4 49 -4 3 -7 -5 -7 -18z m24 -182 c21 -93 24
-122 15 -133 -9 -12 -15 -12 -27 -2 -17 15 -82 151 -82 174 0 7 12 36 28 64
32 58 29 62 66 -103z"/>
<path d="M850 2515 c-9 -11 -9 -22 0 -52 20 -60 23 -60 36 -8 9 35 10 53 2 62
-14 17 -23 16 -38 -2z m30 -24 c0 -11 -4 -23 -10 -26 -6 -4 -10 5 -10 19 0 14
5 26 10 26 6 0 10 -9 10 -19z"/>
<path d="M2647 2519 c-17 -10 -17 -14 0 -89 l6 -25 13 30 c15 33 18 81 6 89
-4 2 -15 0 -25 -5z m23 -28 c0 -11 -4 -23 -10 -26 -6 -4 -10 5 -10 19 0 14 5
26 10 26 6 0 10 -9 10 -19z"/>
<path d="M2500 2500 c-9 -6 -10 -10 -3 -10 6 0 15 5 18 10 8 12 4 12 -15 0z"/>
<path d="M2825 1874 c-33 -8 -108 -13 -166 -13 l-105 1 -84 -45 -84 -46 45
-19 c109 -47 292 -58 422 -26 l70 17 -48 18 c-27 10 -52 22 -57 27 -5 5 11 25
37 46 25 21 45 42 45 47 0 10 4 11 -75 -7z"/>
<path d="M2040 1785 c0 -9 6 -12 15 -9 8 4 15 10 15 15 0 5 -7 9 -15 9 -8 0
-15 -7 -15 -15z"/>
<path d="M1010 1482 c-6 -2 -10 -87 -10 -218 l0 -214 65 0 64 0 3 83 3 82 68
3 c106 4 151 36 161 116 6 47 -16 106 -47 126 -16 11 -62 16 -160 20 -75 3
-142 4 -147 2z m212 -99 c39 -35 8 -83 -54 -83 l-38 0 0 50 0 50 37 0 c20 0
45 -7 55 -17z"/>
<path d="M2400 1265 l0 -216 60 2 60 2 0 213 0 214 -60 0 -60 0 0 -215z"/>
<path d="M1441 1354 c-31 -16 -61 -58 -49 -69 2 -3 26 -8 51 -11 37 -5 52 -3
66 10 27 25 86 18 86 -9 0 -17 -14 -23 -88 -41 -48 -12 -97 -30 -107 -39 -20
-18 -26 -67 -14 -100 18 -45 134 -60 191 -25 32 19 33 19 43 0 8 -16 21 -20
58 -20 l48 0 -3 103 c-5 138 -9 160 -39 188 -23 21 -36 24 -117 27 -71 2 -100
-1 -126 -14z m159 -183 c0 -53 -77 -84 -101 -40 -13 26 -3 39 44 56 49 18 57
16 57 -16z"/>
<path d="M1780 1362 c-12 -2 -15 -27 -13 -145 1 -78 2 -148 2 -154 1 -9 19
-13 55 -13 l53 0 5 93 c6 114 17 137 62 137 30 0 36 5 49 38 17 42 10 52 -39
52 -18 0 -38 -8 -49 -20 -21 -23 -35 -26 -35 -6 0 13 -56 25 -90 18z"/>
<path d="M2024 1361 c-2 -2 -4 -53 -4 -113 0 -161 21 -198 114 -198 33 0 52 6
75 26 l31 26 0 -26 c0 -25 2 -26 55 -26 l55 0 0 155 0 155 -60 0 -60 0 0 -91
c0 -100 -10 -129 -43 -129 -40 0 -47 18 -47 122 0 86 -2 98 -17 99 -10 0 -35
1 -56 2 -21 1 -41 0 -43 -2z"/>
<path d="M533 885 c-2 -8 -3 -82 -1 -164 3 -165 12 -190 74 -220 41 -20 133
-18 171 4 58 34 68 65 71 223 2 78 1 149 -1 157 -4 8 -14 11 -26 8 -20 -5 -21
-13 -21 -127 0 -131 -10 -190 -34 -214 -8 -8 -39 -17 -69 -20 -46 -4 -57 -1
-83 21 l-29 25 -5 158 c-5 142 -7 157 -23 160 -10 1 -21 -4 -24 -11z"/>
<path d="M2466 892 c-3 -3 -6 -16 -6 -29 0 -18 5 -23 26 -23 22 0 25 4 22 27
-3 24 -28 40 -42 25z"/>
<path d="M1252 868 c2 -15 11 -24 26 -26 18 -3 22 1 22 22 0 21 -5 26 -26 26
-21 0 -25 -4 -22 -22z"/>
<path d="M2618 866 c-12 -8 -18 -27 -18 -50 0 -29 -4 -36 -20 -36 -11 0 -20
-7 -20 -15 0 -8 9 -15 20 -15 19 0 20 -7 20 -108 0 -127 11 -152 66 -152 27 0
34 4 34 19 0 13 -8 21 -22 23 -22 3 -23 8 -26 111 l-3 107 26 0 c16 0 25 6 25
15 0 9 -9 15 -25 15 -23 0 -25 3 -25 50 0 53 -4 58 -32 36z"/>
<path d="M1013 770 c-27 -16 -33 -17 -33 -5 0 22 -40 19 -41 -2 0 -16 0 -197
1 -250 0 -16 6 -23 19 -23 17 0 19 10 23 110 4 122 11 137 69 146 53 9 69 -12
70 -94 4 -168 2 -157 27 -160 22 -3 22 -2 22 120 -1 133 -6 149 -54 168 -40
15 -67 12 -103 -10z"/>
<path d="M1723 774 c-39 -19 -73 -84 -73 -137 0 -104 78 -169 176 -147 42 10
84 46 84 72 0 27 -35 22 -57 -7 -27 -38 -82 -44 -116 -14 -15 13 -30 39 -33
57 l-6 32 112 0 113 0 -7 41 c-9 54 -33 89 -73 105 -42 18 -80 17 -120 -2z
m115 -41 c12 -10 24 -31 28 -46 l6 -28 -83 3 c-78 3 -84 5 -81 23 10 57 86 85
130 48z"/>
<path d="M2053 768 c-20 -19 -23 -20 -23 -5 0 20 -40 24 -41 5 0 -20 -1 -252
0 -265 1 -7 10 -13 21 -13 18 0 20 7 20 83 0 108 13 155 45 163 14 3 31 4 39
1 9 -4 16 3 20 16 6 26 7 25 -30 32 -22 5 -34 1 -51 -17z"/>
<path d="M2214 776 c-34 -15 -44 -33 -44 -75 0 -38 24 -57 106 -84 55 -17 70
-26 72 -44 2 -15 -5 -27 -23 -39 -35 -23 -95 -10 -110 24 -6 13 -18 22 -32 22
-52 0 -2 -76 60 -89 104 -24 195 60 140 128 -10 12 -49 31 -87 44 -38 12 -74
29 -79 39 -30 47 75 69 114 24 23 -26 49 -24 49 4 0 46 -103 75 -166 46z"/>
<path d="M1250 635 l0 -145 25 0 25 0 0 145 0 145 -25 0 -25 0 0 -145z"/>
<path d="M1360 773 c0 -5 23 -70 52 -145 44 -118 54 -138 73 -138 18 0 29 20
73 135 29 74 52 140 52 146 0 6 -10 9 -22 7 -17 -2 -29 -24 -63 -116 l-41
-113 -39 116 c-35 101 -43 115 -62 115 -13 0 -23 -3 -23 -7z"/>
<path d="M2460 635 l0 -145 25 0 25 0 0 145 0 145 -25 0 -25 0 0 -145z"/>
<path d="M2730 773 c0 -3 23 -67 50 -140 28 -73 50 -141 50 -151 0 -32 -29
-62 -61 -62 -16 0 -29 -3 -29 -6 0 -18 24 -44 41 -44 42 0 73 51 137 222 34
92 62 172 62 178 0 5 -9 10 -19 10 -20 0 -23 -8 -78 -160 -9 -25 -19 -49 -23
-53 -4 -5 -25 42 -46 102 -34 98 -41 111 -61 111 -13 0 -23 -3 -23 -7z"/>
</g>
</svg>
