<?xml version="1.0" standalone="no"?>
<!DOCTYPE svg PUBLIC "-//W3C//DTD SVG 20010904//EN"
 "http://www.w3.org/TR/2001/REC-SVG-20010904/DTD/svg10.dtd">
<svg version="1.0" xmlns="http://www.w3.org/2000/svg"
 width="1000.000000pt" height="390.000000pt" viewBox="0 0 1000.000000 390.000000"
 preserveAspectRatio="xMidYMid meet">

<g transform="translate(0.000000,390.000000) scale(0.100000,-0.100000)"
fill="#000000" stroke="none">
<path d="M6610 3353 c-103 -17 -191 -77 -232 -158 -51 -98 -51 -100 -55 -752
l-5 -613 161 0 161 0 0 579 c0 570 0 579 21 605 26 34 59 33 91 -1 46 -50 166
-387 253 -709 58 -214 84 -284 133 -350 100 -136 350 -187 515 -106 41 21 82
51 110 82 80 88 77 62 77 777 l0 633 -155 0 -155 0 0 -560 c0 -608 -1 -617
-54 -641 -20 -10 -30 -9 -50 5 -14 9 -30 25 -36 36 -6 10 -67 205 -136 432
-134 444 -176 549 -248 626 -88 94 -247 140 -396 115z"/>
<path d="M8598 3325 c-32 -8 -79 -26 -106 -39 -81 -41 -103 -76 -165 -257 -30
-90 -134 -397 -231 -681 l-175 -518 172 0 172 0 200 562 c110 308 208 572 218
585 10 12 25 23 32 23 26 0 26 1 235 -660 34 -107 81 -256 105 -330 24 -74 47
-147 51 -162 l6 -28 175 0 c136 0 174 3 171 13 -3 6 -96 309 -207 672 -122
396 -212 675 -226 697 -54 81 -151 127 -285 134 -54 2 -106 -2 -142 -11z"/>
<path d="M3490 2575 l0 -755 154 0 154 0 4 223 c4 205 6 225 26 264 12 23 36
53 54 66 62 46 97 51 343 52 216 0 233 1 286 23 68 27 140 88 173 145 27 47
62 180 72 272 13 124 -38 267 -122 345 -53 49 -147 95 -223 110 -31 6 -234 10
-487 10 l-434 0 0 -755z m871 412 c89 -59 86 -172 -4 -227 -29 -18 -52 -20
-284 -20 l-253 0 0 135 0 135 254 0 c246 0 254 -1 287 -23z"/>
<path d="M5390 3321 c-190 -6 -197 -7 -255 -35 -255 -126 -304 -523 -92 -753
88 -96 188 -117 517 -108 246 6 285 -1 327 -64 44 -66 21 -166 -47 -206 -33
-19 -54 -20 -447 -23 l-413 -3 0 -149 0 -150 478 0 c456 0 479 1 521 21 107
48 201 150 244 267 29 78 31 270 4 350 -26 74 -88 162 -141 200 -87 63 -101
65 -441 70 -233 3 -316 7 -336 18 -52 27 -76 131 -45 193 33 62 24 61 491 61
l425 0 0 160 0 160 -297 -2 c-164 -1 -386 -4 -493 -7z"/>
<path d="M1010 2748 l0 -571 692 6 c380 4 798 7 929 7 l239 0 0 565 0 565
-930 0 -930 0 0 -572z m1714 522 c21 -8 26 -16 26 -45 0 -53 -20 -58 -185 -47
-77 6 -142 8 -145 5 -5 -4 -1 -135 5 -141 1 -1 50 20 110 48 59 27 109 50 111
50 2 0 4 -90 4 -200 l0 -200 -302 -1 -303 -1 60 -19 c33 -10 78 -19 100 -19
22 0 51 -7 63 -16 22 -15 22 -20 22 -221 l0 -206 -149 7 c-102 5 -151 4 -156
-3 -8 -14 -82 -14 -90 0 -5 7 -54 8 -156 3 l-149 -7 0 201 c0 231 -3 224 97
236 29 4 71 13 94 21 48 17 112 19 139 5 13 -7 27 -6 46 2 23 11 -35 14 -347
18 l-374 5 -3 144 -3 143 38 49 c41 54 58 62 119 57 l39 -3 5 -57 5 -56 100
59 c55 32 103 59 108 59 4 0 7 -27 7 -61 0 -45 3 -60 13 -56 6 2 55 32 107 66
l95 61 5 -75 5 -76 98 71 c53 38 99 70 102 70 3 0 5 -34 5 -75 l0 -75 104 75
c57 41 107 75 110 75 3 0 6 -34 6 -75 0 -41 4 -75 9 -75 22 0 31 34 32 129 1
124 9 136 96 146 32 4 63 8 68 10 23 8 186 4 209 -5z"/>
<path d="M1710 2101 c0 -59 15 -85 22 -39 2 17 12 24 33 28 25 4 30 10 30 35
0 28 -3 30 -42 33 l-43 3 0 -60z m68 27 c-3 -7 -13 -13 -23 -13 -10 0 -20 6
-22 13 -3 7 5 12 22 12 17 0 25 -5 23 -12z"/>
<path d="M1825 2140 c-9 -28 11 -50 47 -50 19 0 28 -4 25 -12 -2 -7 -17 -13
-33 -13 -41 0 -41 -19 0 -23 21 -2 40 3 50 13 9 9 16 12 16 6 0 -6 7 -11 15
-11 12 0 15 9 13 35 -3 45 9 55 22 19 16 -47 26 -59 46 -59 16 0 19 9 22 58 2
33 -1 57 -7 57 -5 0 -11 -21 -13 -47 l-3 -48 -14 30 c-24 55 -28 60 -46 63
-21 5 -35 -14 -35 -47 0 -18 -3 -21 -12 -13 -7 6 -26 12 -41 14 -41 5 -38 23
6 26 52 4 46 22 -7 22 -36 0 -46 -4 -51 -20z"/>
<path d="M2086 2114 c-9 -26 -16 -54 -16 -61 0 -26 19 -3 31 37 7 22 16 40 20
40 4 0 13 -17 19 -37 7 -21 16 -42 20 -46 16 -18 17 10 1 58 -12 37 -22 51
-37 53 -18 3 -25 -5 -38 -44z"/>
<path d="M737 2052 c-24 -25 -25 -30 -16 -71 14 -62 24 -79 32 -52 3 12 2 19
-3 16 -11 -7 -20 20 -20 59 0 32 18 57 50 69 13 5 13 6 -1 6 -8 1 -27 -11 -42
-27z"/>
<path d="M831 2056 c2 -2 15 -9 29 -15 24 -11 24 -11 6 3 -16 13 -49 24 -35
12z"/>
<path d="M3133 2024 c9 -17 24 -35 34 -38 17 -7 16 -5 -40 59 -5 6 -2 -4 6
-21z"/>
<path d="M2957 1988 c-31 -31 -31 -32 -2 -8 16 14 34 28 40 32 5 5 6 8 2 8 -4
0 -22 -15 -40 -32z"/>
<path d="M674 1978 l-19 -23 23 19 c21 18 27 26 19 26 -2 0 -12 -10 -23 -22z"/>
<path d="M1540 1975 c-22 -26 -8 -50 33 -53 22 -2 37 1 37 8 0 6 -10 8 -24 4
-13 -3 -27 -1 -31 6 -11 17 13 38 38 33 18 -4 19 -3 7 6 -21 15 -45 14 -60 -4z"/>
<path d="M1640 1975 c-19 -23 -8 -50 23 -53 27 -3 57 12 57 29 0 14 -31 39
-49 39 -10 0 -24 -7 -31 -15z m50 -26 c0 -23 -28 -26 -37 -3 -6 16 15 37 29
28 4 -3 8 -14 8 -25z"/>
<path d="M1740 1956 c0 -34 2 -36 33 -35 23 1 26 3 10 6 -16 3 -23 11 -23 28
0 13 -4 27 -10 30 -6 4 -10 -8 -10 -29z"/>
<path d="M1818 1984 c-5 -4 -8 -20 -8 -36 0 -25 3 -28 33 -27 22 1 25 3 10 6
-16 3 -23 13 -25 35 -2 16 -6 26 -10 22z"/>
<path d="M1890 1953 c0 -31 2 -33 33 -32 23 1 26 3 10 6 -13 2 -23 9 -23 14 0
5 10 9 23 10 21 1 21 1 -3 9 -24 8 -24 8 -2 9 12 1 22 6 22 11 0 6 -13 9 -30
8 -27 -2 -30 -6 -30 -35z"/>
<path d="M1986 1977 c-31 -22 -16 -52 27 -55 32 -3 37 0 37 17 0 13 -7 21 -16
21 -10 0 -14 -6 -10 -15 3 -9 0 -15 -10 -15 -19 0 -30 30 -14 40 7 4 21 5 33
2 14 -3 18 -1 13 6 -10 16 -38 15 -60 -1z"/>
<path d="M2080 1955 c0 -33 2 -35 33 -34 23 1 26 3 10 6 -13 2 -23 9 -23 14 0
5 10 9 23 10 21 1 21 1 -3 8 -24 7 -24 7 -5 19 19 11 18 11 -7 12 -25 0 -28
-3 -28 -35z"/>
<path d="M2216 1977 c-30 -22 -16 -52 23 -52 44 0 65 29 37 51 -24 17 -37 18
-60 1z m44 -28 c0 -23 -28 -26 -37 -3 -6 16 15 37 29 28 4 -3 8 -14 8 -25z"/>
<path d="M2306 1983 c-6 -7 7 -63 15 -63 5 0 9 5 9 10 0 6 7 10 15 10 21 0 19
18 -2 23 -17 4 -17 5 0 6 9 0 17 5 17 11 0 8 -46 11 -54 3z"/>
<path d="M946 1967 c3 -10 9 -15 12 -12 3 3 0 11 -7 18 -10 9 -11 8 -5 -6z"/>
<path d="M3200 1945 c13 -14 26 -25 28 -25 3 0 -5 11 -18 25 -13 14 -26 25
-28 25 -3 0 5 -11 18 -25z"/>
<path d="M790 1956 c0 -2 8 -10 18 -17 15 -13 16 -12 3 4 -13 16 -21 21 -21
13z"/>
<path d="M3084 1938 c-14 -17 -15 -20 -2 -9 9 7 22 10 27 6 7 -3 8 0 5 9 -8
20 -7 20 -30 -6z"/>
<path d="M3131 1929 c-7 -16 -11 -35 -8 -41 2 -7 9 4 16 25 16 46 10 57 -8 16z"/>
<path d="M629 1923 l-24 -28 28 24 c25 23 32 31 24 31 -2 0 -14 -12 -28 -27z"/>
<path d="M961 1922 c-1 -13 -10 -26 -23 -32 -13 -5 -17 -9 -10 -9 10 -1 10 -6
2 -21 -18 -33 -3 -22 20 15 12 19 19 43 17 52 -4 14 -5 12 -6 -5z"/>
<path d="M830 1925 c0 -7 61 -37 66 -33 2 3 -12 12 -31 21 -19 9 -35 15 -35
12z"/>
<path d="M3245 1890 c10 -11 20 -20 23 -20 3 0 -3 9 -13 20 -10 11 -20 20 -23
20 -3 0 3 -9 13 -20z"/>
<path d="M765 1881 c11 -13 33 -29 50 -37 18 -8 22 -9 11 -2 -10 7 -33 24 -50
38 -30 23 -30 24 -11 1z"/>
<path d="M584 1868 l-19 -23 23 19 c21 18 27 26 19 26 -2 0 -12 -10 -23 -22z"/>
<path d="M2926 1849 c8 -16 17 -29 20 -29 2 0 0 9 -6 19 -7 14 -6 21 2 23 7 3
3 7 -9 10 -22 6 -22 5 -7 -23z"/>
<path d="M1457 1863 c-4 -3 -7 -19 -7 -35 0 -26 3 -28 38 -27 23 1 28 3 15 6
-27 5 -30 20 -5 26 16 4 16 5 0 6 -26 2 -22 19 5 24 17 3 15 5 -9 6 -17 0 -34
-2 -37 -6z"/>
<path d="M1540 1835 c0 -35 20 -51 20 -17 1 16 1 16 14 0 23 -31 46 -22 46 17
0 38 -20 50 -21 13 l0 -23 -16 23 c-24 34 -43 28 -43 -13z"/>
<path d="M1657 1863 c-13 -3 -17 -12 -15 -31 3 -23 8 -27 41 -30 32 -3 37 0
37 17 0 13 -7 21 -16 21 -10 0 -14 -6 -10 -15 3 -9 0 -15 -10 -15 -19 0 -30
30 -14 40 7 4 21 5 33 2 14 -3 18 -1 13 6 -7 12 -26 14 -59 5z"/>
<path d="M1756 1857 c-10 -7 -17 -22 -15 -33 3 -15 14 -20 47 -22 38 -3 43 -1
40 15 -2 10 -12 19 -23 22 -17 3 -18 1 -6 -13 12 -14 11 -16 -7 -16 -24 0 -36
24 -18 39 6 6 23 8 37 5 19 -5 21 -3 9 5 -20 14 -42 14 -64 -2z"/>
<path d="M1937 1863 c-2 -5 -4 -20 -5 -35 -2 -25 1 -28 32 -28 25 0 35 5 39
20 5 20 -2 24 -38 20 -16 -2 -17 0 -6 14 11 13 11 16 -2 16 -9 0 -18 -3 -20
-7z m38 -43 c3 -5 -1 -10 -9 -10 -9 0 -16 5 -16 10 0 6 4 10 9 10 6 0 13 -4
16 -10z"/>
<path d="M2060 1860 c0 -5 5 -10 10 -10 6 0 10 -11 10 -25 0 -14 5 -25 10 -25
6 0 10 11 10 25 0 13 8 29 18 34 14 8 10 10 -20 11 -21 0 -38 -4 -38 -10z"/>
<path d="M2150 1835 c0 -33 2 -35 33 -34 23 1 26 3 10 6 -13 2 -23 9 -23 14 0
5 10 9 23 10 21 1 21 1 -3 9 l-25 7 25 11 c25 11 25 11 -7 11 -31 1 -33 -1
-33 -34z"/>
<path d="M2234 1856 c-11 -29 1 -51 30 -54 16 -2 34 2 40 8 8 8 3 11 -19 8
-24 -2 -30 1 -30 17 0 16 6 19 28 17 18 -2 26 1 22 7 -9 16 -65 13 -71 -3z"/>
<path d="M2330 1838 c0 -21 5 -38 10 -38 6 0 10 7 10 15 0 8 5 15 10 15 6 0
13 -7 16 -15 11 -27 24 -16 24 20 0 19 -4 35 -10 35 -5 0 -10 -7 -10 -15 0
-20 -20 -19 -36 3 -12 15 -13 13 -14 -20z"/>
<path d="M3285 1840 c10 -11 20 -20 23 -20 3 0 -3 9 -13 20 -10 11 -20 20 -23
20 -3 0 3 -9 13 -20z"/>
<path d="M544 1815 c-9 -14 -15 -27 -13 -30 3 -2 12 10 21 26 21 36 15 39 -8
4z"/>
<path d="M890 1805 c0 -2 18 -14 40 -25 50 -25 53 -19 4 9 -36 22 -44 24 -44
16z"/>
<path d="M2957 1791 c5 -19 7 -19 34 -5 16 8 29 17 29 20 0 2 -9 0 -21 -6 -15
-8 -24 -8 -34 0 -11 9 -12 7 -8 -9z"/>
<path d="M1600 1715 c0 -30 3 -35 24 -35 37 0 56 10 56 31 0 20 -28 39 -59 39
-17 0 -21 -6 -21 -35z m49 16 c17 -11 7 -41 -14 -41 -9 0 -15 9 -15 25 0 27 6
30 29 16z"/>
<path d="M1700 1715 c0 -19 5 -35 10 -35 6 0 10 16 10 35 0 19 -4 35 -10 35
-5 0 -10 -16 -10 -35z"/>
<path d="M1740 1715 c0 -38 20 -50 21 -12 l0 22 16 -22 c24 -36 43 -29 42 15
-1 23 -3 28 -6 15 -5 -28 -20 -30 -28 -3 -3 11 -15 20 -26 20 -15 0 -19 -7
-19 -35z"/>
<path d="M1850 1715 c0 -30 3 -35 24 -35 37 0 56 10 56 31 0 20 -28 39 -59 39
-17 0 -21 -6 -21 -35z m58 -4 c-5 -24 -38 -27 -38 -3 0 10 3 21 6 25 11 11 35
-5 32 -22z"/>
<path d="M1950 1715 c0 -19 5 -35 10 -35 6 0 10 16 10 35 0 19 -4 35 -10 35
-5 0 -10 -16 -10 -35z"/>
<path d="M2000 1735 c-21 -25 -8 -50 29 -53 20 -2 37 2 42 9 10 17 2 29 -18
29 -13 0 -13 -3 -3 -15 10 -13 9 -15 -8 -15 -27 0 -37 17 -21 36 7 9 20 12 32
8 13 -4 17 -2 13 5 -10 16 -51 14 -66 -4z"/>
<path d="M2102 1718 c3 -30 6 -33 38 -33 32 0 35 3 38 33 4 39 -15 44 -20 5
-2 -17 -10 -29 -20 -31 -14 -3 -18 3 -18 27 0 17 -5 31 -11 31 -6 0 -9 -14 -7
-32z"/>
<path d="M2200 1715 c0 -33 2 -35 33 -34 23 1 26 3 10 6 -18 3 -23 11 -23 34
0 16 -4 29 -10 29 -5 0 -10 -16 -10 -35z"/>
<path d="M1020 1735 c0 -2 23 -16 50 -30 28 -14 50 -23 50 -20 0 2 -22 16 -50
30 -27 14 -50 23 -50 20z"/>
<path d="M2864 1724 c-18 -14 -18 -15 4 -4 12 6 22 13 22 15 0 8 -5 6 -26 -11z"/>
<path d="M3316 1692 l-19 -27 24 22 c12 12 21 24 18 27 -2 2 -13 -8 -23 -22z"/>
<path d="M585 1670 c21 -22 41 -40 44 -40 3 0 -13 18 -34 40 -21 22 -41 40
-44 40 -3 0 13 -18 34 -40z"/>
<path d="M1130 1676 c0 -3 14 -12 30 -21 17 -9 30 -13 30 -11 0 3 -13 12 -30
21 -16 9 -30 13 -30 11z"/>
<path d="M2734 1654 c-18 -14 -18 -15 4 -4 12 6 22 13 22 15 0 8 -5 6 -26 -11z"/>
<path d="M3255 1629 c-59 -45 -67 -57 -13 -20 26 17 50 36 53 41 9 15 3 12
-40 -21z"/>
<path d="M1000 1602 c-14 -15 -21 -24 -16 -20 13 11 38 10 32 0 -3 -5 8 -21
24 -37 33 -32 35 -12 2 29 -25 33 -27 42 -9 49 6 3 8 6 2 6 -5 0 -21 -12 -35
-27z m45 -42 c10 -11 16 -20 13 -20 -3 0 -13 9 -23 20 -10 11 -16 20 -13 20 3
0 13 -9 23 -20z"/>
<path d="M2659 1609 l-24 -20 28 17 c15 9 27 18 27 20 0 8 -8 4 -31 -17z"/>
<path d="M1246 1598 c10 -14 21 -24 23 -22 3 3 -6 15 -18 27 l-24 22 19 -27z"/>
<path d="M670 1606 c0 -2 47 -34 105 -71 64 -41 105 -73 105 -83 0 -15 2 -15
10 -2 7 12 -11 28 -88 78 -109 71 -132 85 -132 78z"/>
<path d="M1150 1583 c13 -10 39 -31 58 -47 32 -28 33 -28 47 -10 8 11 14 24
14 29 0 6 -4 2 -10 -7 -13 -23 -28 -23 -53 1 -12 10 -34 26 -51 35 -30 17 -30
17 -5 -1z"/>
<path d="M2794 1584 c-19 -15 -19 -15 1 -6 11 5 27 12 35 15 13 5 13 6 -1 6
-8 1 -24 -6 -35 -15z"/>
<path d="M2880 1583 c0 -9 -12 -30 -27 -46 l-28 -30 27 17 c27 17 56 76 37 76
-5 0 -9 -8 -9 -17z"/>
<path d="M2910 1586 c0 -2 7 -9 15 -16 9 -7 15 -8 15 -2 0 5 -7 12 -15 16 -8
3 -15 4 -15 2z"/>
<path d="M2603 1555 c-3 -9 -3 -18 -1 -21 3 -3 8 4 11 16 6 23 -1 27 -10 5z"/>
<path d="M2739 1549 l-24 -20 28 17 c15 9 27 18 27 20 0 8 -8 4 -31 -17z"/>
<path d="M4940 1563 c-23 -8 -40 -34 -40 -60 0 -13 -4 -23 -10 -23 -5 0 -10
-13 -10 -30 0 -16 5 -30 10 -30 6 0 10 -40 10 -100 0 -93 1 -100 20 -100 19 0
20 7 20 100 0 93 1 100 20 100 16 0 20 7 20 30 0 23 -4 30 -20 30 -26 0 -26
26 1 33 15 4 20 12 17 28 -3 24 -14 30 -38 22z"/>
<path d="M5727 1564 c-4 -4 -7 -20 -7 -36 0 -21 5 -28 20 -28 11 0 23 7 27 16
10 27 -22 65 -40 48z"/>
<path d="M6567 1563 c-4 -3 -7 -19 -7 -35 0 -21 5 -28 19 -28 24 0 37 36 21
55 -14 16 -23 19 -33 8z"/>
<path d="M3095 1523 c-33 -20 -71 -45 -84 -55 -13 -10 -27 -15 -32 -12 -5 3
-9 0 -9 -5 0 -18 11 -13 87 37 39 26 80 52 90 59 10 6 16 12 13 12 -3 1 -32
-16 -65 -36z"/>
<path d="M3398 1545 c-37 -21 -59 -66 -65 -137 -13 -136 79 -231 161 -167 30
23 33 41 11 59 -13 10 -19 10 -33 -4 -44 -39 -84 -2 -90 84 -7 93 36 136 98
98 16 -10 23 -10 36 3 14 15 13 18 -8 43 -29 32 -74 41 -110 21z"/>
<path d="M3788 1549 c-16 -9 -18 -28 -18 -164 0 -148 1 -155 20 -155 18 0 20
7 20 83 0 45 3 119 7 165 6 83 3 90 -29 71z"/>
<path d="M3882 1544 c-21 -14 -22 -21 -22 -165 l0 -149 25 0 25 0 0 165 c0 91
-1 165 -3 165 -1 0 -13 -7 -25 -16z"/>
<path d="M7213 1550 c-41 -17 -55 -72 -29 -119 12 -21 11 -28 -5 -55 -23 -37
-24 -77 -4 -115 22 -44 74 -55 119 -26 21 14 24 14 36 0 12 -14 70 -22 70 -9
0 3 -11 21 -24 41 -19 28 -23 41 -15 60 5 13 9 38 9 54 0 24 -4 29 -25 29 -20
0 -25 -5 -25 -23 0 -13 -3 -27 -6 -30 -9 -8 -94 101 -94 120 0 22 31 28 46 9
16 -22 54 -12 54 14 0 21 -45 60 -69 59 -9 0 -26 -4 -38 -9z m47 -220 c23 -33
20 -50 -10 -50 -24 0 -43 34 -35 60 9 28 20 25 45 -10z"/>
<path d="M8138 1549 c-16 -9 -18 -28 -18 -164 l0 -155 25 0 c25 0 25 1 25 89
0 66 4 92 15 101 12 10 18 10 30 0 11 -9 15 -35 15 -101 0 -88 0 -89 25 -89
25 0 25 1 25 88 0 63 -5 97 -18 122 -15 31 -21 35 -54 34 l-38 -1 0 43 c0 46
-4 50 -32 33z"/>
<path d="M8748 1549 c-16 -9 -18 -28 -18 -164 0 -148 1 -155 20 -155 19 0 20
7 20 165 0 91 -1 165 -2 165 -2 0 -11 -5 -20 -11z"/>
<path d="M939 1533 c-13 -16 -12 -17 4 -4 9 7 17 15 17 17 0 8 -8 3 -21 -13z"/>
<path d="M5120 1390 l0 -160 75 0 c73 0 75 1 75 25 0 23 -3 25 -51 25 l-50 0
3 43 c3 38 6 42 31 45 21 3 27 9 27 28 0 20 -5 24 -30 24 -28 0 -30 2 -30 40
l0 40 50 0 c47 0 50 2 50 25 0 24 -2 25 -75 25 l-75 0 0 -160z"/>
<path d="M7530 1526 c0 -21 6 -25 33 -28 l32 -3 3 -132 3 -133 24 0 25 0 0
135 0 135 35 0 c31 0 35 3 35 25 0 25 0 25 -95 25 -94 0 -95 0 -95 -24z"/>
<path d="M1085 1522 c1 -10 9 -16 20 -14 11 2 14 -1 9 -9 -4 -8 -3 -10 4 -5
16 10 15 11 -12 29 -22 15 -24 15 -21 -1z"/>
<path d="M2685 1510 c-11 -12 -25 -18 -34 -15 -11 4 -10 0 4 -15 17 -19 17
-20 0 -20 -10 0 -16 -3 -12 -6 3 -3 15 -3 27 1 16 5 19 10 11 18 -8 8 -5 17
11 34 12 13 19 23 16 23 -3 0 -13 -9 -23 -20z"/>
<path d="M909 1493 c-13 -16 -12 -17 4 -4 9 7 17 15 17 17 0 8 -8 3 -21 -13z"/>
<path d="M1135 1491 c-5 -9 65 -44 73 -36 3 3 0 5 -7 5 -7 0 -10 4 -7 8 3 4
-8 13 -25 19 -16 6 -31 8 -34 4z"/>
<path d="M3597 1462 c-38 -42 -48 -126 -23 -187 26 -61 80 -72 119 -25 45 54
44 163 -4 211 -24 24 -71 25 -92 1z m73 -61 c24 -46 5 -121 -31 -121 -20 0
-39 34 -39 70 0 60 47 94 70 51z"/>
<path d="M4002 1473 c-33 -13 -56 -104 -43 -173 15 -73 72 -102 122 -61 20 16
21 21 10 35 -9 10 -22 14 -37 10 -24 -6 -54 9 -54 27 0 5 28 9 61 9 l61 0 -4
54 c-6 73 -29 106 -71 105 -17 0 -38 -3 -45 -6z m56 -55 c23 -23 14 -43 -20
-42 -37 1 -46 15 -23 38 20 19 27 20 43 4z"/>
<path d="M4189 1453 c-21 -22 -24 -34 -24 -105 0 -76 1 -81 29 -105 19 -16 37
-23 53 -20 28 5 30 -6 3 -33 -38 -38 -17 -89 22 -54 41 38 48 67 48 208 l0
135 -54 0 c-45 0 -58 -5 -77 -26z m75 -39 c19 -19 22 -104 4 -122 -17 -17 -45
-15 -52 4 -10 27 -6 110 6 122 16 16 23 15 42 -4z"/>
<path d="M4405 1463 c-52 -52 -45 -215 10 -237 31 -11 62 -6 80 14 24 27 5 51
-35 44 -22 -5 -31 -1 -39 15 -11 20 -10 21 49 21 l60 0 0 48 c0 68 -29 112
-74 112 -19 0 -42 -7 -51 -17z m63 -46 c23 -27 17 -39 -16 -41 -41 -1 -49 9
-26 35 20 22 28 24 42 6z"/>
<path d="M4726 1465 c-71 -71 -42 -245 41 -245 75 0 112 153 55 229 -23 31
-72 39 -96 16z m77 -79 c13 -40 -7 -106 -33 -106 -36 0 -54 76 -29 121 15 29
50 21 62 -15z"/>
<path d="M5320 1354 c0 -117 1 -124 20 -124 18 0 20 7 20 89 0 92 11 118 43
105 13 -5 17 -25 19 -102 3 -92 4 -97 26 -100 22 -3 22 -2 22 100 0 140 -7
153 -88 155 l-62 1 0 -124z"/>
<path d="M5547 1462 c-27 -31 -37 -60 -37 -107 0 -83 42 -145 91 -132 26 7 25
-19 -1 -35 -36 -23 -19 -79 17 -59 41 21 53 70 53 214 l0 134 -54 1 c-39 0
-59 -4 -69 -16z m67 -48 c19 -19 22 -104 4 -122 -23 -23 -47 -14 -56 22 -12
42 -5 87 16 104 20 15 17 15 36 -4z"/>
<path d="M5720 1355 c0 -118 1 -125 20 -125 19 0 20 7 20 125 0 118 -1 125
-20 125 -19 0 -20 -7 -20 -125z"/>
<path d="M5815 1472 c-3 -3 -5 -59 -5 -124 l0 -118 25 0 c25 0 25 1 25 89 0
66 4 92 15 101 30 25 44 -5 47 -103 3 -84 5 -92 23 -92 18 0 20 8 23 92 2 64
-2 103 -12 127 -14 35 -15 35 -75 34 -33 0 -63 -3 -66 -6z"/>
<path d="M6041 1455 c-25 -33 -35 -82 -28 -143 8 -76 71 -114 125 -77 32 23
11 52 -37 51 -26 -1 -36 4 -39 17 -3 15 5 17 59 17 l62 0 -6 52 c-9 69 -33
102 -79 106 -29 2 -40 -2 -57 -23z m79 -45 c15 -28 6 -37 -30 -32 -31 4 -38
20 -18 40 18 18 36 15 48 -8z"/>
<path d="M6262 1473 c-31 -12 -56 -101 -46 -164 13 -76 86 -116 129 -69 24 26
5 53 -31 44 -24 -6 -54 9 -54 27 0 5 27 9 60 9 l60 0 0 39 c0 94 -49 142 -118
114z m56 -55 c23 -23 14 -43 -20 -42 -37 1 -46 15 -23 38 20 19 27 20 43 4z"/>
<path d="M6426 1473 c-3 -4 -6 -60 -6 -125 l0 -118 25 0 c25 0 25 0 25 95 0
56 4 96 10 96 6 1 16 2 23 3 6 0 13 13 15 28 3 25 1 26 -42 26 -24 0 -47 -2
-50 -5z"/>
<path d="M6560 1355 c0 -115 1 -125 19 -125 23 0 30 49 23 168 -4 72 -7 82
-23 82 -18 0 -19 -10 -19 -125z"/>
<path d="M6650 1354 l0 -124 25 0 c25 0 25 1 25 89 0 66 4 92 15 101 12 10 18
10 30 0 11 -9 15 -35 15 -101 0 -88 0 -89 25 -89 25 0 25 1 25 89 0 97 -13
148 -38 155 -10 2 -41 4 -69 4 l-53 1 0 -125z"/>
<path d="M6880 1458 c-25 -27 -34 -74 -28 -140 6 -61 44 -103 85 -95 28 5 30
-6 3 -33 -23 -23 -27 -70 -7 -70 18 0 53 39 66 73 6 16 11 86 11 157 l0 129
-55 0 c-44 0 -60 -5 -75 -21z m78 -107 c-3 -62 -4 -66 -27 -66 -19 0 -27 7
-33 30 -17 61 11 122 49 108 10 -4 13 -23 11 -72z"/>
<path d="M7772 1473 c-24 -9 -45 -68 -45 -123 0 -108 61 -163 124 -111 20 16
21 21 10 35 -9 10 -22 14 -37 10 -24 -6 -54 9 -54 27 0 5 27 9 60 9 l60 0 0
39 c0 94 -49 142 -118 114z m56 -56 c23 -27 18 -40 -17 -40 -40 -1 -49 13 -26
37 20 19 29 20 43 3z"/>
<path d="M7967 1462 c-38 -42 -48 -126 -23 -187 23 -55 74 -71 117 -36 23 19
24 20 5 34 -11 8 -28 12 -38 9 -31 -8 -48 16 -48 69 0 52 18 80 48 72 10 -2
24 3 31 11 32 38 -58 66 -92 28z"/>
<path d="M8322 1351 c3 -118 4 -126 23 -126 18 0 20 8 23 97 2 77 6 97 19 102
33 13 43 -13 43 -111 0 -92 1 -94 23 -91 20 3 22 9 25 73 4 87 -5 150 -24 169
-9 10 -34 15 -74 14 l-61 -1 3 -126z"/>
<path d="M8550 1455 c-19 -20 -25 -40 -28 -89 -6 -96 34 -157 94 -142 75 19
89 200 20 248 -23 16 -63 7 -86 -17z m84 -72 c13 -46 -3 -97 -32 -101 -24 -4
-42 28 -42 74 0 68 56 88 74 27z"/>
<path d="M8858 1463 c-42 -49 -51 -132 -20 -193 47 -95 144 -45 145 76 0 63
-20 117 -48 128 -30 11 -62 6 -77 -11z m72 -62 c24 -46 5 -121 -31 -121 -20 0
-39 34 -39 70 0 60 47 94 70 51z"/>
<path d="M9072 1473 c-38 -14 -57 -123 -33 -196 14 -42 42 -61 77 -53 29 8 31
-8 4 -31 -20 -17 -28 -73 -11 -73 21 0 61 44 71 78 5 20 10 92 10 159 l0 122
-52 -1 c-29 0 -59 -2 -66 -5z m56 -52 c9 -5 12 -27 10 -72 -3 -58 -5 -64 -25
-67 -40 -6 -58 82 -27 126 17 24 22 26 42 13z"/>
<path d="M9220 1474 c0 -3 14 -59 30 -125 25 -100 29 -126 20 -157 -15 -55
-13 -72 10 -72 22 0 24 7 70 204 36 155 36 158 8 154 -19 -3 -25 -13 -37 -75
-7 -40 -17 -71 -21 -68 -3 2 -12 36 -19 75 -12 64 -15 70 -37 70 -13 0 -24 -3
-24 -6z"/>
<path d="M1250 1435 c19 -7 42 -13 50 -13 8 0 -1 6 -20 13 -19 7 -42 13 -50
13 -8 0 1 -6 20 -13z"/>
<path d="M2578 1433 c7 -3 16 -2 19 1 4 3 -2 6 -13 5 -11 0 -14 -3 -6 -6z"/>
<path d="M2508 1413 c7 -3 16 -2 19 1 4 3 -2 6 -13 5 -11 0 -14 -3 -6 -6z"/>
<path d="M2620 1403 c-19 -8 -37 -17 -39 -19 -4 -3 52 -131 66 -153 6 -9 85
34 94 50 18 35 10 79 -20 110 -33 32 -50 34 -101 12z m79 -39 c25 -32 26 -51
4 -76 -25 -28 -37 -22 -62 29 -22 45 -22 48 -5 60 26 19 40 16 63 -13z"/>
<path d="M1150 1401 c0 -5 10 -15 21 -23 l21 -14 -31 -62 c-27 -53 -29 -63
-16 -68 9 -4 17 -5 18 -3 2 2 14 28 27 57 28 62 33 66 59 53 14 -8 20 -7 24 4
4 10 -11 22 -50 39 -60 28 -73 31 -73 17z"/>
<path d="M863 1365 c0 -22 2 -30 4 -17 2 12 2 30 0 40 -3 9 -5 -1 -4 -23z"/>
<path d="M2290 1335 c-14 -8 -20 -14 -15 -14 6 0 21 6 35 14 14 8 21 14 15 14
-5 0 -21 -6 -35 -14z"/>
<path d="M1265 1268 c-18 -40 -31 -76 -29 -80 10 -16 24 -7 40 23 19 38 34 28
49 -34 7 -24 18 -43 27 -45 13 -2 14 4 8 36 -6 36 -5 40 22 50 22 8 28 16 28
41 0 25 -7 34 -43 56 -24 14 -49 25 -56 25 -7 0 -27 -33 -46 -72z m90 20 c33
-15 29 -44 -5 -40 -31 3 -44 16 -37 36 8 19 9 19 42 4z"/>
<path d="M2454 1317 c-72 -62 8 -184 94 -143 41 20 56 57 42 102 -22 64 -86
83 -136 41z m95 -38 c18 -32 8 -75 -20 -84 -45 -15 -91 69 -57 103 20 20 61
10 77 -19z"/>
<path d="M2208 1294 c-38 -20 -36 -28 2 -9 17 9 30 18 30 20 0 7 -1 6 -32 -11z"/>
<path d="M880 1297 c0 -2 15 -16 33 -33 l32 -29 -29 33 c-28 30 -36 37 -36 29z"/>
<path d="M1620 1296 c0 -3 9 -10 20 -16 11 -6 20 -8 20 -6 0 3 -9 10 -20 16
-11 6 -20 8 -20 6z"/>
<path d="M2954 1268 l-29 -33 33 29 c30 28 37 36 29 36 -2 0 -16 -15 -33 -32z"/>
<path d="M9402 1288 c-15 -15 -16 -45 -1 -54 6 -3 8 -15 6 -26 -4 -12 -1 -18
6 -15 7 2 16 20 21 41 8 28 6 40 -5 51 -12 12 -17 13 -27 3z"/>
<path d="M1437 1214 c-34 -69 -34 -97 0 -124 45 -35 72 -24 111 44 30 55 35
86 14 86 -5 0 -19 -23 -32 -50 -30 -64 -42 -75 -69 -60 -27 14 -26 27 4 84 29
54 30 62 12 69 -9 3 -23 -14 -40 -49z"/>
<path d="M1670 1266 c0 -3 9 -10 20 -16 11 -6 20 -8 20 -6 0 3 -9 10 -20 16
-11 6 -20 8 -20 6z"/>
<path d="M2144 1254 c-18 -14 -18 -15 4 -4 12 6 22 13 22 15 0 8 -5 6 -26 -11z"/>
<path d="M2305 1249 c-55 -31 -62 -94 -16 -140 33 -33 60 -36 100 -13 45 27
54 49 33 83 -17 29 -18 29 -48 12 -17 -9 -29 -22 -27 -28 3 -9 10 -10 23 -3
27 14 36 -6 14 -31 -24 -26 -49 -24 -73 7 -37 47 -22 89 31 89 23 0 33 5 33
15 0 19 -43 24 -70 9z"/>
<path d="M1739 1222 c14 -11 38 -27 55 -37 l31 -17 -24 20 c-14 11 -38 27 -55
37 l-31 17 24 -20z"/>
<path d="M2890 1225 c-14 -8 -20 -14 -14 -15 5 0 19 7 30 15 24 18 16 19 -16
0z"/>
<path d="M2039 1183 c-13 -16 -12 -17 4 -4 16 13 21 21 13 21 -2 0 -10 -8 -17
-17z"/>
<path d="M1598 1146 c-9 -22 -6 -30 22 -66 22 -28 29 -45 22 -52 -14 -14 -52
8 -52 31 0 24 -29 36 -36 16 -7 -19 19 -60 47 -75 31 -17 62 -8 79 22 14 26
13 29 -18 61 -37 38 -41 57 -12 57 13 0 24 -10 30 -25 12 -32 30 -32 30 -1 0
53 -90 78 -112 32z"/>
<path d="M1975 1135 c-21 -18 -43 -31 -49 -28 -5 3 -6 1 -2 -6 5 -8 19 -2 47
19 34 28 56 51 47 50 -2 -1 -21 -16 -43 -35z"/>
<path d="M2121 1151 c-10 -7 -8 -18 14 -55 31 -52 26 -55 -30 -21 -40 25 -70
32 -78 18 -3 -5 14 -40 37 -80 30 -52 45 -70 55 -64 10 7 7 19 -15 56 -15 26
-23 46 -18 44 5 -2 32 -16 61 -31 75 -40 82 -22 29 69 -30 52 -45 70 -55 64z"/>
<path d="M2620 1130 c-8 -5 -10 -10 -5 -10 6 0 17 5 25 10 8 5 11 10 5 10 -5
0 -17 -5 -25 -10z"/>
<path d="M1746 1103 c-4 -4 3 -15 15 -23 l21 -17 -31 -60 c-28 -56 -30 -73 -9
-73 4 0 22 25 39 56 30 52 33 55 61 48 46 -10 31 16 -28 48 -54 30 -57 31 -68
21z"/>
<path d="M2488 1064 c-27 -13 -48 -27 -48 -29 0 -3 23 6 50 20 28 14 50 28 50
30 0 7 1 7 -52 -21z"/>
<path d="M1350 1075 c0 -2 23 -16 50 -30 28 -14 50 -23 50 -20 0 2 -22 16 -50
30 -27 14 -50 23 -50 20z"/>
<path d="M1965 1060 c-10 -17 74 -150 91 -143 18 7 19 2 -31 86 -39 67 -48 76
-60 57z"/>
<path d="M2358 994 c-27 -13 -48 -27 -48 -29 0 -3 23 6 50 20 28 14 50 28 50
30 0 7 1 7 -52 -21z"/>
<path d="M5173 1013 c-16 -6 -17 -59 -1 -69 10 -6 38 20 38 36 0 14 -26 37
-37 33z"/>
<path d="M5672 1008 c-16 -16 -15 -43 1 -57 16 -13 37 4 37 30 0 25 -24 41
-38 27z"/>
<path d="M1480 1005 c0 -2 18 -14 40 -25 22 -11 40 -18 40 -15 0 2 -18 14 -40
25 -22 11 -40 18 -40 15z"/>
<path d="M5588 996 c-10 -7 -18 -26 -18 -43 0 -28 -2 -30 -36 -29 -29 1 -41
-5 -57 -27 -29 -38 -35 -139 -10 -187 17 -34 20 -35 81 -37 l62 -1 0 169 c0
93 -1 169 -2 169 -2 0 -11 -7 -20 -14z m-28 -145 c15 -29 12 -97 -5 -111 -22
-19 -48 -8 -57 25 -19 69 32 141 62 86z"/>
<path d="M4920 836 l0 -166 48 0 c29 0 59 7 79 20 82 50 95 193 24 272 -24 27
-36 32 -90 36 l-61 4 0 -166z m105 98 c23 -9 45 -57 45 -99 0 -63 -33 -104
-82 -105 l-28 0 0 105 c0 104 0 105 24 105 13 0 32 -3 41 -6z"/>
<path d="M6171 986 c-8 -9 -11 -61 -9 -162 3 -141 4 -149 23 -149 19 0 20 8
23 163 2 134 0 162 -12 162 -7 0 -19 -6 -25 -14z"/>
<path d="M6642 984 c-42 -29 -66 -92 -66 -176 -1 -63 3 -81 20 -105 30 -40 84
-44 113 -7 38 48 22 170 -24 188 -9 3 -28 3 -42 0 -23 -6 -24 -5 -14 15 7 11
23 28 37 37 16 11 24 24 22 37 -4 27 -18 31 -46 11z m44 -180 c14 -55 -23
-102 -54 -70 -21 21 -19 76 2 92 23 17 45 8 52 -22z"/>
<path d="M6792 980 c-21 -20 -21 -22 -5 -46 14 -22 18 -23 25 -10 5 9 22 16
38 16 48 0 41 -41 -18 -98 -48 -47 -62 -79 -62 -143 l0 -29 80 0 80 0 0 30 c0
30 -1 30 -55 30 -32 0 -55 4 -55 11 0 5 23 35 51 64 63 66 76 121 39 168 -27
34 -85 38 -118 7z"/>
<path d="M7063 988 c-32 -40 -104 -191 -101 -210 3 -20 10 -23 56 -26 l52 -3
0 -40 c0 -32 3 -39 20 -39 17 0 20 7 20 40 0 29 4 40 15 40 10 0 15 10 15 29
0 16 -6 31 -15 35 -12 4 -15 25 -15 96 0 81 -2 90 -19 90 -10 0 -23 -6 -28
-12z m7 -133 c0 -41 -2 -45 -25 -45 -14 0 -25 4 -25 9 0 11 40 81 46 81 2 0 4
-20 4 -45z"/>
<path d="M7350 971 c-37 -36 -64 -127 -58 -193 7 -65 34 -102 80 -106 52 -5
78 32 78 110 0 50 -4 63 -26 84 -18 19 -31 24 -50 20 -35 -9 -31 18 6 46 18
13 30 31 30 45 0 32 -25 29 -60 -6z m54 -157 c20 -53 -8 -104 -46 -83 -18 10
-26 78 -11 92 12 13 51 7 57 -9z"/>
<path d="M7515 980 c-15 -17 -16 -24 -6 -46 11 -25 13 -25 30 -10 23 20 57 21
65 0 9 -23 10 -22 -43 -73 -49 -47 -71 -94 -71 -153 l0 -28 80 0 80 0 0 30 c0
30 -1 30 -54 30 -50 0 -54 2 -49 21 3 11 21 32 40 47 42 33 63 71 63 112 0 33
-15 70 -34 82 -23 16 -83 8 -101 -12z"/>
<path d="M7715 980 c-15 -17 -16 -24 -6 -46 11 -25 13 -25 30 -10 20 18 57 21
66 5 12 -19 -4 -54 -33 -73 -45 -29 -70 -75 -74 -131 l-3 -50 78 -3 77 -3 0
31 c0 29 -1 30 -50 30 -38 0 -50 4 -50 15 0 8 23 37 50 65 47 47 50 54 50 100
0 37 -5 55 -20 70 -27 27 -90 27 -115 0z"/>
<path d="M2248 934 c-27 -13 -48 -27 -48 -29 0 -3 23 6 50 20 28 14 50 28 50
30 0 7 1 7 -52 -21z"/>
<path d="M5160 799 c0 -130 0 -130 23 -127 21 3 22 8 23 98 2 127 -3 160 -27
160 -18 0 -19 -9 -19 -131z"/>
<path d="M5260 924 c-1 -2 -1 -59 -1 -126 0 -116 1 -123 20 -126 19 -3 20 2
23 95 3 97 3 98 28 98 25 0 25 -1 28 -98 3 -95 3 -98 25 -95 21 3 22 9 25 97
3 105 -9 149 -42 155 -27 5 -106 5 -106 0z"/>
<path d="M5665 918 c-3 -8 -4 -66 -3 -129 3 -106 4 -114 23 -114 19 0 20 7 20
125 0 111 -2 125 -18 128 -9 2 -19 -3 -22 -10z"/>
<path d="M5784 905 c-27 -27 -39 -80 -31 -137 7 -56 36 -92 75 -96 37 -4 40
-12 12 -37 -14 -12 -18 -25 -14 -39 9 -29 10 -29 33 -17 42 23 51 61 51 209
l0 140 -52 0 c-40 0 -56 -5 -74 -23z m81 -58 c4 -13 5 -43 3 -68 -3 -38 -6
-44 -27 -47 -13 -2 -28 2 -32 10 -13 20 -11 102 3 116 20 20 47 14 53 -11z"/>
<path d="M5978 922 c-16 -3 -18 -16 -18 -100 0 -58 5 -107 13 -122 11 -22 19
-25 75 -27 l62 -1 0 124 c0 117 -1 124 -20 124 -18 0 -20 -7 -20 -89 0 -92
-11 -118 -43 -105 -19 7 -26 41 -30 134 -2 56 -4 65 -19 62z"/>
<path d="M1720 880 c8 -5 20 -10 25 -10 6 0 3 5 -5 10 -8 5 -19 10 -25 10 -5
0 -3 -5 5 -10z"/>
<path d="M2110 865 c-14 -8 -20 -14 -15 -14 6 0 21 6 35 14 14 8 21 14 15 14
-5 0 -21 -6 -35 -14z"/>
<path d="M6353 863 c-10 -27 6 -43 42 -43 33 0 36 2 33 27 -3 22 -8 26 -37 27
-18 1 -36 -5 -38 -11z"/>
<path d="M2050 840 c-8 -5 -10 -10 -5 -10 6 0 17 5 25 10 8 5 11 10 5 10 -5 0
-17 -5 -25 -10z"/>
<path d="M1270 670 l0 -100 69 0 c39 0 73 5 76 10 4 6 -17 10 -54 10 l-61 0 0
34 0 35 53 3 c28 2 52 8 52 13 0 6 -24 11 -52 13 -51 3 -53 4 -53 33 0 29 1
29 55 29 30 0 55 5 55 10 0 6 -30 10 -70 10 l-70 0 0 -100z"/>
<path d="M1760 740 c0 -27 -2 -29 -29 -24 -39 8 -71 -24 -71 -69 0 -52 21 -72
74 -72 l46 0 0 97 c0 59 -4 98 -10 98 -5 0 -10 -13 -10 -30z m-12 -52 c17 -17
15 -73 -3 -88 -39 -32 -81 29 -51 75 18 27 36 31 54 13z"/>
<path d="M2097 742 c-32 -33 -35 -47 -8 -32 11 5 22 10 25 10 3 0 6 -34 6 -75
0 -43 4 -75 10 -75 6 0 10 40 10 100 0 55 -4 100 -8 100 -5 0 -20 -13 -35 -28z"/>
<path d="M2229 760 c-22 -13 -31 -53 -19 -84 11 -30 49 -42 79 -26 24 12 26 4
11 -34 -11 -31 -54 -36 -69 -9 -5 10 -13 14 -17 10 -15 -14 12 -42 43 -45 24
-2 36 3 53 25 18 24 21 37 18 87 -3 42 -10 62 -23 72 -22 16 -53 18 -76 4z
m72 -31 c8 -16 8 -28 0 -45 -18 -41 -71 -25 -71 21 0 44 50 61 71 24z"/>
<path d="M2381 756 c-6 -8 -11 -31 -10 -52 0 -22 -3 -52 -6 -67 -15 -57 61
-91 105 -47 24 24 25 38 4 69 -12 17 -13 26 -5 34 16 16 13 42 -7 60 -23 21
-65 22 -81 3z m69 -21 c10 -12 10 -18 0 -30 -27 -32 -71 -8 -56 30 3 8 14 15
24 15 11 0 25 -7 32 -15z m0 -79 c6 -8 10 -25 8 -38 -6 -42 -78 -32 -78 11 0
37 46 55 70 27z"/>
<path d="M2554 713 c-61 -90 -61 -93 -9 -93 41 0 45 -2 45 -25 0 -14 5 -25 10
-25 6 0 10 9 10 20 0 10 8 24 18 30 16 10 16 10 0 20 -14 9 -18 24 -18 70 0
33 -4 60 -9 60 -4 0 -26 -26 -47 -57z m33 -70 c-3 -2 -17 -3 -31 -1 l-26 3 27
40 28 40 3 -39 c2 -21 1 -40 -1 -43z"/>
<path d="M1600 741 c0 -11 -5 -23 -10 -26 -7 -5 -8 -11 -1 -19 5 -6 11 -36 13
-66 3 -50 5 -55 28 -59 24 -3 24 -2 7 16 -20 23 -24 108 -4 117 10 5 10 7 0
12 -7 3 -13 14 -13 25 0 10 -4 19 -10 19 -5 0 -10 -9 -10 -19z"/>
<path d="M1468 709 c-21 -12 -24 -42 -5 -56 6 -6 26 -15 42 -20 17 -5 30 -16
30 -24 0 -20 -44 -23 -65 -4 -10 9 -21 12 -24 7 -11 -18 31 -44 65 -40 65 6
65 61 -1 83 -19 6 -36 17 -38 23 -6 18 28 27 50 13 27 -16 38 -3 14 15 -23 16
-44 17 -68 3z"/>
<path d="M1910 700 c0 -5 5 -10 10 -10 6 0 10 5 10 10 0 6 -4 10 -10 10 -5 0
-10 -4 -10 -10z"/>
<path d="M1910 585 c0 -8 5 -15 10 -15 6 0 10 7 10 15 0 8 -4 15 -10 15 -5 0
-10 -7 -10 -15z"/>
</g>
</svg>
